<?xml version="1.0" encoding="utf-8"?>
<!-- Generator: Adobe Illustrator 26.5.0, SVG Export Plug-In . SVG Version: 6.00 Build 0)  -->
<svg version="1.1" id="Layer_1" xmlns:svgjs="http://svgjs.com/svgjs"
	 xmlns="http://www.w3.org/2000/svg" xmlns:xlink="http://www.w3.org/1999/xlink" x="0px" y="0px" viewBox="0 0 360 360"
	 style="enable-background:new 0 0 360 360;" xml:space="preserve">
<style type="text/css">
	.st0{fill:#F8FCFE;}
	.st1{fill:url(#SVGID_1_);}
	.st2{opacity:0.7;fill:url(#SVGID_00000080207744809958438810000009355632167708160151_);enable-background:new    ;}
	.st3{opacity:0.7;fill:url(#SVGID_00000152945422737098710470000018128151444280858785_);enable-background:new    ;}
	.st4{fill:url(#SVGID_00000147210042947211166400000017232254993969913480_);}
	.st5{fill:url(#SVGID_00000175318348130894555050000001712138593902807230_);}
	.st6{fill:url(#SVGID_00000147898658868821318900000003128615154711849904_);}
	.st7{opacity:0.7;fill:url(#SVGID_00000168804056671095599750000007765219060228236439_);enable-background:new    ;}
	.st8{opacity:0.7;fill:url(#SVGID_00000126286338207088946200000011609071378430467253_);enable-background:new    ;}
	.st9{fill:url(#SVGID_00000168839121844558616890000001417988450060084641_);}
	.st10{fill:#56BCEF;}
	.st11{fill:#75D1FF;}
	.st12{fill:#35ADE9;}
	.st13{fill:#D4E9F4;}
	.st14{fill:#C6E5F5;}
	.st15{fill:#5A9DBF;}
	.st16{fill:#60B2DB;}
	.st17{fill:#6CCEFF;}
	.st18{fill:#4C6775;}
	.st19{fill:#9BDEFF;}
	.st20{fill:#FFFFFF;}
	.st21{fill:#51BEF4;}
	.st22{fill:#F1F7FA;}
	.st23{fill:#415965;}
	.st24{fill:#1D3643;}
	.st25{fill:#112833;}
	.st26{fill:#F1F8FC;}
	.st27{fill:#E7F5FC;}
	.st28{fill:#DEF1FB;}
	.st29{fill:#9EBBC9;}
	.st30{fill:#B0C5CF;}
	.st31{fill:#C9DAE2;}
	.st32{fill:#57C6FE;}
	.st33{fill:#E3ECF0;}
	.st34{fill:#61CAFF;}
	.st35{fill:#32A5DF;}
	.st36{fill:#1FB4FE;}
	.st37{fill:#5EA1C3;}
	.st38{fill:#49C2FE;}
	.st39{fill:#5AB8E7;}
	.st40{fill:#D0D6D9;}
	.st41{fill:#3DBAF9;}
	.st42{fill:#54AFDC;}
	.st43{fill:#6FCBF9;}
	.st44{fill:#568EAA;}
	.st45{fill:#8AD7FD;}
	.st46{fill:#48748A;}
	.st47{fill:#384951;}
	.st48{fill:#445E6B;}
	.st49{fill:url(#SVGID_00000129927782381991622270000006469591194144351367_);}
	.st50{fill:url(#SVGID_00000136378355836739557660000015786994491282140819_);}
	.st51{fill:url(#SVGID_00000137121759458477397530000015777139709519081605_);}
	.st52{fill:url(#SVGID_00000080199457182921458810000007461749911304397186_);}
	.st53{fill:url(#SVGID_00000111907599827060044040000011616253959771287727_);}
</style>
<path class="st0" d="M22.2,281.6c7.8,4.6,20.5,4.6,28.4,0c7.9-4.6,7.9-11.9,0.1-16.5c-7.8-4.6-20.5-4.6-28.4,0S14.4,277,22.2,281.6z
	 M261.4,296.8c8.2,4.8,21.5,4.8,29.8,0c8.3-4.8,8.3-12.5,0.1-17.3c-8.2-4.8-21.6-4.8-29.8,0C253.3,284.4,253.2,292.1,261.4,296.8z"
	/>
<linearGradient id="SVGID_1_" gradientUnits="userSpaceOnUse" x1="1158.1246" y1="-533.7821" x2="1175.8248" y2="-533.7821" gradientTransform="matrix(0.4379 0 8.758069e-06 -0.4379 -213.2672 -36.0027)">
	<stop  offset="0" style="stop-color:#EFF4F6"/>
	<stop  offset="1" style="stop-color:#B6D3E1;stop-opacity:0"/>
</linearGradient>
<path class="st1" d="M302,195.4v4.7l-7.7,0l0-4.7L302,195.4z"/>
<linearGradient id="SVGID_00000019676343575808440800000007953218378346158495_" gradientUnits="userSpaceOnUse" x1="7428.3398" y1="602.7194" x2="7573.2749" y2="574.5274" gradientTransform="matrix(0.2106 2.465396e-03 0.2761 -0.2224 -1470.3273 403.1531)">
	<stop  offset="0" style="stop-color:#EFF4F6"/>
	<stop  offset="0.674" style="stop-color:#4685A4;stop-opacity:0.293"/>
	<stop  offset="1" style="stop-color:#005782;stop-opacity:0"/>
</linearGradient>
<path style="opacity:0.7;fill:url(#SVGID_00000019676343575808440800000007953218378346158495_);enable-background:new    ;" d="
	M267.5,293.1l3.3-5.8c0.7,0,0.5-0.1,1.1,0c3.2,0.4,12.9,4.9,12,6.8C282.7,296.5,268,293.2,267.5,293.1L267.5,293.1z"/>
<linearGradient id="SVGID_00000101815669645768063330000002948672931650619782_" gradientUnits="userSpaceOnUse" x1="7465.2202" y1="619.9312" x2="7610.1885" y2="591.733" gradientTransform="matrix(0.2106 2.465396e-03 0.2761 -0.2224 -1470.3273 403.1531)">
	<stop  offset="0" style="stop-color:#EFF4F6"/>
	<stop  offset="0.674" style="stop-color:#4685A4;stop-opacity:0.293"/>
	<stop  offset="1" style="stop-color:#005782;stop-opacity:0"/>
</linearGradient>
<path style="opacity:0.7;fill:url(#SVGID_00000101815669645768063330000002948672931650619782_);enable-background:new    ;" d="
	M285.6,284.1v6.6c4.4,0.7,9.9,1.3,10.6-0.1C297,288.8,289.6,285.1,285.6,284.1L285.6,284.1z"/>
<linearGradient id="SVGID_00000029032175354875466360000006701403910514591128_" gradientUnits="userSpaceOnUse" x1="678.353" y1="-676.1836" x2="718.2535" y2="-676.1836" gradientTransform="matrix(0.4379 0 0 -0.4379 -196.3735 -37.8371)">
	<stop  offset="0" style="stop-color:#EFF4F6"/>
	<stop  offset="1" style="stop-color:#B6D3E1;stop-opacity:0"/>
</linearGradient>
<path style="fill:url(#SVGID_00000029032175354875466360000006701403910514591128_);" d="M116.8,256.5c3.4,1,3.5,2.6,0,3.5
	c-3.4,1-8.9,1-12.3,0c-3.4-1-3.5-2.6,0-3.5C107.8,255.5,113.3,255.5,116.8,256.5z"/>
<linearGradient id="SVGID_00000033350262596219774730000016733744793041392289_" gradientUnits="userSpaceOnUse" x1="818.553" y1="-754.9211" x2="858.4536" y2="-754.9211" gradientTransform="matrix(0.4379 0 0 -0.4379 -196.3735 -37.8371)">
	<stop  offset="0" style="stop-color:#EFF4F6"/>
	<stop  offset="1" style="stop-color:#B6D3E1;stop-opacity:0"/>
</linearGradient>
<path style="fill:url(#SVGID_00000033350262596219774730000016733744793041392289_);" d="M178.2,291c3.4,1,3.5,2.6,0,3.5
	c-3.4,1-8.9,1-12.3,0c-3.4-1-3.5-2.6,0-3.5C169.2,290,174.7,290,178.2,291z"/>
<linearGradient id="SVGID_00000015345951628875791140000013375352768430893971_" gradientUnits="userSpaceOnUse" x1="1034.375" y1="-626.2836" x2="1074.2755" y2="-626.2836" gradientTransform="matrix(0.4379 0 0 -0.4379 -196.3735 -37.8371)">
	<stop  offset="0" style="stop-color:#EFF4F6"/>
	<stop  offset="1" style="stop-color:#B6D3E1;stop-opacity:0"/>
</linearGradient>
<path style="fill:url(#SVGID_00000015345951628875791140000013375352768430893971_);" d="M272.7,234.7c3.4,1,3.5,2.6,0,3.5
	c-3.4,1-8.9,1-12.3,0c-3.4-1-3.5-2.6,0-3.5C263.7,233.7,269.2,233.7,272.7,234.7z"/>
<linearGradient id="SVGID_00000077293575972580218660000015999832630376782233_" gradientUnits="userSpaceOnUse" x1="6254.4287" y1="650.7632" x2="6399.3647" y2="622.5721" gradientTransform="matrix(0.2106 2.465396e-03 0.2761 -0.2224 -1470.3273 403.1531)">
	<stop  offset="0" style="stop-color:#EFF4F6"/>
	<stop  offset="0.674" style="stop-color:#4685A4;stop-opacity:0.293"/>
	<stop  offset="1" style="stop-color:#005782;stop-opacity:0"/>
</linearGradient>
<path style="opacity:0.7;fill:url(#SVGID_00000077293575972580218660000015999832630376782233_);enable-background:new    ;" d="
	M33.6,279.5l3.3-5.8c0.7,0,0.5-0.1,1.1,0c3.2,0.4,12.9,4.9,12,6.8C48.8,282.9,34.1,279.6,33.6,279.5L33.6,279.5z"/>
<linearGradient id="SVGID_00000160176925111236539020000017521362410060922518_" gradientUnits="userSpaceOnUse" x1="6160.606" y1="679.7966" x2="6305.542" y2="651.6046" gradientTransform="matrix(0.2106 2.465396e-03 0.2761 -0.2224 -1470.3273 403.1531)">
	<stop  offset="0" style="stop-color:#EFF4F6"/>
	<stop  offset="0.674" style="stop-color:#4685A4;stop-opacity:0.293"/>
	<stop  offset="1" style="stop-color:#005782;stop-opacity:0"/>
</linearGradient>
<path style="opacity:0.7;fill:url(#SVGID_00000160176925111236539020000017521362410060922518_);enable-background:new    ;" d="
	M21.8,272.8l3.3-5.8c0.7,0,0.5-0.1,1.1,0c3.2,0.4,12.9,4.9,12,6.8C37.1,276.2,22.3,272.9,21.8,272.8L21.8,272.8z"/>
<linearGradient id="SVGID_00000168831075913898625080000000040623746076994725_" gradientUnits="userSpaceOnUse" x1="1230.4846" y1="-625.2321" x2="1244.8036" y2="-625.2321" gradientTransform="matrix(0.4379 0 8.758069e-06 -0.4379 -213.2672 -36.0027)">
	<stop  offset="0" style="stop-color:#EFF4F6"/>
	<stop  offset="1" style="stop-color:#B6D3E1;stop-opacity:0"/>
</linearGradient>
<path style="fill:url(#SVGID_00000168831075913898625080000000040623746076994725_);" d="M332.3,235.9v3.8H326v-3.8H332.3z"/>
<path class="st10" d="M329.4,234.4v3.3c0,0.1-0.1,0.3-0.3,0.4l-2.2,1.3c-0.4,0.3-1.1,0.3-1.5,0l-2.2-1.3c-0.2-0.1-0.3-0.3-0.3-0.4
	v-3.3L329.4,234.4z"/>
<path class="st11" d="M329.1,234c0.4,0.2,0.4,0.6,0,0.9l-2.2,1.3c-0.4,0.3-1.1,0.3-1.5,0l-2.2-1.3c-0.4-0.2-0.4-0.6,0-0.9l2.2-1.3
	c0.4-0.3,1.1-0.3,1.5,0L329.1,234z"/>
<path class="st12" d="M179.3,148.3c0,0,0.9,1,1,2.6c0,1.6-0.7,4.7-0.5,6.8s-0.7,4.2-1.5,4.8s-4.5,2.5-5.3,1.3s0.4-4.3,0.5-4.9
	c0.1-0.6,1.8-9.4,1.8-9.4L179.3,148.3z M170.9,143.6c0,0,1.9,0.7,1.8,2.9c0,2.2-0.3,2.8-0.3,2.8l-0.3,5.3h-0.7l-0.3-4.2
	c0,0-0.6,1.1-0.7,2.6c-0.1,1.4-0.3,3.1-2.9,4.4c-2.6,1.3-4.8,1.2-4.5,0.3c0.4-1,1.6-4.5,1.8-4.9c0.2-0.4,2.1-3.3,2.1-3.3
	L170.9,143.6L170.9,143.6z"/>
<path class="st13" d="M179.2,147.1c0.5,2.5-0.1,8.1-0.4,9.8c-0.3,1.3-0.5,3.2-1.9,3.5c-0.2,0-0.4,0.1-0.6,0.1c-2,0-2-0.7-2-1.8
	s1-7.2,1.1-8.5c0.1-1.3-0.6-12.2-1.4-15.1c-0.9-2.9-1.8-11.6-1.8-11.6l5.1,0.7l2.3,0.4c0,0,1.7,4.4,1.6,9
	C181,138,178.7,144.5,179.2,147.1z M171.8,130.2c-0.5,3.2-2.1,9.5-1.6,11.7c0,0,0.3,1.4,0.7,1.7c0,0,0.4,1.4-0.9,5.1
	s-1.6,6.8-3.7,6.2c-0.1,0-0.1,0-0.2,0c-1.8-0.6-0.8-1.9-0.7-2.8c0.1-0.9,1.1-6.5,0.9-8.4c-0.2-1.9-1.3-18.4-3.3-22.5l1.4-1.6
	l6.2,4.2l1.4,0.9C171.9,124.9,172.3,127.1,171.8,130.2L171.8,130.2z"/>
<path class="st14" d="M179.2,147.1c0.5,2.5-0.1,8.1-0.4,9.8c-0.3,1.3-0.5,3.2-1.9,3.5c0-0.3,0.1-0.5,0.1-0.7
	c0.2-0.7,0.4-1.4,0.7-2.1c0.4-1.5,0.4-3.1,0.4-4.7c-0.2-7.5,0.6-14.9,0.4-22.4c0-2-1.3-4.3-1.2-6.3l2.3,0.4c0,0,1.7,4.4,1.6,9
	C181,138,178.7,144.5,179.2,147.1L179.2,147.1z M171.8,130.2c-0.5,3.2-2.1,9.5-1.6,11.7c0,0,0.3,1.4,0.7,1.7c0,0,0.4,1.4-0.9,5.1
	s-1.6,6.8-3.7,6.2c-0.1,0-0.1,0-0.2,0c0.1,0,0.1-0.1,0.2-0.2c2-2,2.5-4.9,2.8-7.7c0.1-1.3,0.2-2.5,0.2-3.8c0-1.1-0.1-2.2-0.2-3.3
	c-0.1-2.3,0.2-4.6,0.4-6.8c0-0.5,0.1-1,0.2-1.5c0.3-2.5,0.6-4.9,0.8-7.4c0-0.1,0-0.1,0-0.2l1.4,0.9
	C171.9,124.9,172.3,127.1,171.8,130.2L171.8,130.2z M160.6,85.6l-2.5,4.5l3.5,3.4l2.9-6.1L160.6,85.6z"/>
<path class="st15" d="M162.5,78l-2.3,7.5c-0.3,0.7,6,3.5,6.3,2.8l1.7-13.1c-0.9,0-1.8,0-2.7,0.2C164.2,75.6,162.8,76.7,162.5,78
	L162.5,78z"/>
<path class="st16" d="M163.4,133.7c1.6,4.9,16.2,4.2,18,2.5c1.8-1.7,0.7-18.5-0.2-28.7c-0.4-3.6-0.7-6.4-0.9-7.4
	c-0.2-0.9-0.2-2.5,0-4.3c0.4-6,2.1-15.2,1.9-16.2c-0.3-1.4-2.5-2.4-8.1-3.8c-3.3-0.8-6.2-0.7-8.1-0.4c-1.9,0.3-2.1,2.7-2.1,3.9
	c-1.5,3.6-1.8,6.7,0.4,8.8c0,0,1,4.7-0.7,10.2C161.9,103.5,161.5,127.6,163.4,133.7L163.4,133.7z"/>
<path class="st15" d="M164.3,88l0.1,0.6c6.9,2.6,10.9-0.4,11-0.6C169.2,90.5,164.3,88,164.3,88L164.3,88z"/>
<path class="st17" d="M162.3,95.8h0.5l1-0.1l-0.6-1.1l-0.6,0.8L162.3,95.8z"/>
<path class="st18" d="M162.3,95.8h0.5l-0.2-0.4L162.3,95.8z"/>
<path class="st19" d="M168.9,85.5c4.9-1.7,9-9.5,9.2-9.9l-0.3-0.2c0,0.1-4.1,8.1-8.9,9.7C168.8,85.1,168.9,85.5,168.9,85.5z"/>
<path class="st20" d="M170.7,93.1l-4-2.3v-7.4l4,2.3V93.1z M168.7,85.5c0.2,0.1,0.3,0,0.3-0.2c0-0.2-0.1-0.4-0.3-0.5
	c-0.1-0.1-0.3,0-0.3,0.2C168.5,85.2,168.6,85.4,168.7,85.5"/>
<path class="st21" d="M163.2,94.7c-0.1,0.1,0.5,1.1,0.6,1.1l9.4-5.7c0.3-0.2,0.4-0.6,0.2-0.8c-0.2-0.3-0.6-0.4-0.8-0.2L163.2,94.7z"
	/>
<path class="st13" d="M162.7,94.6l0.2,0.4l2.6-1.7C165.5,93.3,163.1,93.6,162.7,94.6z"/>
<path class="st15" d="M165.6,98.3c8.6,1.9,13.5,5.8,15.8,11.3c-0.4-3.6-0.9-8.6-1.1-9.5c-0.2-0.9-0.2-2.5,0-4.3l-0.2-0.4L165.6,98.3
	z"/>
<path class="st14" d="M163,94.9l2.6,3.3l3.7-0.2c3.8,1.5,9.2,1.4,11.6-0.5c2.1-1.6,1.8-9.7,1.8-9.7h-4.9l-0.2,6.1
	c0,0.6-0.4,1.1-1.1,1.1c-2,0.4-3.8,0.5-5.9,0.2c-0.5-0.1-1-0.3-1.4-0.5c-0.9-0.6-2-1.2-2.5-0.8l-1.4,0.8l-0.8-0.3
	C163.5,94.1,163,94.9,163,94.9z"/>
<path class="st22" d="M159.1,89.5l-11-5.4l10.2,12.6l11.1,5.7L159.1,89.5z"/>
<path class="st18" d="M154.3,87l-2.8-1.4l1.2,1.4l2.9,1.5L154.3,87z"/>
<path class="st14" d="M155.2,93c0,0,1.3-0.8,2,0c0.7,0.8,1.4,2.5,0.4,2.7C156.8,96,155.2,94.7,155.2,93z"/>
<path class="st15" d="M180.2,77.7c0,0,2,0.5,2.4,2.8c0.4,2.3,0.4,7.8,0.4,7.8c0,0.5-5.3,0.5-5.3,0C177.6,88.3,175.5,77.3,180.2,77.7
	L180.2,77.7z"/>
<path class="st19" d="M168.8,85.5L168.8,85.5c0.2,0,0.2-0.1,0.2-0.2c0,0-2.9-6.6-0.9-11.8c0-0.1,0-0.2-0.1-0.2c-0.1,0-0.2,0-0.2,0.1
	c-2.1,5.4,0.9,12,0.9,12.1S168.7,85.5,168.8,85.5z"/>
<path class="st14" d="M169.4,78.5c-0.2,1.4,1.3,2,2.7,1.9l3.2-5.4c0,0-0.4-8.7-0.4-9.1c0-0.3-4.2-2.6-4.2-2.6l-3.5,1.8l-1.5,3.3
	l0.7,4.7L169.4,78.5L169.4,78.5z"/>
<path class="st18" d="M173.3,81.4c-0.9,0.6-3.6,1.8-3.6,1.8c6.7-8.2,2.5-17.6,2.3-17.9s-4.8,1.8-5.1,2c-0.3,0.2,0.1,2.1,0.1,2.1
	c-1.2,1.8,0.4,4.7,0.8,5.6c0.4,0.9,2,0.4,2,0.4l-0.4,3.1c-5-2.4-4-11-4-11c0-2.7,1.2-4.2,2.5-5.2c2.2-1.5,5-1.5,7.4-0.1
	c1.8,1,3.5,2.9,4,6.4C180.2,75.8,174.3,80.8,173.3,81.4L173.3,81.4z"/>
<path class="st23" d="M221.8,164.7l11-6.4l11.6,6.7l-11,6.4L221.8,164.7z"/>
<path class="st18" d="M250.8,175.9l0,18l-11.1,6.5l-18-10.4l0.1-25.2l11.6,6.7l11-6.4L250.8,175.9z"/>
<path class="st24" d="M239.7,182.4l11.1-6.5l0,18l-11.1,6.5L239.7,182.4z"/>
<path class="st18" d="M233.4,171.4l11.1-6.5l6.4,10.9l-11.1,6.5L233.4,171.4z"/>
<path class="st25" d="M233.4,171.4l6.3,10.9l0,18l-18-10.4l0.1-25.2L233.4,171.4z"/>
<path class="st26" d="M250.6,174.2l-11.1,6.5L239,181l-5.6-9.6l-11.6-6.7v-0.9l11-6.4l11.9,6.9L250.6,174.2z"/>
<path class="st27" d="M221.8,163.9l11-6.5l11.9,6.9l-11.1,6.5L221.8,163.9z"/>
<path class="st26" d="M233.7,170.8l11.1-6.5l5.8,9.9l-11.1,6.5L233.7,170.8z"/>
<path class="st28" d="M233.7,170.8l5.8,9.9L239,181l-5.6-9.6l-11.6-6.7v-0.8L233.7,170.8z"/>
<path class="st29" d="M170.9,282l-1.4,5.3l-0.8,0.5l-2.3-1.3l-1.3-6.9l0.9-0.5L170.9,282z"/>
<path class="st29" d="M168.7,287.8l0.9-0.5l1.4-5.3l-0.9,0.5L168.7,287.8z"/>
<path class="st23" d="M170.1,282.5l0.9-0.5l-4.9-2.9l-0.9,0.5L170.1,282.5z"/>
<path class="st30" d="M165.1,279.6l1.3,6.9l2.3,1.3l1.4-5.3L165.1,279.6z"/>
<path class="st18" d="M169.7,290.7c0,1-0.4,1.7-0.9,2l-2.5,1.4c0.6-0.4-0.5-1.1-0.5-2c0-2-0.3-2.8-2-3.9c-0.9-0.5-1.3-2.1-1.8-1.7
	l2.5-1.4c0.6-0.4,1.4-0.3,2.2,0.2C168.4,286.4,169.7,288.7,169.7,290.7L169.7,290.7z"/>
<path class="st24" d="M164.2,286.8c-1.7-1-3.1-0.2-3.1,1.8c0,2,1.4,4.4,3.1,5.4s3.1,0.2,3.1-1.8C167.3,290.1,166,287.8,164.2,286.8z
	"/>
<path class="st28" d="M164.2,288.3c-1-0.6-1.8-0.1-1.8,1.1s0.8,2.6,1.8,3.2c1,0.6,1.8,0.1,1.8-1.1
	C166.1,290.2,165.3,288.8,164.2,288.3z"/>
<path class="st30" d="M167.3,284.1l-1.4,5.3l-0.9,0.5l-2.3-1.3l-1.3-6.9l0.9-0.5L167.3,284.1z"/>
<path class="st29" d="M165.1,290l0.9-0.5l1.4-5.3l-0.9,0.5L165.1,290z"/>
<path class="st23" d="M166.5,284.6l0.9-0.5l-4.9-2.8l-0.9,0.5L166.5,284.6z"/>
<path class="st30" d="M161.5,281.7l1.3,6.9l2.3,1.3l1.4-5.3L161.5,281.7z"/>
<g>
	<path class="st29" d="M262.8,231.2l0.9-0.5l1.4-5.3l-0.9,0.5L262.8,231.2z"/>
	<path class="st23" d="M264.1,225.9l0.9-0.5l-4.9-2.8l-0.9,0.5L264.1,225.9z"/>
	<path class="st30" d="M259.2,223l1.4,6.9l2.2,1.3l1.4-5.3L259.2,223z"/>
</g>
<g>
	<path class="st18" d="M263.8,234.1c0,1-0.4,1.7-0.9,2l-2.5,1.4c0.6-0.4-0.5-1.1-0.5-2c0-2-0.3-2.8-2-3.9c-0.9-0.5-1.3-2.1-1.8-1.7
		l2.5-1.4c0.6-0.4,1.4-0.3,2.2,0.2C262.5,229.8,263.8,232.1,263.8,234.1L263.8,234.1z"/>
	<path class="st24" d="M258.3,230.2c-1.7-1-3.1-0.2-3.1,1.8s1.4,4.4,3.1,5.4c1.7,1,3.1,0.2,3.1-1.8
		C261.4,233.5,260,231.2,258.3,230.2z"/>
	<path class="st28" d="M258.3,231.6c-1-0.6-1.8-0.1-1.8,1.1c0,1.2,0.8,2.6,1.8,3.2c1,0.6,1.8,0.1,1.8-1.1
		C260.1,233.6,259.3,232.2,258.3,231.6z"/>
</g>
<g>
	<path class="st29" d="M259.2,233.3l0.9-0.5l1.4-5.3l-0.9,0.5L259.2,233.3z"/>
	<path class="st23" d="M260.5,228l0.9-0.5l-4.9-2.9l-0.9,0.5L260.5,228z"/>
	<path class="st30" d="M255.6,225.1l1.4,6.9l2.2,1.3l1.4-5.3L255.6,225.1z"/>
</g>
<g>
	<path class="st29" d="M109.3,247.4l-1.4,5.3l-0.8,0.5l-2.3-1.3l-1.3-6.9l0.9-0.5L109.3,247.4z"/>
</g>
<g>
	<path class="st29" d="M107.1,253.2l0.8-0.5l1.4-5.3l-0.9,0.5L107.1,253.2z"/>
	<path class="st23" d="M108.4,247.9l0.9-0.5l-4.9-2.8l-0.9,0.5L108.4,247.9z"/>
	<path class="st30" d="M103.5,245l1.3,6.9l2.3,1.3l1.4-5.3L103.5,245z"/>
</g>
<g>
	<path class="st18" d="M108.1,256.1c0,1-0.4,1.7-0.9,2l-2.5,1.4c0.6-0.4-0.5-1.1-0.5-2c0-2-0.3-2.8-2-3.9c-0.9-0.5-1.3-2.1-1.8-1.7
		l2.5-1.4c0.6-0.4,1.4-0.3,2.2,0.2C106.8,251.8,108.1,254.1,108.1,256.1L108.1,256.1z"/>
	<path class="st24" d="M102.6,252.2c-1.7-1-3.1-0.2-3.1,1.8s1.4,4.4,3.1,5.4c1.7,1,3.1,0.2,3.1-1.8
		C105.7,255.5,104.4,253.2,102.6,252.2z"/>
	<path class="st28" d="M102.6,253.6c-1-0.6-1.8-0.1-1.8,1.1s0.8,2.6,1.8,3.2c1,0.6,1.8,0.1,1.8-1.1
		C104.5,255.6,103.7,254.2,102.6,253.6z"/>
</g>
<g>
	<path class="st30" d="M105.7,249.5l-1.4,5.3l-0.9,0.5l-2.3-1.3l-1.3-6.9l0.9-0.5L105.7,249.5z"/>
</g>
<g>
	<path class="st29" d="M103.5,255.3l0.9-0.5l1.4-5.3l-0.9,0.5L103.5,255.3z"/>
	<path class="st23" d="M104.8,250l0.9-0.5l-4.9-2.9l-0.9,0.5L104.8,250z"/>
	<path class="st30" d="M99.9,247.1l1.3,6.9l2.3,1.3l1.4-5.3L99.9,247.1z"/>
</g>
<g>
	<path class="st29" d="M50.2,219l0.9-0.5l1.4-5.3l-0.9,0.5L50.2,219z"/>
	<path class="st23" d="M51.6,213.7l0.9-0.5l-4.9-2.8l-0.9,0.5L51.6,213.7z"/>
	<path class="st30" d="M46.7,210.8l1.3,6.9l2.2,1.3l1.4-5.3L46.7,210.8z"/>
</g>
<g>
	<path class="st18" d="M51.3,222c0,1-0.4,1.7-0.9,2l-2.5,1.4c0.6-0.4-0.5-1.1-0.5-2c0-2-0.3-2.8-2-3.9c-0.9-0.5-1.3-2.1-1.8-1.7
		l2.5-1.4c0.6-0.4,1.4-0.3,2.2,0.2C49.9,217.6,51.3,219.9,51.3,222L51.3,222z"/>
	<path class="st24" d="M45.8,218c-1.7-1-3.1-0.2-3.1,1.8s1.4,4.4,3.1,5.4c1.7,1,3.1,0.2,3.1-1.8S47.5,219,45.8,218z"/>
	<path class="st28" d="M45.8,219.5c-1-0.6-1.8-0.1-1.8,1.1c0,1.2,0.8,2.6,1.8,3.2c1,0.6,1.8,0.1,1.8-1.1
		C47.6,221.5,46.8,220.1,45.8,219.5z"/>
</g>
<g>
	<path class="st29" d="M46.7,221.2l0.9-0.5l1.4-5.3l-0.9,0.5L46.7,221.2z"/>
	<path class="st23" d="M48,215.8l0.9-0.5l-4.9-2.9l-0.9,0.5L48,215.8z"/>
	<path class="st30" d="M43.1,213l1.3,6.9l2.3,1.3l1.4-5.3L43.1,213z"/>
</g>
<path class="st31" d="M265.4,204.3l-0.7,3.2l-0.8,4l-4.3,20.5c-0.3,1.2-1.3,1.6-2.5,0.9l-128-74.2c-0.6-0.3-1-1.1-1-1.8l0-21
	c0-2.6-1.8-5.8-4.1-7.1c-0.3-0.2-0.5-0.4-0.7-0.7c-0.2-0.3-0.3-0.7-0.3-1l0-7.5c0-0.7,0.5-0.9,1.1-0.6L263,199.4
	C264.6,200.3,265.8,202.7,265.4,204.3z"/>
<g>
	<path class="st18" d="M266.9,202.3l-5.6,26.8c-0.1,0.5-0.4,0.8-0.7,1l-84.9,49.6c0.3-0.2,0.5-0.5,0.7-1l5.6-26.8
		c0.3-1.5-0.8-3.9-2.4-4.8l-136-78.9c-0.3-0.2-0.5-0.2-0.7-0.1l84.8-49.6c0.2-0.1,0.4-0.1,0.7,0.1l136,78.9
		C266,198.4,267.2,200.7,266.9,202.3z"/>
	<path class="st32" d="M260,202c-1.4-2.4-4.4-3.8-6.8-5c-2.7-1.4-5.5-2.5-8.1-3.8c-0.2-0.1-0.4-0.2-0.5-0.4c-5-2.7-9.4-6.1-14.3-9
		c-2.5-1.5-5.1-2.7-7.8-3.9c-2.4-1.1-4.2-2.5-6.2-4.1c-0.6-0.5-1.2-0.9-1.8-1.3c-0.6-0.3-1.2-0.6-1.9-0.9c-4.2-2.1-8.3-4.2-12-6.9
		c-4.3-2.1-9-3.9-12.7-7.1c-0.3-0.2-0.4-0.4-0.5-0.7c-0.4,0-0.7,0-1.1-0.2c-2.2-1.1-4.3-2.6-6.5-3.8c-2.4-1.3-4.6-2.7-6.8-4.2
		c-2.1-1.4-3.8-3.2-5.9-4.6l-0.4-0.3c-3.4-1.8-6.9-3.5-10.2-5.6c-0.2-0.1-0.4-0.3-0.5-0.5c-3.1-1.7-6.1-3.4-9.1-5.2
		c-2.1-1.3-4.2-2.6-6.5-3.7c-2.3-1.1-4.4-2.8-6.9-3.5c-1-0.3-1.4-1.1-1.3-1.8c-2-0.8-4-1.5-5.7-2.9c-0.2-0.2-0.4-0.4-0.5-0.7
		l-78.6,45.8l133.3,77.3c2.3,1.4,3.9,4.6,3.4,7l-4.8,22.9l78.2-45.7c0.2-3,1.1-5.9,1.5-8.8c0.6-3.7,2-7.2,2.1-10.9
		c0-1.7,0-3.4,0.3-5.1c0.1-0.6,0.3-1.2,0.4-1.7C261.1,203,260.4,202.7,260,202L260,202z"/>
	<path class="st24" d="M262.8,204.6l-5.6,26.8c-0.1,0.5-0.4,0.8-0.7,1l-84.9,49.6c0.3-0.2,0.5-0.5,0.7-1l5.6-26.8
		c0.3-1.5-0.8-3.9-2.4-4.8l84.8-49.6C262,200.7,263.1,203,262.8,204.6z"/>
	<path class="st24" d="M180.1,246.7l-136-78.9c-0.3-0.2-0.5-0.2-0.7-0.1l-5.6,3.3c0.2-0.1,0.4-0.1,0.7,0.1l136,78.9
		c1.5,0.9,3.5,2.7,3.2,4.2l-5.6,26.8c-0.1,0.5-0.4,0.8-0.7,1l4.8-2.8c0.3-0.2,0.6-0.5,0.7-1l5.6-26.8
		C182.8,249.9,181.7,247.7,180.1,246.7L180.1,246.7z"/>
	<path class="st25" d="M182.5,251.5l-2.2,10.5l-1,4.5l-2.5,11.7c-0.1,0.5-0.3,0.8-0.6,1c0,0,0,0,0,0l-4.8,2.8c0.3-0.2,0.5-0.5,0.7-1
		l2.5-11.8l1-4.5l2.2-10.5c0.3-1.5-1.7-3.3-3.2-4.2l1.1-0.7l3.5-2.1l1.1-0.6C181.7,247.7,182.8,249.9,182.5,251.5L182.5,251.5z"/>
	<path class="st24" d="M260.6,199.8l-136-78.9c-0.3-0.2-0.5-0.2-0.7-0.1l-4.8,2.8c0.2-0.1,0.4-0.1,0.7,0.1l136,78.9
		c1.5,0.9,2.7,3.2,2.4,4.7l-5.6,26.8c-0.1,0.5-0.4,0.8-0.7,1l4.8-2.8c0.3-0.2,0.6-0.5,0.7-1l5.6-26.8
		C263.3,203,262.2,200.6,260.6,199.8L260.6,199.8z"/>
	<path class="st25" d="M263,204.5l-2.2,10.7l-1,4.5l-2.4,11.6c-0.1,0.5-0.4,0.8-0.7,1l-0.1,0.1l-4.6,2.7c0.3-0.2,0.5-0.5,0.7-1
		l2.5-11.6l1-4.5l2.2-10.7c0.3-1.5-0.8-3.9-2.4-4.8l4.6-2.7l0.2-0.1C262.1,200.6,263.3,203,263,204.5z"/>
	<path class="st33" d="M267.9,196.5l-138.8-80.5c-0.3-0.2-0.5-0.2-0.7-0.1l-5,2.9c0.2-0.1,0.4-0.1,0.7,0.1l138.8,80.5
		c1.6,0.9,2.8,3.3,2.5,4.9l-5.8,27.7c-0.1,0.5-0.4,0.8-0.7,1.1l5-2.9c0.4-0.2,0.6-0.5,0.7-1.1l5.8-27.7
		C270.7,199.8,269.5,197.4,267.9,196.5L267.9,196.5z"/>
	<path class="st18" d="M155.7,280.5L38.3,212.3c-0.6-0.4-1.1-1.1-1.1-1.8l0-6.8l111.5,64.7L155.7,280.5z"/>
	<path class="st33" d="M178.5,255.1l-5.8,27.7c-0.1,0.5-0.4,0.8-0.7,1.1l-4.9,2.9H167c-0.5,0.3-1.1,0.2-1.8-0.2l-10.5-6.1l-7-12
		L36.3,203.8v-14.3c0-2.6-1.8-5.8-4.1-7.1c-0.3-0.2-0.5-0.4-0.7-0.7c-0.2-0.3-0.3-0.7-0.3-1l0-7.5c0-0.4,0.1-0.6,0.4-0.7l4.9-2.9
		c0.2-0.1,0.4-0.1,0.7,0.1l138.8,80.5C177.6,251.1,178.8,253.4,178.5,255.1L178.5,255.1z"/>
	<path class="st33" d="M176.1,250.2L37.2,169.6c-0.3-0.2-0.5-0.2-0.7-0.1l-5,2.9c0.2-0.1,0.4-0.1,0.7,0.1L171.1,253
		c1.6,0.9,2.8,3.3,2.5,4.9l-5.8,27.7c-0.1,0.5-0.4,0.8-0.7,1.1l5-2.9c0.4-0.2,0.6-0.5,0.7-1.1l5.8-27.7
		C178.8,253.4,177.6,251.1,176.1,250.2L176.1,250.2z"/>
	<path class="st31" d="M173.5,258l-0.7,3.2l-0.8,4l-4.3,20.5c-0.3,1.2-1.3,1.5-2.5,0.9l-10.5-6.1l-7-12L36.3,203.8v-14.3
		c0-2.6-1.8-5.8-4.1-7.1c-0.3-0.2-0.5-0.4-0.7-0.7c-0.2-0.3-0.3-0.7-0.3-1l0-7.5c0-0.7,0.4-0.9,1-0.6L171.1,253
		C172.7,254,173.9,256.4,173.5,258L173.5,258z"/>
</g>
<path class="st30" d="M166.2,250.2v7.1L39.6,183.9v-7.1L166.2,250.2z"/>
<path class="st21" d="M166.2,257.3l-0.2,4.3l-125.7-73l-0.6-4.8L166.2,257.3z"/>
<path class="st31" d="M171.1,247.3l-5,2.9L39.6,176.8l5-2.9L171.1,247.3z"/>
<path class="st29" d="M170,248l-2.6,1.5L40.8,176.1l2.6-1.5L170,248z"/>
<path class="st20" d="M169,248.5l-1.7,1L40.8,176.1l1.7-1L169,248.5z"/>
<path class="st30" d="M263,193.6l-5,2.9l-126.5-73.4l5-2.9L263,193.6z"/>
<path class="st29" d="M261.8,194.3l-2.6,1.5l-126.5-73.4l2.6-1.5L261.8,194.3z"/>
<path class="st20" d="M260.8,194.9l-1.7,1l-126.5-73.4l1.7-1L260.8,194.9z"/>
<path class="st29" d="M258,196.5v1.7l-126.5-73.4v-1.8L258,196.5z"/>
<path class="st18" d="M260.7,215.2l-0.9,4.3l-0.1,0.1l-4.5,2.6l-74.4,43.3l-4.4,2.5l-0.8,0.4l0.9-4.3l0.8-0.4l4.3-2.5l74.4-43.3
	l4.5-2.6L260.7,215.2z"/>
<path class="st34" d="M125.8,222.4v1.1l-1.6,1l-1.1-0.6L125.8,222.4z"/>
<g>
	<path class="st35" d="M245.2,168.9l-0.3,0.1c-0.4,0.1-0.8,0-1-0.4c-0.2-0.4-0.1-0.9,0.2-1.1c0,0,0,0,0.4-0.2L245.2,168.9z"/>
	<path class="st36" d="M246.6,171.5l-0.3,0.1c-0.4,0.2-0.8,0-1-0.4c-0.2-0.4-0.1-0.9,0.2-1.1c0,0,0,0,0,0l0.3-0.1L246.6,171.5z"/>
	<path class="st37" d="M247.9,174l-0.3,0.1c-0.4,0.2-0.8,0-1-0.4c-0.2-0.4-0.1-0.9,0.2-1.1c0,0,0,0,0,0l0.3-0.1L247.9,174z"/>
	<path class="st38" d="M241.9,168.9l-1.9,9.6l-0.3,0.1c-0.3,0.1-0.6,0-0.8-0.4l-2.8-5.3c-0.2-0.4-0.1-0.7,0.2-0.9l5.3-3.1
		C241.6,169,241.6,169,241.9,168.9L241.9,168.9z"/>
	<path class="st32" d="M241.9,168.9c0.3-0.2,0.7,0,0.8,0.4l2.8,5.3c0.2,0.4,0.1,0.7-0.2,0.9l-5.3,3.1c-0.3,0.2-0.7,0-0.8-0.4
		l-2.8-5.3c-0.2-0.4-0.1-0.7,0.2-0.9L241.9,168.9z"/>
</g>
<path class="st39" d="M247.1,172.4c0.4-0.2,0.8,0,1.1,0.4c0.2,0.4,0.1,0.9-0.2,1.1c-0.4,0.2-0.8,0-1.1-0.4
	C246.7,173.1,246.8,172.6,247.1,172.4z"/>
<path class="st17" d="M245.8,169.9c0.4-0.2,0.8,0,1.1,0.4c0.2,0.4,0.1,0.9-0.2,1.1s-0.8,0-1.1-0.4
	C245.3,170.6,245.4,170.1,245.8,169.9z"/>
<path class="st21" d="M244.4,167.4c0.4-0.2,0.8,0,1.1,0.4c0.2,0.4,0.1,0.9-0.2,1.1c-0.4,0.2-0.8,0-1.1-0.4
	C244,168.1,244.1,167.6,244.4,167.4z"/>
<path class="st20" d="M128.5,167.7C128.4,167.7,128.4,167.7,128.5,167.7c-14.1-11.5-28.8-15.1-28.9-15.1c0,0,0,0-0.1,0v-0.1
	c0,0,0.2-0.4,0.7-1.3c0-0.1,0-0.2,0-0.4c-0.4-0.9-2.8-2.4-3.4-2.6c-0.8-0.3-4.3-3.1-4.5-3.2c0,0,0,0,0-0.1s0,0,0-0.1l1.8-1.6
	c0,0,0.1,0,0.1,0l4.2,1.7l-2.6-2.6c0,0,0,0,0-0.1s0,0,0-0.1l3.3-2.4c0,0,0,0,0.1,0c5.2,1.1,13.3,5.6,15,7.2c1.8,1.6,9,6.8,12.2,8.8
	c3.2,2,11.6,5.9,11.7,6c0,0,0.1,0,0,0.1c0,0,0,0.1-0.1,0.1C134.3,162.9,128.5,167.6,128.5,167.7
	C128.5,167.7,128.5,167.7,128.5,167.7z M99.7,152.4c1.5,0.4,15.4,4.2,28.7,15c0.7-0.5,5.7-4.6,9.2-5.6c-1.4-0.7-8.6-4.1-11.4-5.9
	c-3.2-2-10.4-7.2-12.2-8.8c-1.7-1.5-9.8-6-14.9-7.1l-3.2,2.3l2.9,2.8c0,0,0,0.1,0,0.1c0,0-0.1,0-0.1,0l-4.7-1.8l-1.6,1.4
	c0.6,0.5,3.6,2.9,4.3,3.1c0.7,0.2,3.2,1.7,3.5,2.7c0.1,0.2,0.1,0.4,0,0.5C100,151.9,99.8,152.2,99.7,152.4L99.7,152.4z M93.1,186.7
	c0,0-0.1,0-0.1,0l-34-19.1c-0.1,0-0.1-0.1-0.1-0.2s0-0.2,0.1-0.3h0c0,0,0.9-0.7,1-1.8c0-0.7-0.2-1.4-0.9-2.1c-0.1-0.1-0.1-0.2,0-0.3
	c0-0.1,0.1-0.2,0.3-0.2h2.1c0,0,0.1,0,0.1,0l11.2,6.3l-7.4-8.1c-0.1-0.1-0.1-0.2,0-0.3s0.1-0.2,0.3-0.2l6.6-0.6
	c0.1,0,0.3,0.1,0.3,0.2c0.3,0.7,2.8,6.7,8.2,4.9c0.1,0,0.2,0,0.3,0l7.8,5.9c1.7,0.6,15.8,5.8,16.7,8.2c0,0.1,0,0.3-0.1,0.4l-12,7.1
	L93.1,186.7L93.1,186.7z M59.1,167.2C59.1,167.2,59,167.3,59.1,167.2c0,0.1,0,0.1,0,0.1l34,19.1h0.1l12.1-7.1c0,0,0-0.1,0-0.1
	c-0.7-1.9-10.8-6-16.6-8.1h0l-7.8-6h-0.1c-5.6,1.8-8.2-4.3-8.5-5c0,0,0,0-0.1,0l-6.6,0.6c0,0,0,0,0,0v0.1l7.8,8.5c0,0,0,0.1,0,0.1
	c0,0-0.1,0-0.1,0l-11.8-6.6h-2.1c0,0,0,0-0.1,0v0.1c0.7,0.7,1,1.5,0.9,2.2C60.1,166.3,59.3,167.1,59.1,167.2z"/>
<path class="st20" d="M98.3,178.4c0,0-0.1,0-0.1,0l-10.8-4.6l-9.5-6.9c-0.1-0.1-0.2-0.3-0.1-0.4s0.3-0.2,0.4-0.1l20.3,11.6
	c0.1,0.1,0.2,0.3,0.1,0.4C98.5,178.3,98.4,178.4,98.3,178.4L98.3,178.4z M78,166.5C77.9,166.5,77.9,166.5,78,166.5l0,0.1l9.5,6.9
	l10.8,4.6c0,0,0,0,0.1,0c0,0,0-0.1,0-0.1L78,166.5z M108.7,177.8c0,0-0.1,0-0.2,0c-0.4-0.3-11.1-7.4-12.2-9.5
	c-0.7-1.3-7.1-4.1-11.3-5.7c-0.1,0-0.2-0.1-0.2-0.2c0-0.1,0-0.2,0-0.3c0.6-0.8,0.8-1.6,0.5-2.3c-1-2.7-7.7-4.2-7.7-4.2
	c-0.1,0-0.2-0.1-0.2-0.2c0-0.1,0-0.2,0-0.3l2.5-3.3c0,0,0.1-0.1,0.2-0.1c0.1,0,0.1,0,0.2,0c1.3,1,3.4,1.6,4.8,1.9
	c-1-0.7-2.8-1.7-4.3-2.4c-0.1,0-0.1-0.1-0.2-0.2c0-0.1,0-0.2,0-0.3l0.9-1.2c0-0.1,0.1-0.1,0.3-0.1c1.8,0.2,4.2-0.8,4.5-0.9
	c0.1,0,0.2,0,0.3,0l35.4,20.8c0.1,0,0.1,0.1,0.1,0.3c0,0.1,0,0.2-0.1,0.3l-13.3,7.8C108.8,177.8,108.8,177.8,108.7,177.8
	L108.7,177.8z M80.4,151.9C80.3,151.9,80.3,151.9,80.4,151.9l-2.6,3.4c0,0,0,0,0,0.1c0,0,0,0,0,0c0,0,6.8,1.4,7.9,4.3
	c0.3,0.8,0.1,1.7-0.6,2.5v0c0,0,0,0,0,0c3.6,1.4,10.6,4.3,11.4,5.8c1.1,2.1,12,9.4,12.1,9.5h0.1l13.3-7.8c0,0,0,0,0-0.1s0,0,0,0
	l-35.4-20.8h-0.1c-0.3,0.1-2.8,1.1-4.6,1c0,0,0,0-0.1,0L81,151v0c0,0,0,0,0,0c1.3,0.7,3.8,1.9,4.8,2.8c0,0,0,0.1,0,0.1
	c0,0-0.1,0.1-0.1,0C84.4,153.7,81.9,153,80.4,151.9L80.4,151.9L80.4,151.9z"/>
<path class="st20" d="M107.9,172.6c0,0-0.1,0-0.1,0l-10-5.4l-9.7-6.7c-0.1-0.1-0.2-0.2-0.1-0.4c0-0.1,0.2-0.2,0.3-0.2c0,0,0,0,0.1,0
	h0c0.4,0.2,1.8,1,9.8,5.5l9.8,6.5c0.1,0.1,0.2,0.3,0.1,0.4C108.1,172.6,108,172.6,107.9,172.6L107.9,172.6z M88.3,160.2
	C88.2,160.2,88.2,160.3,88.3,160.2c-0.1,0.1-0.1,0.1,0,0.1l9.6,6.7l10,5.4c0,0,0.1,0,0.1,0v-0.1l-9.8-6.5
	C90.1,161.2,88.7,160.4,88.3,160.2L88.3,160.2C88.3,160.2,88.3,160.2,88.3,160.2L88.3,160.2z M109.4,165.2L109.4,165.2l-10.3-6.4
	c0,0-0.1-0.1,0-0.1c0,0,0.1-0.1,0.1,0l10.3,6.4C109.5,165.1,109.6,165.2,109.4,165.2C109.5,165.2,109.5,165.2,109.4,165.2
	L109.4,165.2z M85.9,179.7L85.9,179.7l-10.3-6.4c0,0-0.1-0.1,0-0.1c0,0,0.1-0.1,0.1,0l10.3,6.4C86,179.5,86.1,179.6,85.9,179.7
	C86,179.7,86,179.7,85.9,179.7z M128.8,208.9L128.8,208.9l-27-15.6c0,0-0.1-0.1,0-0.1c0,0,0.8-1.6,0.3-2.7c-0.5-1.2-1.4-2.1-1.4-2.1
	c0,0,0,0,0-0.1s0,0,0-0.1l2.1-1.3h0.1l12.7,6.3l-6.7-8.7c0,0,0-0.1,0-0.1c0,0,0,0,0.1-0.1l7-1.3c0,0,0.1,0,0.1,0
	c0,0.1,5.7,6.9,10,6.4c1.4-0.2,2.5-1.1,3.4-2.7c0,0,0,0,0.1,0h0.1l13.4,9.8c0,0,0,0.1,0,0.1s-0.1,0-0.1,0l-13.3-9.8
	c-0.9,1.7-2,2.5-3.5,2.7c-4.3,0.5-9.6-5.8-10.2-6.4l-6.7,1.2l6.8,8.9c0,0,0,0.1,0,0.1c0,0-0.1,0-0.1,0l-13-6.5l-2,1.2
	c0.3,0.3,1,1.1,1.4,2.1c0.4,1.1-0.1,2.5-0.3,2.8l26.9,15.5c0,0,0.1,0.1,0,0.1C128.8,208.9,128.8,208.9,128.8,208.9L128.8,208.9z
	 M168.3,196.1L168.3,196.1l-33.9-19.6c-0.9,0.2-1.8,0.4-2.7,0.6c2.3,1.6,3.8,3.4,4.7,4.7l16.7,9.4c0,0,0.1,0.1,0,0.1
	c0,0-0.1,0.1-0.1,0l-16.7-9.4c0,0,0,0,0,0c-0.9-1.3-2.4-3.2-4.9-4.8c0,0,0-0.1,0-0.1c0,0,0-0.1,0.1-0.1c1-0.2,2.1-0.4,3-0.7h0.1
	l33.8,19.6c0,0,0.1,0.1,0,0.1C168.4,196.1,168.4,196.1,168.3,196.1L168.3,196.1z"/>
<path class="st20" d="M169.8,201.6L169.8,201.6c-5.1-2.7-31.1-13.7-36.7-16c0,0,0,0,0,0c0,0-2.8-5.6-9.6-6.8c0,0-0.1,0-0.1-0.1
	s0-0.1,0-0.1c0,0,3.3-1.9,4.9-6c0,0,0-0.1,0.1-0.1s3.3,0,6.5-1.3h0.1l26.6,15.4c0,0,0.1,0.1,0,0.1s-0.1,0.1-0.1,0L135,171.5
	c-3,1.1-6,1.3-6.5,1.3c-1.4,3.4-3.9,5.3-4.7,5.8c6.4,1.3,9.2,6.3,9.5,6.8c5.6,2.3,31.6,13.3,36.6,16
	C169.9,201.5,170,201.5,169.8,201.6C169.9,201.6,169.9,201.6,169.8,201.6L169.8,201.6z M180.8,177.4L180.8,177.4l-35.6-20.1
	c0,0,0,0,0-0.1s0-0.1,0-0.1c0,0,2-1.3,1.3-2.7v-0.1c0,0,0,0,0.1,0l2-0.5h0.1l6,3.3l-4.2-3.8c0,0,0-0.1,0-0.1c0,0,0-0.1,0.1-0.1
	l5.7-1.3c0,0,0.1,0,0.1,0c0,0,4.6,6.5,11.3,4.2h0.1l8,5.9c0.6,0.1,11.7,2.1,16.4,8.1c0,0,0,0.1,0,0.2s-0.1,0-0.2,0
	c-4.7-6.2-16.1-8.1-16.2-8.1h0l-7.9-5.9c-6.5,2.1-11-3.6-11.5-4.3l-5.5,1.2l4.7,4.3c0,0,0,0.1,0,0.1c0,0-0.1,0-0.1,0l-6.7-3.8
	l-1.9,0.5c0.6,1.3-0.8,2.4-1.2,2.8L180.8,177.4c0.1,0,0.2,0,0.1,0C180.9,177.3,180.8,177.4,180.8,177.4L180.8,177.4z M165.2,183.2
	L145.7,172l0.2-0.1c0,0,2.7-1.5,2.8-3.5c0-1-0.6-1.9-1.9-2.8l-0.1-0.1l1.3-0.9l0,0l24.1,14.4l-0.1,0.2l-24-14.3l-0.9,0.6
	c1.3,0.9,1.9,1.8,1.8,2.8c0,1.8-2.1,3.2-2.7,3.5l19.2,11L165.2,183.2L165.2,183.2z"/>
<g>
	<path class="st20" d="M171.5,198.4v3.6c0,0,0,0.1-0.1,0.2c-0.1,0.1-0.4,0.1-0.6,0c-0.1,0-0.1-0.1-0.1-0.2v-3.6c0,0,0,0.1,0.1,0.2
		c0.2,0.1,0.4,0.1,0.6,0C171.4,198.6,171.5,198.5,171.5,198.4z"/>
</g>
<g>
	<path class="st26" d="M173.5,192.3v5.7l-2.5,1.4v-5.7L173.5,192.3z"/>
	<path class="st28" d="M171.1,193.7v5.7l-2.5-1.4l0-5.7L171.1,193.7z"/>
</g>
<g>
	<path class="st24" d="M174.5,190.3v4.7l-3.4,2v-4.6L174.5,190.3z"/>
	<path class="st25" d="M171.1,192.4v4.6l-3.5-2v-4.7L171.1,192.4z"/>
	<path class="st40" d="M174.5,190.3l-3.4,2l-3.5-2l3.5-2L174.5,190.3z"/>
</g>
<g>
	<path class="st41" d="M225.4,167.5v4.2l-5,2.9l-5.9-3.5l0-12l3.2-1.9l3.6,2.1l1.8-1v5.1L225.4,167.5z"/>
</g>
<g>
	<path class="st11" d="M218.1,166.4l5-2.9l2.3,4l-5,2.9L218.1,166.4z"/>
	<path class="st34" d="M220.4,170.5l5-2.9v4.2l-5,2.9V170.5z M218.1,161.3l5-2.9v5.1l-5,2.9L218.1,161.3z"/>
	<path class="st11" d="M214.5,159.2l3.2-1.9l3.6,2.1l-3.2,1.9L214.5,159.2z"/>
	<path class="st41" d="M218.1,161.3l0,5.1l2.3,4v4.2l-5.9-3.5l0-12L218.1,161.3z"/>
</g>
<path class="st41" d="M133.6,220v5.4l-5,2.9l-5.9-3.4l0-12.1l3.2-1.9l3.6,2.1l1.8-1v5.1L133.6,220z"/>
<g>
	<path class="st11" d="M126.2,220.1l5-2.9l2.3,2.8l-5,2.9L126.2,220.1z"/>
	<path class="st34" d="M128.5,222.9l5-2.9v5.4l-5,2.9V222.9z"/>
	<path class="st11" d="M122.7,212.8l3.2-1.9l3.6,2.1l-3.2,1.9L122.7,212.8z"/>
	<path class="st41" d="M126.3,215l0,5.1l2.3,2.8v5.4l-5.9-3.4l0-12.1L126.3,215z"/>
</g>
<path class="st34" d="M126.3,215l5-2.9v5.1l-5,2.9L126.3,215z"/>
<g>
	<path class="st41" d="M223.1,156.2v2.2L126.3,215l-3.6-2.1v-2.1l96.9-56.6l0.9,0.5v1l0.9,0.5l0.9-0.5L223.1,156.2z"/>
</g>
<g>
	<path class="st34" d="M123.6,211.2l96.9-56.6v1l-96.9,56.6V211.2z"/>
	<path class="st11" d="M122.7,210.7l96.9-56.6l0.9,0.5l-96.9,56.6L122.7,210.7z"/>
	<path class="st42" d="M123.6,212.2l96.9-56.6l1.8,1l-96.9,56.6L123.6,212.2z"/>
	<path class="st34" d="M223.1,156.2v2.2L126.3,215v-2.2L223.1,156.2z"/>
	<path class="st11" d="M125.3,212.2l96.9-56.6l0.9,0.5l-96.9,56.6L125.3,212.2z"/>
	<path class="st41" d="M126.3,212.8v2.2l-3.6-2.1v-2.1l0.9,0.5v1l1.8,1v-1L126.3,212.8z"/>
</g>
<g>
	<path class="st27" d="M168.9,185.2l7.1-4.2l0,9.7l-7.1,4.2L168.9,185.2z"/>
	<path class="st26" d="M163.2,181.9l7.1-4.2l5.6,3.2l-7.1,4.2L163.2,181.9z"/>
	<path class="st28" d="M168.9,185.2l0,9.7l-2-1.2v-4.6l-3.6-2.1v-5.1L168.9,185.2z"/>
</g>
<path class="st28" d="M165.9,188.5l-0.9,0.5l-0.8-0.5v-1L165.9,188.5z"/>
<g>
	<path class="st24" d="M165.2,186.9l-23.9,13.8c-0.3,0.1-0.5,0.2-0.7,0.1l1.1,0.7c0.2,0.1,0.4,0.1,0.7-0.1l23.9-13.8L165.2,186.9z"
		/>
	<path class="st24" d="M165.2,184l-23.9,13.8c-0.4,0.3-0.8,0.7-1.1,1.2c-0.3,0.5-0.5,1.1-0.5,1.6c0,0.5,0.2,0.9,0.5,1l1.1,0.7
		c-0.3-0.2-0.5-0.5-0.5-1c0-0.5,0.2-1.1,0.5-1.6c0.3-0.5,0.7-1,1.1-1.2l23.9-13.8L165.2,184z"/>
	<path class="st18" d="M166.3,184.6v0.7l-23.9,13.8c-0.3,0.1-0.5,0.4-0.7,0.7c-0.2,0.3-0.3,0.7-0.3,0.9c0,0.6,0.4,0.8,1,0.5
		l23.9-13.8v0.7l-23.9,13.8c-0.9,0.5-1.6,0.1-1.6-0.9c0-0.5,0.2-1.1,0.5-1.6c0.3-0.5,0.7-1,1.1-1.2L166.3,184.6L166.3,184.6z"/>
</g>
<g>
	<path class="st35" d="M173.5,186.3c-0.3-0.2-0.7-0.1-1.1,0.1c-0.8,0.5-1.5,1.6-1.5,2.6c0,0.5,0.2,0.8,0.4,1l0.9,0.5
		c-0.3-0.2-0.4-0.5-0.4-1c0-1,0.7-2.1,1.5-2.6c0.4-0.3,0.8-0.3,1.1-0.1L173.5,186.3z"/>
	<path class="st21" d="M173.4,186.9c0.8-0.5,1.5-0.1,1.5,0.9c0,1-0.7,2.1-1.5,2.6c-0.8,0.5-1.5,0.1-1.5-0.8
		C171.9,188.5,172.5,187.4,173.4,186.9z"/>
</g>
<path class="st20" d="M136.5,156.2L136.5,156.2l-24.2-14.6c0,0,0,0,0-0.1s0-0.1,0-0.1c1.2-0.7,1.5-1.8,1-3.4
	c-0.5-1.4-0.7-2.9,0.4-4.4c1.2-1.4,3.9-1.8,7.8-1.1c4.2,0.8,6.3-0.4,6.4-0.4h0.1l25,14.7c0,0,0,0,0,0.1v0.1
	c-2.4,3.1-10.2,6-12.3,6.5C138.4,154.1,136.6,156.2,136.5,156.2C136.5,156.2,136.5,156.2,136.5,156.2L136.5,156.2z M112.5,141.5
	l23.9,14.5c0.4-0.4,2.1-2.2,4.2-2.7c2.6-0.6,9.8-3.5,12.1-6.3l-24.8-14.5c-0.4,0.2-2.5,1.1-6.5,0.4c-3.9-0.7-6.5-0.4-7.6,1.1
	c-1.1,1.4-0.8,2.8-0.4,4.2C114,139.6,113.6,140.8,112.5,141.5L112.5,141.5z"/>
<path class="st18" d="M173.1,251.3C173.1,251.3,173,251.3,173.1,251.3c-0.1,0.2-0.2,0.3-0.4,0.4c-0.6,0.4-1.6,0.4-2.2,0
	c-0.1-0.1-0.3-0.2-0.4-0.3c0,0,0,0,0-0.1c-0.1-0.2-0.1-0.4,0-0.6c0,0,0.1-0.1,0.2-0.2c0,0,0.1,0,0.1-0.1c0.1,0,0.2-0.1,0.4-0.1
	c0.5-0.2,1.1-0.2,1.5,0c0.1,0,0.2,0.1,0.3,0.1c0,0,0.1,0,0.1,0.1c0.1,0,0.1,0.1,0.2,0.2C173.2,250.9,173.2,251.1,173.1,251.3
	L173.1,251.3z"/>
<g>
	<path class="st36" d="M173,250.6v0.8c-0.5,0.7-2.4,0.7-2.8,0v-0.8H173z"/>
	<path class="st17" d="M172.6,249.9c0.6,0.3,0.6,0.8,0,1.2c-0.6,0.3-1.4,0.3-2,0s-0.6-0.8,0-1.2C171.1,249.6,172,249.6,172.6,249.9z
		"/>
</g>
<g>
	<path class="st35" d="M172.8,249.5v1c0,0.2-0.1,0.4-0.4,0.5c-0.5,0.3-1.3,0.3-1.8,0c-0.3-0.1-0.4-0.3-0.4-0.5v-1H172.8L172.8,249.5
		z"/>
	<path class="st21" d="M172.5,248.9c0.5,0.3,0.5,0.7,0,1c-0.5,0.3-1.3,0.3-1.8,0c-0.5-0.3-0.5-0.7,0-1
		C171.2,248.7,172,248.7,172.5,248.9z"/>
</g>
<path class="st18" d="M265.4,197.3C265.4,197.3,265.4,197.3,265.4,197.3c-0.1,0.2-0.2,0.3-0.4,0.4c-0.6,0.4-1.6,0.4-2.2,0
	c-0.1-0.1-0.3-0.2-0.4-0.3c0,0,0,0,0-0.1c-0.1-0.2-0.1-0.4,0-0.6c0,0,0.1-0.1,0.2-0.2c0,0,0.1,0,0.1-0.1c0.1,0,0.2-0.1,0.4-0.1
	c0.5-0.2,1.1-0.2,1.5,0c0.1,0,0.2,0.1,0.3,0.1c0,0,0.1,0,0.1,0.1c0.1,0,0.1,0.1,0.2,0.2C265.5,196.9,265.6,197.1,265.4,197.3
	L265.4,197.3z"/>
<g>
	<path class="st36" d="M265.4,196.5v0.8c-0.1,0.1-0.2,0.2-0.4,0.3c-0.6,0.4-1.6,0.4-2.2,0c-0.2-0.1-0.3-0.2-0.4-0.3v-0.8H265.4z"/>
	<path class="st17" d="M265,195.9c0.6,0.3,0.6,0.8,0,1.2c-0.6,0.3-1.4,0.3-2,0s-0.6-0.8,0-1.2C263.5,195.6,264.4,195.6,265,195.9z"
		/>
</g>
<g>
	<path class="st35" d="M265.2,195.4v1c0,0.2-0.1,0.4-0.4,0.5c-0.5,0.3-1.3,0.3-1.8,0c-0.3-0.1-0.4-0.3-0.4-0.5v-1H265.2z"/>
	<path class="st21" d="M264.8,194.9c0.5,0.3,0.5,0.7,0,1s-1.3,0.3-1.8,0c-0.5-0.3-0.5-0.7,0-1C263.6,194.6,264.3,194.6,264.8,194.9z
		"/>
</g>
<path class="st14" d="M55.2,177.6c-3.1,2.1-2.8,4.1-1.5,4.6c1.3,0.5,2.2,0.2,3.5-0.3c1.2-0.4,2.4-0.4,2.6-0.8c0.2-0.4,0.2-1-1-0.7
	c-0.1,0-0.1,0,0-0.1c0.9-0.7,3.3-1.7,2.8-2.5c-0.4-0.7-3.1,1.3-3,1.3C58.6,179.1,57.8,176.3,55.2,177.6L55.2,177.6z"/>
<path class="st22" d="M51.2,179.7c0.6-0.2,2.1-0.8,2.4-0.9c1.1-0.5,3.1,3.5,2,4c-1.1,0.8-3.5,2-5.2,2.8
	C50.7,183.7,50.9,181.7,51.2,179.7z"/>
<path class="st43" d="M30.3,187.7c-1.2,1.4-1.1,3.6,0.4,4.6c0.5,0.4,1.1,0.5,1.6,0.4c7.5-1.5,17.5-5.6,22.9-9.5
	c0.9-0.4-1.4-4.7-2.2-4.2c-4.6,1.6-11.8,4.1-17.8,6.1C32.7,185.7,31.3,186.7,30.3,187.7z"/>
<path class="st24" d="M21,272.4c0.9,0.8,3.2,0.3,3.8-0.7c0.6-1,4-0.6,6.1-3.1c2.2-2.5,0.4-4-0.6-3.4c-1,0.7-3.2,0.8-3.2,0.8
	s-4.4,0.4-5.9,1.8C19.9,269.3,20.2,271.6,21,272.4L21,272.4z"/>
<path class="st44" d="M23.7,221.6v19.9c-2.8,8.1-3.9,17.2-3,27.3c2.5,0.1,4.5-0.7,6.2-2.7c1.3-8.6,3.9-16.2,6.2-22.9
	c1.6-6.7,1.7-13.2,1.9-18.4l-9.6-4.3C25.4,220.5,23.7,221.6,23.7,221.6z"/>
<path class="st24" d="M33.5,279.6c1.2,0.4,4-0.6,4-0.6c2.5,0.4,8.2-1.2,9.2-2.8c0.9-1.7-0.5-3.2-2.2-2.6c-1.5,0.5-3.9,0-4.4-0.2H40
	c0,0-5.5,0-7.3,1.8C30.8,277,31.8,279.1,33.5,279.6L33.5,279.6z"/>
<path class="st15" d="M45.3,227.2c0,0-4.1,19.1-4.6,26.4c-0.5,7.2-0.8,19.8-0.8,19.8c-3.2,1.9-4.6,1.6-7.4,2.1
	c-0.7-9.8-1.7-18.3-0.7-24.7c1-8.1,0.9-16.5-0.7-24.7l1.9-6.3C32.9,219.8,45.3,227.2,45.3,227.2z"/>
<path class="st43" d="M25.2,195.7l5.6-6l-7.1-4.6C23.7,185,20.3,193.5,25.2,195.7z"/>
<path class="st45" d="M43.9,188.5L30,181.2c0,0-4.7-2-6.3,3.7c-1.6,5.7,2,18.4,0.9,25.4c-1.1,6.9-2.7,12,0,15.8s15.8,5.2,19.3,4.6
	c3.5-0.5,0.8-10.9,0.4-17.3C43.9,206.9,49.5,191.1,43.9,188.5L43.9,188.5z"/>
<path class="st20" d="M31,184.2c2.1,4.1,9.4,2.5,9.4,2.5c-0.6-0.5-1.2-1.3-1.5-2.1c-4.8,1.1-6.9-2.2-7.1-2.6l0.1-0.2l-1.2-0.2l0,0.4
	C30.5,182.7,30.6,183.5,31,184.2z"/>
<path class="st13" d="M28.3,176.3H34V167h4.8v-1.2c0.2,0.1,0.4,0.2,0.7,0.3c1.1,0.6,2.5,1.1,3.5,1.2c0,0,0.3,2.3-0.8,3
	c0,0.1,1,3.1,0.2,4c0,0-0.7,0.6,0,2c0.7,1.4,0.7,5.8-2.8,6.2c0,0-1.2,1.4-0.8,3.2c0,0-5.6,0.6-7.4-3.4l0.5-0.5
	C32,181.8,29.6,179.2,28.3,176.3L28.3,176.3z"/>
<path class="st14" d="M31.3,182.1c1.6,4.2,7.6,3.7,7.6,3.7c-0.4-1.9,0.8-3.2,0.8-3.2s-4.9,1-7.8-0.7L31.3,182.1z"/>
<path class="st46" d="M30.7,181.3c0.5,0.7,1.2,1.3,2.1,1.7c4.9,2.2,4.1-2.4,4-3.6c-0.1-1.4,0.8-1.9,1.7-1.6c0.9,0.3,1.1,1.3,1.1,1.3
	c2.3,1.2,1.3-7.1,1.3-7.1h0c1.1-0.3,2-1.3,2.1-1.4c1.1-0.7,0.8-3.2,0.8-3.2c-1.1-0.1-2.5-0.7-3.7-1.3c-2.2-1.1-4.8-1.4-7.2-0.6
	c-4.9,1.7-4.5,6-4.5,6C26.2,174.4,29.1,179.1,30.7,181.3z"/>
<path class="st47" d="M29.5,171.8c2.4,0.5,8,1.4,11.3,0.7l0-0.6C40.7,171.9,32.9,172.2,29.5,171.8L29.5,171.8z"/>
<path class="st25" d="M39.1,226.9v13.4l16.5-5.8V221L39.1,226.9z"/>
<path class="st29" d="M55,234.1v-12.3l-15.3,5.5v12.1L55,234.1z"/>
<path class="st13" d="M44.7,222.2c0.8,1.3,1.1,2.4,0.9,4c0.9,0.5,3.1,0.2,3.5-1.9c0.1-0.7,0-1.7,0-2.6L44.7,222.2z"/>
<path class="st20" d="M48.2,217l1.1,6c0.1,0.5-4,1.4-4.1,0.9l-2.5-6.9L48.2,217L48.2,217z"/>
<path class="st43" d="M38.9,206.8c1,4.3,6,16.6,6,16.6c0.1,0.5,4.4-0.5,4.3-1l-3.1-16.9c3.4-17.3-2.6-16.9-2.6-16.9
	C37.3,188.5,37.9,202.2,38.9,206.8L38.9,206.8z"/>
<path class="st13" d="M286.6,192.6l0,1.1c-1,2.4-3.3,3.8-6.6,4.5l-0.2-1.1c-4.4,1.4-6.6-5-6.4-5.9c0.2-0.9-0.4-1.2-0.4-1.2
	c-2.2-1.4-2-5.2-2-5.2l9-0.6L286.6,192.6L286.6,192.6z"/>
<path class="st14" d="M286.6,192.6l0.2,1.6c-1,2.4-3.3,4.6-6.6,5.3l-0.2-2.1C280.1,197.5,284.2,195.9,286.6,192.6z"/>
<path class="st24" d="M287.1,185.7c-0.3,3.5-0.5,6.8-0.5,6.8s-0.6,1.4-2.6,1.4c-2.1,0-4.5-1.1-4.9-2.6c-0.4-1.4-0.6-2.1-1.4-2.3
	c-0.8-0.2-1.4,0.7-1.2,1.4l-0.8,0.2c0,0,0.1-4.8-3.6-5.2c-4-0.4-3.1-3.5-1.5-3.9c0,0,1.9-0.4,3.3-1.2c1.4-0.8,4.6-3.1,8.7-2.2
	C286.4,179,287.4,182.2,287.1,185.7L287.1,185.7z"/>
<path class="st29" d="M280.6,281.8c0,0-2.1-1.1-3-1.4c-2.8-1.1-3.2,2.6-1.6,4.9c1.7,2.3,6,3.5,7.1,4.4c1.7,1.3,4.9,1.4,5.3,0.2
	c0.4-1.2-0.2-4.1-0.2-4.1L280.6,281.8z M266.7,286.5c0,0-4.4-0.6-5.5-0.7c-2.6-0.2-4.4,1.4-3.5,3.6c1,2.2,9,3.6,10.2,3.8
	c1.2,0.2,6.8,1.2,7.1-0.4c0.3-1.7-0.4-4.5-0.4-4.5l-3-3.4L266.7,286.5z"/>
<path class="st18" d="M289.1,258.7l-0.9,27.3c0,1-3.1,0.5-5.3-0.5c-1.3-0.6-2.2-1.3-2.3-2.1c0,0-0.5-21.9-2.7-29.3
	c-2.2-7.4,2.5-28.1,2.5-28.1l6.8,1.3l4.1,0.8C291.5,228.1,294.6,238,289.1,258.7L289.1,258.7z"/>
<path class="st48" d="M289.1,258.7l-0.9,27.3c0,1-3.1,0.5-5.3-0.5c0.4-0.6,0.6-1.4,0.7-2.1c0.4-1.4,0.8-2.9,1-4.4
	c0.3-1.9,0.3-3.8,0.3-5.6c0-15.1,0.8-30.2,2.3-45.2c0-0.3,0-0.6,0.1-0.8l4.1,0.8C291.5,228.1,294.6,238,289.1,258.7L289.1,258.7z"/>
<path class="st18" d="M276.1,264.5c0.8,8.5-1.5,23.8-1.5,23.8c-0.3,1.1-3.8,0.7-6-0.2c-1.2-0.5-2-1.1-1.8-1.7
	c0.2-13.2-0.6-19.2-1.4-25.9c-0.8-6.7,3.6-28.9,3.6-28.9s4.5-3.8,8.8-5.1c3.4-1.1,6.6-0.6,7.5,4.2
	C287.2,241.8,275.2,256,276.1,264.5L276.1,264.5z"/>
<path class="st48" d="M276.1,264.5c0.8,8.5-1.5,23.8-1.5,23.8c-0.3,1.1-3.8,0.7-6-0.2c0.4-0.4,0.7-0.9,1-1.4
	c0.9-1.8,1.2-3.8,1.4-5.8c0.9-10.2,0.4-20.4,1.1-30.5c0.6-8.2,2.1-16.5,5.7-23.8c3.4-1.1,6.6-0.6,7.5,4.2
	C287.2,241.8,275.2,256,276.1,264.5L276.1,264.5z"/>
<path class="st14" d="M262.1,215.2c0,0-0.4-2.6-1.6-3.1c-1.2-0.5-1.7-1.3-2.1-1.8c-0.4-0.4-1.2,0-0.8,0.7c0.4,0.6,2.1,2.2,1.8,2.4
	s-2.9-0.9-4.5-2.8c-1.6-2-1.1,6.6,5.4,8.1l1.7-0.6l0.3-2.8 M274.1,198.2c0,0-2.6-3.2-3.5-3.5c-0.9-0.3-3.3,0.4-3.7,0.7
	c-0.4,0.4-2.2-0.4-2.7-0.2c-0.4,0.3-1.1,1.1,2.2,1.3c0,0,1.9,1.2,2.1,2.1c0.1,0.9-1.7-0.8-2.2-0.4c-0.5,0.4,0,0.6,0.4,1
	c0.4,0.4,2.7,1.6,3.9,1.5s1.5,0.3,1.5,0.3L274.1,198.2L274.1,198.2z"/>
<path class="st35" d="M273.9,197.8l3.5,2.8l-3.7,2.6l-2.5-2C270.8,200.8,273.4,197.4,273.9,197.8L273.9,197.8z M292.9,217.1
	c-7,0,4.8-15.8,4.8-15.8S298.3,217.1,292.9,217.1z"/>
<path class="st21" d="M293.5,215c-1.8,4.6-0.8,18.6-0.6,21.3c0.3,3.4-10.7,6.3-18.3,5.8c-4.1-0.3-7.2-1.4-7-4.1
	c0.1-1.2,0.7-9.6,1.3-17.6c0.6-6.9,1.2-13.4,1.7-14.8c1.1-3,13-8.8,18.1-9.7c3.9-0.7,6.7,1.4,7.7,2.3c0.3,0.3,0.5,0.6,0.7,0.9
	C299.5,203.4,295.2,210.7,293.5,215L293.5,215z"/>
<path class="st35" d="M274.1,229.5c-0.6,3.2,1,6.5,0.9,9.9c0,1-0.2,1.9-0.5,2.8c-4.1-0.3-7.2-1.4-7-4.1c0.1-1.2,0.7-9.6,1.3-17.6
	c1.8-0.9,3.5-1.9,4.5-3.6c0.7-1.1,1-2.6,2-3.5c0.9-0.9,2.2-3.1,2.5-1.9c0.7,2.9-0.3,9.7-1.4,12.4
	C275.7,225.8,274.5,227.6,274.1,229.5L274.1,229.5z"/>
<path class="st12" d="M273.4,203.3c-0.7,0.2-1.4,0.5-1.9,1c-0.9,1-2,2.3-2,5.3c0,3.2,0.3,9,0.3,9l-7.9-4.2c-0.7-0.4-3.1,3.9-2.5,4.3
	c0,0,10.6,9.4,14.9,7.8c3-1.1,3.7-11,3.7-11S278.7,202.1,273.4,203.3L273.4,203.3z M288.7,195.9l-11.3,4.5l0-0.1
	c0.6-2.1,2.2-3.9,4.2-4.8c1.8-0.8,3.7-1.5,5.2-1.9C287.8,194.4,288.2,194.9,288.7,195.9L288.7,195.9z"/>
<linearGradient id="SVGID_00000134227990552321861710000017413032975687992501_" gradientUnits="userSpaceOnUse" x1="633.3666" y1="-672.432" x2="647.6668" y2="-672.432" gradientTransform="matrix(0.4379 0 8.758069e-06 -0.4379 -213.2672 -36.0027)">
	<stop  offset="0" style="stop-color:#EFF4F6"/>
	<stop  offset="1" style="stop-color:#B6D3E1;stop-opacity:0"/>
</linearGradient>
<path style="fill:url(#SVGID_00000134227990552321861710000017413032975687992501_);" d="M70.8,256.6v3.8l-6.3,0v-3.8H70.8z"/>
<g>
	<path class="st10" d="M67.9,255.1v3.3c0,0.2-0.1,0.3-0.3,0.4l-2.2,1.3c-0.4,0.2-1.1,0.2-1.5,0l-2.2-1.3c-0.2-0.1-0.3-0.3-0.3-0.4
		v-3.3L67.9,255.1z"/>
	<path class="st11" d="M67.6,254.7c0.4,0.2,0.4,0.6,0,0.9l-2.2,1.3c-0.4,0.3-1.1,0.3-1.5,0l-2.2-1.3c-0.4-0.2-0.4-0.6,0-0.9l2.2-1.3
		c0.4-0.3,1.1-0.3,1.5,0L67.6,254.7z"/>
</g>
<linearGradient id="SVGID_00000160186751614189116000000012048609586353661357_" gradientUnits="userSpaceOnUse" x1="776.7327" y1="-741.9321" x2="786.0327" y2="-741.9321" gradientTransform="matrix(0.4379 0 8.758069e-06 -0.4379 -213.2672 -36.0027)">
	<stop  offset="0" style="stop-color:#EFF4F6"/>
	<stop  offset="1" style="stop-color:#B6D3E1;stop-opacity:0"/>
</linearGradient>
<path style="fill:url(#SVGID_00000160186751614189116000000012048609586353661357_);" d="M131.5,287.6v2.5h-4.1v-2.5L131.5,287.6z"
	/>
<g>
	<path class="st10" d="M129.6,286.7v2.1c0,0.1-0.1,0.2-0.2,0.3l-1.4,0.8c-0.3,0.2-0.7,0.2-1,0l-1.4-0.8c-0.1-0.1-0.2-0.2-0.2-0.3
		v-2.1L129.6,286.7L129.6,286.7z"/>
	<path class="st11" d="M129.4,286.5c0.3,0.2,0.3,0.4,0,0.6l-1.4,0.8c-0.3,0.2-0.7,0.2-1,0l-1.4-0.8c-0.3-0.2-0.3-0.4,0-0.6l1.4-0.8
		c0.3-0.2,0.7-0.2,1,0L129.4,286.5z"/>
</g>
<linearGradient id="SVGID_00000062879590809123158310000005162102628010365859_" gradientUnits="userSpaceOnUse" x1="994.9407" y1="-740.4321" x2="1007.3408" y2="-740.4321" gradientTransform="matrix(0.4379 0 8.758069e-06 -0.4379 -213.2672 -36.0027)">
	<stop  offset="0" style="stop-color:#EFF4F6"/>
	<stop  offset="1" style="stop-color:#B6D3E1;stop-opacity:0"/>
</linearGradient>
<path style="fill:url(#SVGID_00000062879590809123158310000005162102628010365859_);" d="M228.4,286.6v3.3H223v-3.3H228.4z"/>
<g>
	<path class="st10" d="M225.8,285.4v2.9c0,0.1-0.1,0.3-0.3,0.4l-1.9,1.1c-0.4,0.2-0.9,0.2-1.3,0l-1.9-1.1c-0.2-0.1-0.3-0.2-0.3-0.4
		v-2.9L225.8,285.4z"/>
	<path class="st11" d="M225.6,285c0.4,0.2,0.4,0.5,0,0.7l-1.9,1.1c-0.4,0.2-0.9,0.2-1.3,0l-1.9-1.1c-0.4-0.2-0.4-0.5,0-0.7l1.9-1.1
		c0.4-0.2,0.9-0.2,1.3,0L225.6,285z"/>
</g>
<linearGradient id="SVGID_00000177451186006803421240000009295975511972726705_" gradientUnits="userSpaceOnUse" x1="805.4916" y1="-321.0821" x2="816.7136" y2="-321.0821" gradientTransform="matrix(0.4379 0 8.758069e-06 -0.4379 -213.2672 -36.0027)">
	<stop  offset="0" style="stop-color:#EFF4F6"/>
	<stop  offset="1" style="stop-color:#B6D3E1;stop-opacity:0"/>
</linearGradient>
<path style="fill:url(#SVGID_00000177451186006803421240000009295975511972726705_);" d="M144.6,103.1l0,3h-4.9v-3H144.6z"/>
<g>
	<path class="st10" d="M142.3,102v2.6c0,0.1-0.1,0.3-0.3,0.4l-1.7,1c-0.3,0.2-0.8,0.2-1.2,0l-1.8-1c-0.2-0.1-0.3-0.2-0.3-0.4V102
		H142.3L142.3,102z"/>
	<path class="st11" d="M142,101.7c0.3,0.2,0.4,0.5,0,0.7l-1.8,1c-0.3,0.2-0.8,0.2-1.2,0l-1.8-1c-0.3-0.2-0.4-0.5,0-0.7l1.8-1
		c0.3-0.2,0.8-0.2,1.2,0L142,101.7z"/>
</g>
<linearGradient id="SVGID_00000010283067886950262090000011390695392907436955_" gradientUnits="userSpaceOnUse" x1="1063.6736" y1="-654.332" x2="1072.9738" y2="-654.332" gradientTransform="matrix(0.4379 0 8.758069e-06 -0.4379 -213.2672 -36.0027)">
	<stop  offset="0" style="stop-color:#EFF4F6"/>
	<stop  offset="1" style="stop-color:#B6D3E1;stop-opacity:0"/>
</linearGradient>
<path style="fill:url(#SVGID_00000010283067886950262090000011390695392907436955_);" d="M257.1,249.3v2.5l-4.1,0v-2.5L257.1,249.3z
	"/>
<g>
	<path class="st10" d="M255.2,248.4v2.1c0,0.1-0.1,0.2-0.2,0.3l-1.4,0.8c-0.3,0.2-0.7,0.2-1,0l-1.4-0.8c-0.1-0.1-0.2-0.2-0.2-0.3
		v-2.1H255.2z"/>
	<path class="st11" d="M255,248.1c0.3,0.2,0.3,0.4,0,0.6l-1.4,0.8c-0.3,0.2-0.7,0.2-1,0l-1.4-0.8c-0.3-0.2-0.3-0.4,0-0.6l1.4-0.8
		c0.3-0.2,0.7-0.2,1,0L255,248.1z"/>
</g>
</svg>
