<svg xmlns="http://www.w3.org/2000/svg" viewBox="0 0 2700 2500"><g data-name="Layer 1"><path fill="#f3bb72" d="M1992.1 498.87c-4.36-.15-8.72-.2-13-.59a3.3 3.3 0 0 1 .59-6.57 137.935 137.935 0 0 0 25.14-.03 3.3 3.3 0 0 1 .6 6.58c-4.43.4-8.89.61-13.33.61Zm-38-5.24a3.11 3.11 0 0 1-.9-.13 143 143 0 0 1-24.59-9.49 3.3 3.3 0 0 1 2.94-5.92 136.13 136.13 0 0 0 23.45 9.06 3.3 3.3 0 0 1-.9 6.48Zm76.34-.08a3.3 3.3 0 0 1-.91-6.48 135.67 135.67 0 0 0 23.42-9.1 3.3 3.3 0 0 1 2.95 5.91 143.36 143.36 0 0 1-24.56 9.54 3.11 3.11 0 0 1-.93.13Zm-122.25-22.74a3.3 3.3 0 0 1-2-.66 144.9 144.9 0 0 1-19.49-17.73 3.3 3.3 0 0 1 4.87-4.46 138.73 138.73 0 0 0 18.6 16.92 3.3 3.3 0 0 1-2 5.93Zm168.1-.17a3.3 3.3 0 0 1-2-5.93 138.63 138.63 0 0 0 18.56-16.95 3.3 3.3 0 1 1 4.88 4.45 143.62 143.62 0 0 1-19.48 17.79 3.21 3.21 0 0 1-1.99.64ZM1873.56 433a3.28 3.28 0 0 1-2.8-1.56 142 142 0 0 1-11.8-23.55 3.3 3.3 0 1 1 6.15-2.4 136.22 136.22 0 0 0 11.25 22.46 3.3 3.3 0 0 1-2.8 5.05Zm237.22-.24a3.3 3.3 0 0 1-2.8-5 136.32 136.32 0 0 0 11.21-22.49 3.3 3.3 0 1 1 6.16 2.38 143 143 0 0 1-11.76 23.59 3.28 3.28 0 0 1-2.81 1.51ZM1855 385.24a3.3 3.3 0 0 1-3.24-2.69 144.57 144.57 0 0 1-2.46-26.23 3.31 3.31 0 0 1 3.3-3.31 3.32 3.32 0 0 1 3.31 3.3 136.63 136.63 0 0 0 2.34 25 3.29 3.29 0 0 1-2.64 3.85 3.15 3.15 0 0 1-.61.08Zm274.3-.24a3.14 3.14 0 0 1-.61-.05 3.3 3.3 0 0 1-2.64-3.85 137.67 137.67 0 0 0 2.29-25v-.56a3.3 3.3 0 0 1 3.29-3.32 3.3 3.3 0 0 1 3.3 3.29v.49a144.44 144.44 0 0 1-2.4 26.23 3.3 3.3 0 0 1-3.23 2.77Zm-274.45-51a3.21 3.21 0 0 1-.6-.06 3.3 3.3 0 0 1-2.65-3.84 142.92 142.92 0 0 1 7.14-25.37 3.3 3.3 0 1 1 6.16 2.38 135.67 135.67 0 0 0-6.8 24.18 3.31 3.31 0 0 1-3.25 2.71Zm274.33-.86a3.3 3.3 0 0 1-3.24-2.69 134.89 134.89 0 0 0-7-24.14 3.3 3.3 0 0 1 6.15-2.41 142.62 142.62 0 0 1 7.3 25.32 3.31 3.31 0 0 1-2.63 3.86 3.26 3.26 0 0 1-.58.05Zm-255.93-47a3.3 3.3 0 0 1-2.8-5 142.76 142.76 0 0 1 15.84-21.05 3.3 3.3 0 1 1 4.89 4.44 135.93 135.93 0 0 0-15.11 20.08 3.32 3.32 0 0 1-2.82 1.54Zm34.46-38a3.3 3.3 0 0 1-2-5.93 142.26 142.26 0 0 1 22.35-13.94 3.3 3.3 0 1 1 3 5.9 137.13 137.13 0 0 0-21.32 13.3 3.23 3.23 0 0 1-2.03.71Zm45.8-23a3.3 3.3 0 0 1-.91-6.48 142.66 142.66 0 0 1 25.89-4.89 3.3 3.3 0 0 1 .62 6.57 135.82 135.82 0 0 0-24.69 4.67 3.18 3.18 0 0 1-.91.18Zm76.34-.24a3.35 3.35 0 0 1-.89-.12 135.14 135.14 0 0 0-24.72-4.51 3.3 3.3 0 0 1 .58-6.58 142.15 142.15 0 0 1 25.92 4.73 3.3 3.3 0 0 1-.89 6.48ZM2098.76 287.39a41.92 41.92 0 0 1-17.74-4.27c-14.11-6.64-24.85-23-26.73-40.78-1.6-15.08 3.43-28.26 13.8-36.16 7.89-6 13.73-5.13 17.24-3.33 7.51 3.85 10.68 14.6 10.45 23-.13 4.58 1.32 7.52 3.78 7.69 2.8.18 6.18-3.1 6.71-8.27.38-3.66 2.83-5.76 6.41-5.46 7.19.58 20 12.15 18.78 32.18-.84 13.92-7.05 25.3-17 31.24a30.35 30.35 0 0 1-15.7 4.16Zm-28.89-78.87c-9.53 7.26-14.14 19.48-12.65 33.51 1.77 16.77 11.84 32.21 25.05 38.42 11.15 5.25 22 5.32 30.65.21 9.14-5.43 14.83-16 15.6-28.89 1.07-17.87-10.06-28.58-16.08-29.07-2-.16-3 .77-3.24 2.84-.74 7.08-5.68 11.16-9.83 10.89-3.3-.22-6.74-3.14-6.53-10.7s-2.76-17.14-8.85-20.26c-4-2.06-8.76-1-14.12 3.05Z"/><path fill="#f3bb72" d="M2072.44 239.13c-5.26 0-9.53-4.53-9.53-10.1s4.27-10.1 9.53-10.1 9.52 4.53 9.52 10.1-4.27 10.1-9.52 10.1Zm0-17.26a7.18 7.18 0 0 0 0 14.32c3.63 0 6.58-3.21 6.58-7.16s-2.95-7.16-6.58-7.16ZM2081.64 272.51c-5.25 0-9.52-4.53-9.52-10.1s4.27-10.1 9.52-10.1 9.53 4.53 9.53 10.1-4.27 10.1-9.53 10.1Zm0-17.26c-3.63 0-6.58 3.21-6.58 7.16s3 7.16 6.58 7.16a7.18 7.18 0 0 0 0-14.32ZM2113.87 271.36c-5.25 0-9.53-4.53-9.53-10.1s4.28-10.11 9.53-10.11 9.53 4.54 9.53 10.11-4.27 10.1-9.53 10.1Zm0-17.26c-3.63 0-6.58 3.21-6.58 7.16s2.95 7.16 6.58 7.16 6.59-3.21 6.59-7.16-2.96-7.16-6.59-7.16ZM873.91 372.62c-1 5.42-1.91 10.85-3.22 16.15a4.17 4.17 0 0 1-8.1-2c1.25-5 2.28-10.24 3.07-15.41.81-5.29 1.39-10.66 1.7-16a4.17 4.17 0 1 1 8.33.5c-.33 5.58-.93 11.22-1.78 16.76Zm-13.82 46.49a4.47 4.47 0 0 1-.33 1.1 179.42 179.42 0 0 1-16.55 28.89 4.18 4.18 0 1 1-6.83-4.81 170.49 170.49 0 0 0 15.79-27.54 4.17 4.17 0 0 1 7.92 2.36Zm14.5-95.34a4.18 4.18 0 0 1-8.27-.11 171.47 171.47 0 0 0-6.88-31 4.17 4.17 0 1 1 7.94-2.55 179.84 179.84 0 0 1 7.22 32.49 4.5 4.5 0 0 1-.01 1.17Zm-51.77 148.31a4.12 4.12 0 0 1-1.21 2.35 182 182 0 0 1-25.86 20.95 4.17 4.17 0 1 1-4.63-6.93 174.18 174.18 0 0 0 24.67-20 4.17 4.17 0 0 1 7 3.62Zm31.93-210a4.17 4.17 0 0 1-7.79 1.36 173.45 173.45 0 0 0-17.61-26.42 4.17 4.17 0 0 1 6.48-5.24 181.29 181.29 0 0 1 18.47 27.69 4.1 4.1 0 0 1 .45 2.65ZM769 508.05a4.18 4.18 0 0 1-2.48 3.21 180.53 180.53 0 0 1-31.67 10.23 4.17 4.17 0 1 1-1.82-8.14 171.87 171.87 0 0 0 30.2-9.76 4.17 4.17 0 0 1 5.48 2.19 4.27 4.27 0 0 1 .29 2.27Zm45-296.28a4 4 0 0 1-.95 2.07 4.17 4.17 0 0 1-5.88.47A171.44 171.44 0 0 0 781.26 196a4.17 4.17 0 0 1 4.15-7.24A180.68 180.68 0 0 1 812.62 208a4.18 4.18 0 0 1 1.38 3.77ZM705.79 522.16a4.18 4.18 0 0 1-4 3.54 182.42 182.42 0 0 1-33.22-2 4.18 4.18 0 0 1-3.5-4.75 4.18 4.18 0 0 1 4.75-3.5 173.7 173.7 0 0 0 31.69 1.86 4.16 4.16 0 0 1 4.31 4 3.94 3.94 0 0 1-.03.85Zm52.1-342.65a4.13 4.13 0 0 1-.19.75 4.17 4.17 0 0 1-5.31 2.56 174.59 174.59 0 0 0-30.81-7.65l-.71-.1a4.17 4.17 0 0 1-3.51-4.74 4.17 4.17 0 0 1 4.74-3.49l.74.11a181.92 181.92 0 0 1 32.29 8 4.19 4.19 0 0 1 2.76 4.56Zm-116.13 333a4.86 4.86 0 0 1-.18.73 4.18 4.18 0 0 1-5.31 2.58A180.19 180.19 0 0 1 606 502a4.17 4.17 0 0 1 4.14-7.25A171.75 171.75 0 0 0 639 507.92a4.17 4.17 0 0 1 2.76 4.57Zm51.39-342.75a4.18 4.18 0 0 1-4 3.54 171.85 171.85 0 0 0-31.47 4.07 4.17 4.17 0 0 1-1.84-8.14 179.85 179.85 0 0 1 33-4.27 4.17 4.17 0 0 1 4.32 4 5 5 0 0 1-.01.78Zm-107.61 310.6a4.11 4.11 0 0 1-.94 2.07 4.17 4.17 0 0 1-5.88.47 182.37 182.37 0 0 1-23.27-23.8 4.17 4.17 0 1 1 6.48-5.26 173.18 173.18 0 0 0 22.19 22.71 4.13 4.13 0 0 1 1.42 3.81Zm-40.82-50.28a4.17 4.17 0 0 1-7.79 1.36 180.66 180.66 0 0 1-13.14-30.58 4.17 4.17 0 1 1 7.93-2.57 172.61 172.61 0 0 0 12.54 29.16 4.23 4.23 0 0 1 .46 2.63Zm-20-61.6a4.17 4.17 0 0 1-8.26-.1 180.25 180.25 0 0 1-1.16-33.26 4.17 4.17 0 1 1 8.33.48 172.33 172.33 0 0 0 1.1 31.72 4.09 4.09 0 0 1 .03 1.16Zm14.3-95.37a4.5 4.5 0 0 1-.32 1.09 171.3 171.3 0 0 0-10.36 30 4.17 4.17 0 0 1-8.11-2 180.54 180.54 0 0 1 10.87-31.46 4.17 4.17 0 0 1 7.92 2.35ZM551.54 239.11h-32.86a7.63 7.63 0 0 1-2.83-14.72l-15.58-25.81 34.2-55.06v-2.07l.64 1 .64-1v2.07L570 198.58l-15.61 25.85a7.6 7.6 0 0 1-2.8 14.68ZM519 227.72a3.84 3.84 0 0 0-4.05 3.76 3.77 3.77 0 0 0 3.77 3.76h32.86a3.76 3.76 0 0 0 0-7.52h-3.43l1.49-2.94 15.81-26.17L538.34 155v25.14a15.37 15.37 0 0 1-1.94 30.61h-2.59a15.37 15.37 0 0 1-1.93-30.61V155l-27.07 43.58 17.58 29.11Zm14.85-43.8a11.5 11.5 0 0 0 0 23h2.59a11.5 11.5 0 1 0 0-23Z"/><path fill="#f3bb72" d="M623.09 141.38v-22.61h-22.62v10h-55.12v-7.13h-22.62v7.13h-53v-10.36h-22.62V141h22.62v-9.6h53v1a74.56 74.56 0 0 0-62.48 61.6h-11.72v22.62h22.61V194H463a71.86 71.86 0 0 1 59.75-58.85v9h22.62v-8.92a71.86 71.86 0 0 1 59 58.74h-9.57v22.62h22.62V194h-10.29a74.56 74.56 0 0 0-61.78-61.48v-1.12h55.12v9.95Z"/><path fill="#62a6a3" d="M2166.41 731.05c-34 50.36-8.17 127.25-8.17 127.25s81-4.76 115-55.12 37.67-107.34 8.17-127.25-80.99 4.76-115 55.12ZM2236.25 917.25c-60.48 5.93-103.21 74.88-103.21 74.88s55.32 59.32 115.8 53.38 106.68-39.46 103.2-74.88-55.32-59.32-115.79-53.38ZM1871.76 983.19c33.85 50.47 114.8 55.5 114.8 55.5s26.09-76.8-7.76-127.27-85.24-75.32-114.8-55.5-26.08 76.8 7.76 127.27ZM2123.78 1181.58c-59.88-10.4-119.44 44.66-119.44 44.66s37.51 71.92 97.38 82.32 113.35-9.6 119.44-44.66-37.51-71.9-97.38-82.32Z"/><path fill="#538c8a" d="M1935.22 1426.17c.35-59.77 10.1-120.8 26.45-181a3.27 3.27 0 0 1 .94-3.5 1007.84 1007.84 0 0 1 43.68-124.49c-23.49-98.3-64.79-142.38-65.21-142.81a3.36 3.36 0 0 1 4.85-4.66c1.71 1.78 40.59 43.14 64.76 137.25 48.65-111.86 114.45-214.58 177.88-292.94a3.36 3.36 0 0 1 5.23 4.23c-42.55 52.55-86.15 116.12-124.89 186 16.86-5.45 61.59-17.58 143.32-24.79a3.36 3.36 0 0 1 1.27 6.56 3.16 3.16 0 0 1-.68.14c-98.5 8.68-143.67 25-148.74 26.89-18.31 33.64-35.44 68.67-50.75 104.62l-2.06 5a1004.38 1004.38 0 0 0-40.51 114.66c58-28.26 97.82-10.34 99.56-9.53a3.36 3.36 0 0 1-2.85 6.09c-.41-.19-41.17-18.35-99.09 12.19-16.33 60-26.08 120.69-26.43 180.16a3.37 3.37 0 0 1-2.39 3.2 3.59 3.59 0 0 1-1 .14 3.35 3.35 0 0 1-3.34-3.41Z"/><path fill="#75bab7" d="M2314 1173.2c-23.4 16-25.44 53.71-25.44 53.71s35.89 11.88 59.29-4.08 34.78-40 25.44-53.71-35.93-11.88-59.29 4.08ZM2312.16 1265.87c-27.21-7.83-57.59 14.68-57.59 14.68s13.76 35.21 41 43 53 1.26 57.59-14.68-13.78-35.16-41-43ZM2142.94 1231.71c6 27.69 40.17 43.8 40.17 43.8s24.52-28.78 18.55-56.47-24-47.29-40.18-43.79-24.48 28.75-18.54 56.46Z"/><path fill="#62a6a3" d="M2218 1361c-24.15-14.81-59.42-1.21-59.42-1.21s3.87 37.61 28 52.42 50.75 15.34 59.42 1.2-3.9-37.59-28-52.41Z"/><path fill="#538c8a" d="M2094.19 1434.5c10.44-25.83 25.17-50.58 42.61-73.85a1.52 1.52 0 0 1 1-1.35 470 470 0 0 1 40.34-46.41c6.75-46.62-3.56-72.82-3.66-73.08a1.57 1.57 0 1 1 2.9-1.18c.43 1.07 10.15 25.67 4.43 70.6a608.6 608.6 0 0 1 127.47-96.23 1.57 1.57 0 0 1 2.13.6 1.55 1.55 0 0 1-.6 2.13 606.75 606.75 0 0 0-86.1 59.09c8.23.54 29.7 3 66.34 13.93a1.55 1.55 0 0 1 1 1.94 1.57 1.57 0 0 1-1.63 1.12l-.32-.06c-44.16-13.19-66.52-13.91-69.05-14-13.72 11.42-27.17 23.64-40 36.58l-1.74 1.79a467.45 467.45 0 0 0-37.28 42.69c30-2.25 44.15 12.36 44.76 13a1.56 1.56 0 0 1-.07 2.21 1.57 1.57 0 0 1-2.21-.06c-.15-.16-14.68-15-45-11.78-17.39 23.16-32.07 47.79-42.45 73.49a1.57 1.57 0 0 1-1.59 1 1.48 1.48 0 0 1-.45-.11 1.56 1.56 0 0 1-.83-2.06Z"/><path fill="#62a6a3" d="M523.79 1005c23.13 37.52 2.07 92.46 2.07 92.46s-58.53-5.9-81.65-43.43-24-78.92-2.07-92.46 58.53 5.94 81.65 43.43ZM467.55 1137.86c43.64 6.14 72.52 57.4 72.52 57.4s-41.89 41.31-85.53 35.17S378.42 1198.6 382 1173s41.9-41.27 85.55-35.14ZM729.69 1196.69c-26.05 35.55-84.88 36.74-84.88 36.74s-16.57-56.45 9.48-92 64.06-52 84.88-36.74 16.58 56.45-9.48 92ZM541.05 1332.83c43.7-5.72 85.2 36 85.2 36s-29.36 51-73.07 56.7-81.85-10.39-85.2-36 29.36-50.97 73.07-56.7Z"/><path fill="#538c8a" d="M670.29 1515.8c1.56-43.33-3.67-87.85-13.69-132a2.37 2.37 0 0 0-.58-2.57 730.38 730.38 0 0 0-27.88-91.53c20-70.53 51.27-101.23 51.58-101.53a2.44 2.44 0 0 0-3.37-3.52c-1.29 1.24-30.72 30-51.08 97.51-31.88-82.55-76.45-159-120-217.69a2.44 2.44 0 0 0-3.91 2.91A946.31 946.31 0 0 1 586.18 1206c-12-4.45-44.1-14.6-103.11-22.3a2.44 2.44 0 0 0-1.12 4.72 3.51 3.51 0 0 0 .49.12c71.12 9.27 103.36 22.44 107 24 12.24 24.93 23.6 50.84 33.61 77.35l1.34 3.65a727.63 727.63 0 0 1 25.89 84.32c-41.21-22.24-70.58-10.46-71.86-9.92a2.44 2.44 0 0 0 1.87 4.5c.31-.13 30.4-12 71.45 11.83 10 43.94 15.25 88.26 13.7 131.37a2.43 2.43 0 0 0 1.63 2.38 2.49 2.49 0 0 0 .72.14 2.44 2.44 0 0 0 2.5-2.36Z"/><path fill="#b3677d" d="M1406.32 1515.49H1390v-105.13a104.24 104.24 0 0 1 104.12-104.12h41.57a87.86 87.86 0 0 0 87.77-87.77 104.23 104.23 0 0 1 104.11-104.11h230.23a104.23 104.23 0 0 1 104.11 104.11v103.09h-16.34v-103.09a87.86 87.86 0 0 0-87.77-87.76h-230.26a87.86 87.86 0 0 0-87.76 87.76 104.24 104.24 0 0 1-104.12 104.12h-41.57a87.86 87.86 0 0 0-87.77 87.77Z"/><path fill="#62a6a3" d="M258.06 1980.59c23.4 16 25.44 53.71 25.44 53.71s-35.89 11.87-59.29-4.09-34.79-40-25.44-53.71 35.89-11.87 59.29 4.09ZM259.86 2073.26c27.21-7.84 57.59 14.67 57.59 14.67s-13.76 35.22-41 43.05-53 1.27-57.59-14.67 13.78-35.22 41-43.05ZM429.08 2039.1c-6 27.68-40.18 43.79-40.18 43.79s-24.51-28.78-18.54-56.46 24-47.29 40.18-43.8 24.51 28.78 18.54 56.47ZM354.06 2168.4c24.15-14.81 59.42-1.21 59.42-1.21s-3.87 37.61-28 52.41-50.75 15.35-59.42 1.21 3.86-37.61 28-52.41Z"/><path fill="#538c8a" d="M477.83 2241.89c-10.44-25.83-25.17-50.58-42.61-73.85a1.55 1.55 0 0 0-1-1.36 471.06 471.06 0 0 0-40.34-46.4c-6.75-46.62 3.56-72.82 3.66-73.08a1.57 1.57 0 1 0-2.9-1.18c-.43 1.06-10.15 25.67-4.43 70.59a608.87 608.87 0 0 0-127.46-96.27 1.57 1.57 0 0 0-1.54 2.73 607.54 607.54 0 0 1 86.11 59.08c-8.24.54-29.7 3-66.34 13.93a1.57 1.57 0 0 0 .58 3.06l.32-.06c44.16-13.19 66.52-13.91 69.05-13.95 13.72 11.43 27.17 23.65 40 36.59l1.74 1.79a466.12 466.12 0 0 1 37.28 42.69c-30-2.25-44.15 12.35-44.76 13a1.58 1.58 0 0 0 .07 2.22 1.6 1.6 0 0 0 1.2.42 1.57 1.57 0 0 0 1-.49c.15-.15 14.68-15 45-11.77 17.39 23.15 32.07 47.79 42.45 73.48a1.58 1.58 0 0 0 1.59 1 1.48 1.48 0 0 0 .45-.11 1.58 1.58 0 0 0 .88-2.06Z"/><path fill="#f3bb72" d="M599.81 832.79a31.87 31.87 0 1 1 31.87-31.87 31.9 31.9 0 0 1-31.87 31.87Zm0-61a29.09 29.09 0 1 0 29.09 29.09 29.12 29.12 0 0 0-29.09-29.05Z"/><path fill="#f3bb72" d="M638.76 832.79a31.87 31.87 0 1 1 31.87-31.87 31.9 31.9 0 0 1-31.87 31.87Zm0-61a29.09 29.09 0 1 0 29.09 29.09 29.12 29.12 0 0 0-29.09-29.05Z"/><path fill="#f3bb72" d="M620.25 863.28a31.88 31.88 0 1 1 31.87-31.88 31.91 31.91 0 0 1-31.87 31.88Zm0-61a29.09 29.09 0 1 0 29.09 29.09 29.12 29.12 0 0 0-29.09-29.06ZM309.93 1255H177.72a13.86 13.86 0 0 1-13.85-13.84v-94.26a13.86 13.86 0 0 1 13.85-13.84h132.21a13.86 13.86 0 0 1 13.84 13.84v94.25a13.86 13.86 0 0 1-13.84 13.85Zm-132.21-119.34a11.26 11.26 0 0 0-11.25 11.24v94.25a11.26 11.26 0 0 0 11.25 11.24h132.21a11.25 11.25 0 0 0 11.24-11.24v-94.25a11.25 11.25 0 0 0-11.24-11.24Z"/><path fill="#f3bb72" d="M309.54 1242.11H197.77v-96.17h111.77Zm-109.17-2.6h106.57v-91H200.37Z"/><path fill="#f3bb72" d="M208.21 1163.09h-2.6v-9.18h8.68v2.6h-6.08v6.58zM292.06 1156.51v-2.6h9.18v8.67h-2.6v-6.07h-6.58zM208.21 1224.09h-2.6v9.18h8.68v-2.6h-6.08v-6.58zM292.06 1230.67v2.6h9.18v-8.68h-2.6v6.08h-6.58zM181.87 1208.89a11.47 11.47 0 1 1 11.47-11.47 11.48 11.48 0 0 1-11.47 11.47Zm0-20.34a8.87 8.87 0 1 0 8.87 8.87 8.87 8.87 0 0 0-8.87-8.87ZM2106.85 814.21h-91.51a8.1 8.1 0 0 1-8.08-8.08v-78.72a8.09 8.09 0 0 1 8.08-8.07h91.51a8.08 8.08 0 0 1 8.08 8.07v78.72a8.09 8.09 0 0 1-8.08 8.08Zm-91.51-91.9a5.11 5.11 0 0 0-5.1 5.1v78.72a5.11 5.11 0 0 0 5.1 5.1h91.51a5.11 5.11 0 0 0 5.11-5.1v-78.72a5.11 5.11 0 0 0-5.11-5.1Z"/><path fill="#f3bb72" d="m2081.64 784.46-38.01-34.12-33.51 29.38-1.96-2.24 35.5-31.11 38 34.12 15.88-13.95 16.49 14.43-1.95 2.24-14.53-12.72-15.91 13.97zM2080.87 758a8.47 8.47 0 1 1 8.47-8.46 8.47 8.47 0 0 1-8.47 8.46Zm0-14a5.5 5.5 0 1 0 5.49 5.5 5.5 5.5 0 0 0-5.49-5.5ZM1013.87 164.79a1.7 1.7 0 0 1-.66-.14L977.81 150a1.73 1.73 0 0 1-1.07-1.6 1.71 1.71 0 0 1 1.07-1.59l35.4-14.66a1.77 1.77 0 0 1 1.32 0l35.4 14.66a1.71 1.71 0 0 1 1.07 1.59 1.73 1.73 0 0 1-1.07 1.6l-35.4 14.65a1.66 1.66 0 0 1-.66.14ZM983 148.4l30.88 12.79 30.88-12.79-30.88-12.78Z"/><path fill="#f3bb72" d="M1013.87 213.2a1.7 1.7 0 0 1-.66-.14l-35.4-14.65a1.73 1.73 0 0 1-1.07-1.6v-41.34a1.73 1.73 0 0 1 3.46 0v40.19l33.67 13.94 33.67-13.94v-40a1.73 1.73 0 0 1 3.46 0v41.11a1.73 1.73 0 0 1-1.07 1.6l-35.4 14.65a1.66 1.66 0 0 1-.66.18Z"/><path fill="#f3bb72" d="M1013.65 207.26a1.72 1.72 0 0 1-1.73-1.73V171a1.73 1.73 0 0 1 3.46 0v34.5a1.73 1.73 0 0 1-1.73 1.76ZM1013.53 129.24a1.74 1.74 0 0 1-1.73-1.73v-23a1.73 1.73 0 0 1 3.46 0v23a1.73 1.73 0 0 1-1.73 1.73ZM1082.88 207a1.59 1.59 0 0 1-.43-.06l-27.74-7.1a1.73 1.73 0 0 1 .86-3.35l27.74 7.1a1.73 1.73 0 0 1-.43 3.41ZM955.35 209.07a1.73 1.73 0 0 1-.72-3.3l18.26-8.46a1.73 1.73 0 1 1 1.45 3.14l-18.26 8.46a1.72 1.72 0 0 1-.73.16ZM245.08 2260.2a2 2 0 0 1-2-2v-21.79a2 2 0 1 1 4.08 0v21.79a2 2 0 0 1-2.08 2ZM223.39 2272.32a2 2 0 0 1-.85-3.9l18.39-8.4a2 2 0 0 1 1.7 3.72l-18.39 8.4a2.09 2.09 0 0 1-.85.18ZM268.71 2272.19a2 2 0 0 1-.8-.16l-20-8.6a2 2 0 1 1 1.61-3.75l20 8.59a2 2 0 0 1-.81 3.92ZM616.33 1033.13a2 2 0 0 1-2-2v-21.83a2 2 0 0 1 4.09 0v21.79a2.05 2.05 0 0 1-2.09 2.04ZM594.65 1045.25a2 2 0 0 1-.85-3.9l18.39-8.4a2 2 0 0 1 1.69 3.72l-18.39 8.39a1.94 1.94 0 0 1-.84.19ZM640 1045.12a2.09 2.09 0 0 1-.81-.16l-20-8.6a2 2 0 1 1 1.62-3.75l20 8.59a2 2 0 0 1-.8 3.92ZM1686.06 191.46a2 2 0 0 1-2-2v-21.83a2 2 0 0 1 4.09 0v21.79a2 2 0 0 1-2.09 2.04ZM1664.38 203.58a2 2 0 0 1-.85-3.9l18.39-8.39a2 2 0 0 1 1.69 3.71l-18.38 8.4a2.16 2.16 0 0 1-.85.18ZM1709.7 203.46a2.1 2.1 0 0 1-.81-.17l-20-8.6a2 2 0 1 1 1.62-3.75l20 8.6a2 2 0 0 1-.81 3.92ZM2239.93 1130.87a2 2 0 0 1-2-2V1107a2 2 0 0 1 4.09 0v21.79a2 2 0 0 1-2.09 2.08ZM2218.25 1143a2 2 0 0 1-.85-3.9l18.39-8.4a2 2 0 0 1 1.69 3.72l-18.38 8.4a2.16 2.16 0 0 1-.85.18ZM2263.57 1142.86a2.13 2.13 0 0 1-.81-.16l-20-8.6a2 2 0 0 1 1.61-3.75l20 8.59a2 2 0 0 1-.81 3.92ZM324.61 1893.05a8.34 8.34 0 0 1-8.33-8.33v-59.5h16.66v59.5a8.34 8.34 0 0 1-8.33 8.33Zm-5.26-64.76v56.43a5.26 5.26 0 0 0 10.52 0v-56.43ZM333.78 1822l-17.51-.15-.39-.91c-7-16-4.4-34.18 5.85-41.44l2.17-1.53.24 2.64c.38 4.23 2.85 7 5.7 10.13 5.31 5.9 11.34 12.58 4.32 30.29Zm-15.48-3.19 13.39.11c5.72-15.2.72-20.75-4.13-26.13-2.41-2.67-4.88-5.42-6-9.19-7.27 7.16-8.74 21.86-3.26 35.24ZM2505.92 1696.55H2489l.17-73.64 8.7-17.15 8.06 17.84Zm-13.86-3.06h10.79v-69.55l-5.13-11.14-5.66 11.17Z"/><path fill="#f3bb72" d="M2497.77 1627a17.46 17.46 0 0 1-7.93-2l1.38-2.74c7.46 3.76 12.83 0 13.06-.2l1.82 2.47a14.86 14.86 0 0 1-8.33 2.47Z"/><rect width="2024.63" height="1207.67" x="321.63" y="691.23" fill="#404040" rx="15" transform="rotate(90 1333.94 1295.06)"/><rect width="1910.69" height="1158.06" x="378.6" y="683.17" fill="#737373" rx="4" transform="rotate(90 1333.945 1262.195)"/><path fill="#fff2c2" d="M768.34 322.94h1131.19v1878.51H768.34z"/><path fill="#fff" d="M486.72 791.31h1694.45v941.78H486.72z" transform="rotate(90 1333.945 1262.195)"/><rect width="333.05" height="131.53" x="1153.84" y="1930.69" rx="28.43" style="mix-blend-mode:multiply" fill="#e6d4d4"/><rect width="333.05" height="131.53" x="1167.42" y="1895.39" fill="#52a19d" rx="28.43"/><rect width="676.95" height="32.58" x="995.47" y="1533.99" fill="#f48dab" rx="7.04"/><rect width="676.95" height="32.58" x="995.47" y="1651.94" fill="#f48dab" rx="7.04"/><rect width="676.95" height="32.58" x="995.47" y="1769.9" fill="#f48dab" rx="7.04"/><circle cx="894.1" cy="457.02" r="13.37" fill="#ffda75"/><circle cx="985.19" cy="457.02" r="13.37" fill="#6ebab7"/><circle cx="940.14" cy="457.02" r="13.37" fill="#f48dab"/><rect width="896.77" height="76.02" x="880.83" y="488.99" fill="#f48dab" rx="16.43"/><rect width="177.99" height="25.34" x="905.57" y="516.14" fill="#fff" rx="5.48"/><rect width="58.83" height="25.34" x="1103.36" y="516.14" fill="#fff" rx="5.48"/><rect width="280.86" height="25.34" x="1471.1" y="516.14" fill="#fff" rx="5.48"/><rect width="266.98" height="25.34" x="1182" y="516.14" fill="#fff" rx="5.48"/><rect width="706.76" height="984.99" x="1709.09" y="1322.76" fill="#b3677d" rx="11.74"/><rect width="960.47" height="682.25" x="1582.23" y="1474.13" fill="#edc2c9" rx="8.74" transform="rotate(90 2062.475 1815.255)"/><path fill="#e3a8b1" d="M2367.88 1335h-610.82a35.75 35.75 0 0 0-35.71 35.71v191.08h682.24v-191.06a35.75 35.75 0 0 0-35.71-35.73Z"/><path fill="#b3677d" d="M1960.13 1334.75h204.67v85.28h-204.67z"/><path fill="#99586b" d="M1998.11 1334.75h128.72v51.77h-128.72z"/><path fill="#89abcc" d="M2056.61 1491.99h11.73v87.06h-11.73z"/><path fill="#b3677d" d="M1792.24 1775.37a4.09 4.09 0 0 1-4.09-4.09v-62.09a11.56 11.56 0 0 1 11.55-11.55h48.5a4.09 4.09 0 1 1 0 8.17h-48.5a3.39 3.39 0 0 0-3.38 3.38v62.09a4.08 4.08 0 0 1-4.08 4.09ZM1792.24 2147.14a4.09 4.09 0 0 0-4.09 4.09v62.09a11.56 11.56 0 0 0 11.55 11.55h48.5a4.09 4.09 0 1 0 0-8.17h-48.5a3.39 3.39 0 0 1-3.38-3.38v-62.09a4.08 4.08 0 0 0-4.08-4.09ZM2326.31 2147.14a4.08 4.08 0 0 1 4.08 4.09v62.09a11.56 11.56 0 0 1-11.54 11.55h-48.51a4.09 4.09 0 0 1 0-8.17h48.51a3.38 3.38 0 0 0 3.37-3.38v-62.09a4.09 4.09 0 0 1 4.09-4.09Z"/><path fill="#6991b8" d="M1582.14 1870.5h-240.99l-44.95-211.08h240.99l44.95 211.08z"/><path fill="#97bce0" d="M1591.13 1870.5h-240.98l-44.96-211.08h240.99l44.95 211.08z"/><path fill="#bcd9f5" d="m1355.41 1863.99-42.18-198.07h227.68l42.18 198.07h-227.68z"/><path fill="#333" d="M1552.45 1720.1c-25.52 34-73.83 98.53-107.45 143.89h18.89l92.57-125Z"/><path fill="#858585" d="M1234.98 1870.35h639.84v16.27h-639.84z"/><path fill="#adadad" d="M1234.98 1870.35h271.77v16.27h-271.77z"/><path fill="#2b1710" d="M1816.92 2244.82c14.07 29 13.19 61.57 13.19 61.57H1656c15-29 91.47-37.82 95-58s65.92-3.57 65.92-3.57Z"/><path fill="#2b1710" d="M1658.46 2243.7c14.07 29 13.19 61.56 13.19 61.56h-174.14c15-29 91.47-37.82 95-58s65.95-3.56 65.95-3.56Z"/><path fill="#2b1710" d="M1659.58 2243.7c14.08 29 13.2 61.56 13.2 61.56h-174.14c14.95-29 91.46-37.82 95-58s65.94-3.56 65.94-3.56Z"/><path fill="#8db7e0" d="M1725.3 1888.38c-95-2.64-204-3.52-204.92 56.29s65.08 306.06 65.08 306.06c67.72 22.87 80-.88 80-.88l-13.2-231.3c13.2 6.15 36.84 8.46 36.84 8.46 1.86 79.49 45 221.09 45 221.09 50.13 22 88.83.87 88.83.87-2.64-33.42-22.87-197-22.87-197s99.38 5.27 117-7.92 19.35-74.76 18.47-78.27-58.92-88.83-84.43-95.87-125.8 18.47-125.8 18.47Z"/><path fill="#ff8762" d="M1503.23 1770.53s-26.24-26.39-28.29-28.44-32-5.86-34.3-5.86-27 14.36-27 15.53c7.91 7.33 21.4 1.18 21.4 1.18s-22.58 17.59-17.59 19.64 4.39 5.57 5 7.62c-.29 6.16 11.73 4.11 20.23 4.11s6.74 6.74 21.4 14.36 30.34 6.6 30.34 6.6 19.22-11 8.81-34.74Z"/><path fill="#2b1710" d="M1719.29 1474.87c-10.26-1.84-5.64-11.07-5.64-11.07-15-15.83 2-29.68 19.35-31.22s29.46-7.48 35.84-6.38c11.65-8.13 15.61-4.18 25.72-1.76s13.42 7.26 15.83 11.22 15.62 2.41 17.37 14.95 5.28 34.08 3.3 51-13.41 23.67-13.41 23.67-7.7 12-9.45 12.39-32.33-.66-36.06-2.86-25.51-6.16-28.81-9.45-3.52 5.27-7.69-8.36-16.35-42.13-16.35-42.13Z"/><path fill="#f57954" d="M1731.68 1534.16c-6.38.66-15-2.2-15.39-3.74s8.35-29 8.35-29Z"/><path fill="#2b1710" d="M1726.62 1516.91c-6.61 0-12-6.07-12-13.53s5.38-13.54 12-13.54 12 6.07 12 13.54-5.38 13.53-12 13.53Zm0-25.94c-6 0-10.87 5.56-10.87 12.41s4.88 12.41 10.87 12.41 10.87-5.57 10.87-12.41-4.87-12.38-10.87-12.38Z"/><path fill="#ff8762" d="M1719.29 1474.87c-3.52 17.29 7.33 34.88 6.16 45.14s6.45 52.19 14.36 53.65 7.19-5.27 15.54-3.66 11.87 16.71 12.17 18 70.65-11.58 69.92-13.19c-12.75-22-18.18-26.83-19.79-49.55-4.54 2.64-12.61.59-12.61.59-5 2.64-20.52-7.77-22.28-13.49-3.52-21.69-12-24.92-21-21.55s-6.16 11.15-5.57 17.89-12.17 6-12.6 5.57c3.37-2.93 4.54-11.44 2.34-16.86s-4.1-8.35-4.25-11.14c-7-1.76-9.24-5.28-9.24-5.28-10.36.18-13.15-6.12-13.15-6.12Z"/><path d="M1767.23 1519.55a.57.57 0 0 1-.54-.38.56.56 0 0 1 .35-.71c4.24-1.45 4.87-4.32 4.88-5.89 0-2.67-1.73-5.44-3.87-6.18a3.21 3.21 0 0 0-3.75 1.36.55.55 0 0 1-.5.22.59.59 0 0 1-.45-.31c-1.3-2.59-1.27-8.51 1.42-11.36 1.19-1.26 3.39-2.43 7.08-.84a.56.56 0 1 1-.45 1c-2.48-1.07-4.44-.87-5.81.59-2.1 2.22-2.33 6.74-1.55 9.28a4.12 4.12 0 0 1 4.38-1c2.59.89 4.63 4.08 4.62 7.24s-2.06 5.73-5.63 7ZM1755.43 1567a.56.56 0 0 1-.32-1c17.27-11.71 16.65-25.59 16.29-33.88-.14-3.17-.24-5.27.75-6.3a2 2 0 0 1 1.52-.6 5.07 5.07 0 0 0 4-2.06 16 16 0 0 0 2.94-8.48.56.56 0 0 1 1.1-.22 16.57 16.57 0 0 1-3.16 9.4 6.16 6.16 0 0 1-4.87 2.49.88.88 0 0 0-.71.25c-.65.68-.56 2.79-.44 5.47.35 8 1 22.8-16.78 34.86a.61.61 0 0 1-.32.07Z" style="mix-blend-mode:multiply" fill="#e0b3a8"/><path fill="#2b1710" d="M1715.63 1506.58a.56.56 0 0 1-.56-.51.55.55 0 0 1 .5-.61l38-3.74a.56.56 0 0 1 .62.5.57.57 0 0 1-.51.62l-38 3.74Z"/><path fill="#567f71" d="M1840.06 1568.06a24.9 24.9 0 0 0-5.25 0c-102.81 10-148.83 72.29-170.63 122-22 50.13-26.39 73-35.62 73s-100.71 0-125.33 7.48a208.62 208.62 0 0 0-8.8 34.74l2.64 1.32c11.87 18.47 118.73 57.16 142 48.81s71.68-59.37 80-50.13 11 40 4.39 53.21-28.14 31.22 31.67 61.12 169.3 37.82 193.93 13.19 69-128.84 63.76-158.31c-5.16-29.25-56.75-193.66-172.76-206.43Z"/><path d="M1755.2 1693.69a.55.55 0 0 1-.55-.5c0-.35-4-35.45-41.18-73.55a.55.55 0 0 1 0-.79.56.56 0 0 1 .79 0c37.52 38.39 41.46 73.86 41.49 74.21a.56.56 0 0 1-.5.62ZM1626.8 1789.56a.56.56 0 0 1-.56-.51 71.87 71.87 0 0 1 .47-17.34c.26-2.08.55-4.44.19-4.7 0 0-.45-.14-2.4 1.33-6.81 5.1-9.45 13.69-9.48 13.78a.56.56 0 1 1-1.07-.32c.11-.37 2.77-9 9.87-14.36 1.93-1.44 2.91-1.82 3.64-1.4 1 .59.8 2.33.36 5.81a71 71 0 0 0-.46 17.09.55.55 0 0 1-.5.61ZM1501 1805.39a.58.58 0 0 1-.56-.48c-.07-.47-1.66-11.84 8.86-31.13a.56.56 0 1 1 1 .53c-10.32 18.92-8.75 30.32-8.74 30.43a.56.56 0 0 1-.47.64Z" style="mix-blend-mode:multiply" fill="#d1d1d1"/><path d="M1428.91 1778.12a.54.54 0 0 1-.42-.19.56.56 0 0 1 0-.79c14-12.26 20.19-14.12 20.44-14.19a.57.57 0 0 1 .7.38.57.57 0 0 1-.39.7c-.06 0-6.25 1.92-20 14a.58.58 0 0 1-.33.09ZM1430.67 1764.93a.56.56 0 0 1-.38-1c12.29-11.41 21-13.26 21.38-13.33a.55.55 0 0 1 .66.44.57.57 0 0 1-.44.66c-.09 0-8.81 1.88-20.84 13a.55.55 0 0 1-.38.23Z" style="mix-blend-mode:multiply" fill="#e0b3a8"/><path d="M1720.91 1794a.59.59 0 0 1-.48-.26.57.57 0 0 1 .17-.78c24.29-15.61 32.39-22.74 32.47-22.81a.57.57 0 0 1 .8 0 .58.58 0 0 1 0 .8c-.08.07-8.23 7.24-32.61 22.92a.58.58 0 0 1-.35.13ZM1963.65 1731.51a.56.56 0 0 1-.56-.51c0-.29-2.84-29.42-20.19-70.19a.56.56 0 1 1 1-.44c17.42 40.94 20.24 70.24 20.27 70.53a.57.57 0 0 1-.51.61ZM1641.75 2019.11c-26.24 0-56.28-18.37-56.58-18.56a.56.56 0 0 1-.19-.77.57.57 0 0 1 .78-.18c.29.18 30.07 18.38 56 18.38a.57.57 0 0 1 .56.57.56.56 0 0 1-.57.56ZM1607.45 2024.38a.55.55 0 0 1-.56-.53.56.56 0 0 1 .53-.59 204.38 204.38 0 0 0 28.06-3.51.56.56 0 0 1 .66.44.55.55 0 0 1-.43.66 204.62 204.62 0 0 1-28.23 3.53Z" style="mix-blend-mode:multiply" fill="#d1d1d1"/><path d="M1795.66 2041.09c-.31 0-31.7-.16-106.52-14.08a.55.55 0 0 1-.45-.65.56.56 0 0 1 .66-.45c74.69 13.9 106 14.06 106.31 14.06a.56.56 0 0 1 0 1.12Z" style="mix-blend-mode:multiply" fill="#adadad"/><path fill="#cc395b" d="M1985.39 1740.62c-69.15-15.61-137.2-5.27-163.59 29.91s-63.32 187.33-44.85 205.8 175.9 15 197.89.88 65.08-224.27 10.55-236.59Z"/><path fill="#e64067" d="M2006.74 1740.62c-69.15-15.61-137.2-5.27-163.58 29.91s-63.33 187.33-44.86 205.8 175.9 15 197.89.88 65.08-224.27 10.55-236.59Z"/><path fill="#cc395b" d="M1646.24 2043.46h267.28a3 3 0 0 1 3 3v34.51a3 3 0 0 1-3 3h-267.28a3 3 0 0 1-3-3v-34.51a3 3 0 0 1 3-3Z"/><rect width="208.16" height="40.46" x="1743.18" y="2043.46" fill="#e64067" rx="2.97"/><path fill="#e0e0e0" d="M1936.58 1931.47h-46.08c-39.87 77.4-38.84 152.74-38.84 152.74h46.07s-1.02-75.34 38.85-152.74Z"/><path fill="#adadad" d="M1940 1931.47h-46.08c-39.87 77.4-38.84 152.74-38.84 152.74h46.07s-1.07-75.34 38.85-152.74Z"/><path fill="#adadad" d="M1764.88 2084.18h94.99v41.67h-94.99z"/><path fill="#e0e0e0" d="M1795.66 2125.84h33.42v180.74h-33.42z"/><path fill="#adadad" d="M1829.08 2289.43h-33.42l-67.43 17.15h168.28l-67.43-17.15z"/><path fill="#616161" d="m1218.86 2305.26 69.48-419.52h160.95l66.4 419.52h-10.31l-73.25-392.25h-127.52l-76.08 392.4-9.67-.15z"/><path fill="#858585" d="m1212.11 2305.26 69.48-419.52h160.95l66.4 419.52h-10.31l-73.24-392.25h-127.53l-76.07 392.4-9.68-.15z"/><path fill="#6991b8" d="m1687.7 1858.04-348.94.44 2.42 11.28h346.52v-11.72z"/><rect width="713.15" height="705.91" x="941.16" y="676.03" rx="28.96" style="mix-blend-mode:multiply" fill="#e6d4d4"/><rect width="713.15" height="705.91" x="977.36" y="648.88" fill="#52a19d" rx="28.96"/><path fill="#52a19d" d="M446.4 1952.1H613V2285a21.43 21.43 0 0 1-21.43 21.43H467.84A21.43 21.43 0 0 1 446.4 2285v-332.9Z"/><path fill="#adadad" d="m611.53 1901.49 83.31-138-158.56-255.3v171.1a68.08 68.08 0 0 1 0 136.16h-13.14a68.08 68.08 0 1 1 0-136.16v-171.1l-158.55 255.3 83.31 138Z"/><rect width="224.4" height="57.78" x="417.51" y="1901.38" fill="#7acfcb" rx="4.21"/><rect width="51.06" height="104.81" x="545.54" y="1972.79" rx="6.57" style="mix-blend-mode:screen" fill="#525252"/><rect width="51.06" height="51.06" x="545.54" y="2091.33" rx="6.57" style="mix-blend-mode:screen" fill="#525252"/><path fill="#7acfcb" d="M86.89 1760.26h114.66v114.66H86.89zM828.61 1760.26h114.66v114.66H828.61zM857.27 1378.65h114.66v114.66H857.27zM79.73 1376.86h114.66v114.66H79.73z"/><path fill="#7acfcb" d="M896.39 1821.17h-13.74c0-200.7-163.28-364-364-364s-364 163.29-364 364h-13.71c0-208.28 169.45-377.73 377.72-377.73s377.73 169.45 377.73 377.73ZM138.85 1429.11H916.4v13.74H138.85z"/><path fill="#ffda75" d="M463.12 1392.98h114.66v114.66H463.12z"/><circle cx="1333.94" cy="1448.11" r="14.48" fill="#f48dab"/><circle cx="1405.64" cy="1448.11" r="14.48" fill="#f48dab"/><circle cx="1264.56" cy="1448.11" r="14.48" fill="#f48dab"/><path fill="#d13a5e" d="M672.94 1380.06c-32.35 44.68-81.65 178.72-72.41 228S676 1725.17 676 1725.17s35.44-66.25 35.44-70.87-30.81-23.11-33.9-37-9.24-64.7 4.63-84.73-9.23-152.51-9.23-152.51Z"/><path fill="#f0734d" d="M670.25 1872.05c1 1 8.78 32.8-2.32 50.71-9.92 16-18.18 48.64-26.57 116.71-8.25 66.89-6.6 201.88-18.64 223.43s-12 39.61-4.44 43.09 129.92 0 129.92 0c-4.12-5.07-28.52-20.91-57-31s-29.79-15.85-30.11-24.72 80.34-279.17 92.7-304.83 5.33-70.26 5.33-70.26Z"/><path fill="#2b1710" d="M618.28 2306c7.61 3.49 129.92 0 129.92 0-4.12-5.07-28.52-20.91-57-31-2.39-.85-4.57-1.67-6.59-2.46-13.07 8-4.66 17.58-23.91 20.42-23.24 3.43-27.64-4.82-45.25-13.19-4.19 13.53-2.67 23.7 2.83 26.23Z"/><path fill="#ff8762" d="M679.1 1872.05c1 1 8.74 38-2.36 55.91-9.92 16-13.94 56.09-5.38 122.95s23.44 190.44 11.4 212-12 39.61-4.43 43.09 129.92 0 129.92 0c-4.12-5.07-28.52-20.91-57-31s-29.79-15.85-30.11-24.72 29.16-279.17 41.52-304.83 5.33-70.26 5.33-70.26Z"/><path fill="#8db7e0" d="M683.73 1584.58c-17.72 42-37.36 79-32.74 117.09s18.49 177.95 19.64 181.42c65.86 22.72 101.68 6.55 102.07 4.23s28.89-156.76 25.42-212.22-14.64-88.59-14.64-88.59l-52-4.62Z"/><path fill="#e64067" d="M679.36 1363.63c-27.22 51.1-25.29 93.08-15.66 121.58s24.65 77.8 20 99.37c68.17 18.11 99.75 1.93 99.75 1.93-8.47-37.75 2.7-73.57 6.94-77.8 52.38 16.17 92.05 28.5 121.32-8.09s32.76-155.71 32.76-155.71l2.68-9.53-23.88-14.25-2.7 6.55s-38.51 107.46-65.86 108.62-87-28.51-99.76-43.14-18.49-19.77-20.41-21.06c-21.54-12.1-44.91-16.05-55.18-8.47Z"/><path fill="#ff6b8e" d="M747.09 1412.73a8.79 8.79 0 0 0-4.58 1.74 4.28 4.28 0 0 0-1.39 4.54 1.57 1.57 0 0 0 .68.88 1.47 1.47 0 0 0 2.16-1.67 2.49 2.49 0 0 1-.12-.47v.39a2.15 2.15 0 0 1 0-.62l-.06.39a3.27 3.27 0 0 1 .21-.74l-.15.35a4.4 4.4 0 0 1 .31-.56s.18-.24 0 0a2.39 2.39 0 0 1 .22-.23c.1-.1.4-.29 0 0l.29-.2a5.77 5.77 0 0 1 .7-.36l-.35.15a11.9 11.9 0 0 1 2.77-.66 1.5 1.5 0 0 0 .88-.68 1.56 1.56 0 0 0 .15-1.14 1.5 1.5 0 0 0-.68-.88 1.72 1.72 0 0 0-1.14-.15ZM747.12 1426.23a4.81 4.81 0 0 0-1.36 2.65 10.86 10.86 0 0 1-.31 1.25l-.06.18c-.06.15 0 .12 0-.08a2 2 0 0 1-.13.25l-.16.24q.21-.27.06-.09l-.09.1-.1.09q-.18.15.09-.06c-.06 0-.16.11-.22.15l-.23.12c-.25.14.32-.09 0 0l-.58.17a.82.82 0 0 0-.28 0h.11-.15a9.11 9.11 0 0 1-1.28 0h-.64a1 1 0 0 0-.3 0h.11-.19a1.48 1.48 0 0 0-.79 2.85c2.07.31 4.41.49 6.17-.87a4.86 4.86 0 0 0 1.67-2.85c.1-.44.19-.9.33-1.33a3.07 3.07 0 0 0 .11-.32c-.09.21-.11.24 0 .1a818904559455.48 818904559455.48 0 0 1 .14-.24c.09-.13.07-.1-.07.08l.27-.26a1.48 1.48 0 0 0 0-2.09 1.51 1.51 0 0 0-2.09 0ZM771.5 1423.45l-2.56 4.63a1.49 1.49 0 0 0 .53 2 1.51 1.51 0 0 0 2-.53l2.56-4.63a1.48 1.48 0 1 0-2.55-1.49ZM767.67 1438.33l-.64.55.3-.23a9.42 9.42 0 0 1-2 1.18l.35-.15a8.88 8.88 0 0 1-.91.32 1.58 1.58 0 0 0-.88.68 1.52 1.52 0 0 0-.15 1.14 1.49 1.49 0 0 0 1.82 1 10.78 10.78 0 0 0 4.24-2.43 1.48 1.48 0 0 0-2.09-2.09ZM719.63 1412.63a38 38 0 0 0-5.31 5.74 1.44 1.44 0 0 0-.15 1.13 1.49 1.49 0 0 0 .68.89 1.47 1.47 0 0 0 1.14.14 1.72 1.72 0 0 0 .88-.67s.2-.27.06-.09.05-.06.07-.08l.27-.35.56-.68a37.636 37.636 0 0 1 3.89-3.95 1.47 1.47 0 0 0 0-2.08 1.51 1.51 0 0 0-2.09 0ZM708.7 1433.47v1.8a1.5 1.5 0 0 0 .43 1 1 1 0 0 0 .48.31 1.07 1.07 0 0 0 .56.12 1.47 1.47 0 0 0 1.05-.43 1.55 1.55 0 0 0 .43-1v-1.8a1.48 1.48 0 0 0-.43-1 1.08 1.08 0 0 0-.48-.31 1.2 1.2 0 0 0-.57-.13 1.51 1.51 0 0 0-1 .44 1.55 1.55 0 0 0-.43 1ZM725.3 1445.53l1.27 2.58a1.48 1.48 0 0 0 2.7-.36l.05-.39a1.47 1.47 0 0 0-.2-.74l-1.27-2.58a1.47 1.47 0 0 0-.88-.68 1.52 1.52 0 0 0-1.14.15 1.53 1.53 0 0 0-.68.88v.39a1.5 1.5 0 0 0 .2.75ZM749.25 1464.28a15.26 15.26 0 0 0 1.81 7.4 1.49 1.49 0 0 0 2 .53 1.51 1.51 0 0 0 .53-2c-.13-.25-.26-.49-.37-.75 0-.06-.27-.52-.09-.19a2.26 2.26 0 0 1-.13-.33 13.37 13.37 0 0 1-.49-1.6c-.07-.27-.13-.54-.18-.82 0-.11 0-.23-.05-.35s0-.16 0 0v-.24a15.44 15.44 0 0 1-.07-1.67 1.49 1.49 0 0 0-1.47-1.47 1.5 1.5 0 0 0-1.48 1.47ZM790.56 1430.89l.19.21-.23-.3a2.82 2.82 0 0 1 .31.53l-.15-.35a2.55 2.55 0 0 1 .18.67l-.05-.4a2.73 2.73 0 0 1 0 .7l.05-.39a2.46 2.46 0 0 1-.16.59l.15-.36a1 1 0 0 1-.07.15 1.61 1.61 0 0 0-.14 1.14 1.48 1.48 0 0 0 .67.88 1.52 1.52 0 0 0 1.14.15 1.47 1.47 0 0 0 .88-.68 3.54 3.54 0 0 0 .38-1.09 4.78 4.78 0 0 0 .08-.76 4.9 4.9 0 0 0-.08-.76 4.12 4.12 0 0 0-.37-1.07 3.62 3.62 0 0 0-.69-1 1.53 1.53 0 0 0-1-.43 1.5 1.5 0 0 0-1 .43 1.46 1.46 0 0 0-.43 1 1.57 1.57 0 0 0 .43 1.05ZM742.63 1395.75l-4.35.85a1.53 1.53 0 0 0-.88.68 1.56 1.56 0 0 0-.15 1.14 1.51 1.51 0 0 0 1.82 1l4.35-.85a1.47 1.47 0 0 0 .88-.68 1.49 1.49 0 0 0 .15-1.13 1.53 1.53 0 0 0-1.82-1ZM705.18 1376.65a23.56 23.56 0 0 0-4 1.89 1.57 1.57 0 0 0-.68.88 1.48 1.48 0 0 0 2.17 1.67 22.09 22.09 0 0 1 2.74-1.4l-.35.15.87-.34a1.58 1.58 0 0 0 .88-.68 1.47 1.47 0 0 0-.53-2 1.43 1.43 0 0 0-1.14-.15ZM695.61 1392.25a18.42 18.42 0 0 0-5 3.22 1.48 1.48 0 0 0 0 2.09 1.52 1.52 0 0 0 2.09 0c.32-.29.66-.57 1-.84l-.3.23a17.86 17.86 0 0 1 3.65-2.15 1.47 1.47 0 0 0 .53-2 1.47 1.47 0 0 0-.88-.68 1.74 1.74 0 0 0-1.14.15ZM701.05 1408.4c-.27.4-.54.8-.82 1.18l-.39.52-.08.1-.22.29c-.58.73-1.2 1.43-1.84 2.11s-1.28 1.3-2 1.91c-.35.32-.72.63-1.09.94l-.5.41c-.06 0-.26.2-.1.07l-.34.26a1.51 1.51 0 0 0-.53 2 1.48 1.48 0 0 0 2 .53 35.7 35.7 0 0 0 8.4-8.85 1.49 1.49 0 0 0-.53-2 1.52 1.52 0 0 0-2 .53ZM687.11 1437.48a21.53 21.53 0 0 1 .42 2.24v-.39a22.93 22.93 0 0 1 .19 2.87 1.48 1.48 0 1 0 3 0 23.27 23.27 0 0 0-.67-5.51 1.48 1.48 0 0 0-1.81-1 1.5 1.5 0 0 0-1 1.82ZM669.67 1437.58v9.5a1.48 1.48 0 1 0 3 0v-9.5a1.48 1.48 0 1 0-3 0ZM685.15 1470.2v.21l.06-.39a8.88 8.88 0 0 1-.57 2l.15-.35a8.12 8.12 0 0 1-1 1.75l.23-.3c-.09.12-.18.23-.28.34a1.62 1.62 0 0 0-.43 1 1.48 1.48 0 0 0 2.52 1 9.07 9.07 0 0 0 1.52-2.36 8.45 8.45 0 0 0 .81-3 1.48 1.48 0 0 0-.43-1 1.57 1.57 0 0 0-1-.43 1.51 1.51 0 0 0-1 .43 1.76 1.76 0 0 0-.43 1ZM715 1494.07a8 8 0 0 0-5.05 5.49 1.48 1.48 0 0 0 2.85.78 5.22 5.22 0 0 1 .29-.87l-.15.35a6.81 6.81 0 0 1 .86-1.47l-.23.3a7 7 0 0 1 1.15-1.16l-.3.23a7.15 7.15 0 0 1 1.41-.83l-.35.15.3-.12a1.63 1.63 0 0 0 .89-.68 1.55 1.55 0 0 0 .15-1.14 1.51 1.51 0 0 0-1.82-1ZM712 1510.25v4.36a1.48 1.48 0 1 0 3 0v-4.36a1.48 1.48 0 1 0-3 0ZM742.4 1510a14.22 14.22 0 0 1 1-1.94c.18-.29.38-.58.58-.86l.16-.21c.11-.15-.18.22 0 0s.24-.3.37-.44a13.46 13.46 0 0 1 1.52-1.5 2.51 2.51 0 0 1 .4-.33c-.29.17-.08.06 0 0l.21-.16c.31-.22.63-.43 1-.62a1.48 1.48 0 1 0-1.49-2.55 15.38 15.38 0 0 0-6.24 7.1 1.61 1.61 0 0 0-.15 1.14 1.48 1.48 0 0 0 2.7.35ZM750.43 1543.11a6.41 6.41 0 0 0-.18-1 7.5 7.5 0 0 0-.37-.93 5.75 5.75 0 0 0-1-1.39A5.58 5.58 0 0 0 746 1538a1.58 1.58 0 0 0-1.13.15 1.5 1.5 0 0 0-.68.88 1.48 1.48 0 0 0 1 1.82 4 4 0 0 1 .74.23l-.36-.15a4.21 4.21 0 0 1 .94.55l-.3-.24a4.71 4.71 0 0 1 .8.81l-.23-.3a4.49 4.49 0 0 1 .57 1l-.14-.35a4.27 4.27 0 0 1 .27 1v-.39.1a1.62 1.62 0 0 0 .43 1.05 1.53 1.53 0 0 0 1.05.43 1.5 1.5 0 0 0 1-.43 1.4 1.4 0 0 0 .43-1.05ZM727.54 1535.82a9.61 9.61 0 0 1-1.54-1l.3.23a10 10 0 0 1-1.84-1.84l.23.3-.33-.45a1.5 1.5 0 0 0-2-.53 1.5 1.5 0 0 0-.67.89 1.44 1.44 0 0 0 .14 1.13 12 12 0 0 0 4.24 3.81 1.59 1.59 0 0 0 1.13.15 1.48 1.48 0 0 0 1-1.82 1.5 1.5 0 0 0-.68-.88ZM697.29 1523.19c-.1-.44-.19-.88-.27-1.33l-.09-.62c0-.33 0 .29 0 0v-.36a26.15 26.15 0 0 1-.15-2.65 1.49 1.49 0 0 0-1.47-1.48 1.51 1.51 0 0 0-1.48 1.48 27.37 27.37 0 0 0 .66 5.77 1.48 1.48 0 0 0 1.81 1 1.51 1.51 0 0 0 1-1.82ZM700.89 1497.56l1.29-6.93a1.48 1.48 0 1 0-2.85-.79l-1.28 6.93a1.51 1.51 0 0 0 1 1.82 1.49 1.49 0 0 0 1.81-1ZM687.78 1487.18l-2.28-4.63a1.48 1.48 0 0 0-2-.53 1.52 1.52 0 0 0-.53 2l2.28 4.63a1.48 1.48 0 0 0 2 .53 1.51 1.51 0 0 0 .53-2ZM765.06 1487.92a15.24 15.24 0 0 0 7-5.46 1.49 1.49 0 0 0-.53-2 1.51 1.51 0 0 0-2 .53l-.29.39c-.15.22.14-.17 0 0l-.15.19c-.2.24-.4.47-.61.69a13.85 13.85 0 0 1-1.39 1.27h.06l-.19.14-.4.28c-.25.17-.51.34-.77.49s-.57.31-.86.46l-.39.18c-.25.11 0 .06 0 0a.79.79 0 0 1-.27.1 1.66 1.66 0 0 0-.88.68 1.48 1.48 0 0 0 1.67 2.17ZM792.08 1459c.48-2.57.95-5.15 1.43-7.72a1.51 1.51 0 0 0-1-1.82 1.49 1.49 0 0 0-1.81 1c-.48 2.58-.95 5.15-1.43 7.73a1.51 1.51 0 0 0 1 1.81 1.49 1.49 0 0 0 1.82-1ZM830.43 1462l4.62-5.39a1.55 1.55 0 0 0 .43-1 1.48 1.48 0 0 0-2.52-1l-4.62 5.4a1.55 1.55 0 0 0-.43 1 1.48 1.48 0 0 0 2.52 1ZM836.25 1492.47h4.62a1.49 1.49 0 0 0 1.48-1.48 1.51 1.51 0 0 0-1.48-1.48h-4.62a1.48 1.48 0 0 0 0 3ZM736.38 1463.53l.77-.77a1 1 0 0 0 .31-.47 1.25 1.25 0 0 0 .13-.57 1.2 1.2 0 0 0-.13-.57 1.08 1.08 0 0 0-.31-.48l-.3-.23a1.47 1.47 0 0 0-.74-.2h-.39a1.47 1.47 0 0 0-.65.38l-.78.77a1.15 1.15 0 0 0-.3.48 1.09 1.09 0 0 0-.13.57 1.14 1.14 0 0 0 .13.57 1.12 1.12 0 0 0 .3.47l.3.23a1.41 1.41 0 0 0 .75.2h.39a1.47 1.47 0 0 0 .65-.38ZM726.62 1505.85a21.26 21.26 0 0 0 11.38-10.33 1.52 1.52 0 0 0-.53-2 1.5 1.5 0 0 0-2 .53 17.81 17.81 0 0 1-4.07 5.46 16.19 16.19 0 0 1-2.63 2c-.48.3-1 .58-1.47.83a15.11 15.11 0 0 1-1.48.67 1.52 1.52 0 0 0-1 1.81 1.5 1.5 0 0 0 1.82 1ZM773.36 1530.55l.77-.77a1.09 1.09 0 0 0 .3-.48 1 1 0 0 0 .13-.56 1 1 0 0 0-.13-.57 1.15 1.15 0 0 0-.3-.48l-.3-.23a1.49 1.49 0 0 0-.74-.2h-.4a1.53 1.53 0 0 0-.65.38l-.77.77a1.15 1.15 0 0 0-.3.48 1 1 0 0 0-.13.57 1 1 0 0 0 .13.56 1.09 1.09 0 0 0 .3.48l.3.23a1.49 1.49 0 0 0 .74.2h.4a1.53 1.53 0 0 0 .65-.38ZM698.77 1559.89a19 19 0 0 1 4.61-9.2 1.52 1.52 0 0 0 0-2.09 1.49 1.49 0 0 0-2.09 0 21.93 21.93 0 0 0-5.36 10.51 1.47 1.47 0 1 0 2.84.78ZM720.72 1570.13l7.66-5.46a1.52 1.52 0 0 0 .53-2 1.5 1.5 0 0 0-2-.53l-7.66 5.46a1.48 1.48 0 1 0 1.49 2.55ZM746.89 1578.59a9.23 9.23 0 0 0 3.68-3 9.33 9.33 0 0 0 1.72-4.46 1.45 1.45 0 0 0-.44-1 1.45 1.45 0 0 0-2.08 0 1.74 1.74 0 0 0-.44 1c.07-.49 0 .08 0 .19s-.07.33-.11.49-.09.29-.14.44a2.41 2.41 0 0 0-.16.42c.09-.19.11-.24.06-.14a.69.69 0 0 0-.05.13l-.1.2-.24.44a8.52 8.52 0 0 1-.53.8c-.11.15.24-.28 0 0l-.14.17c-.05.06-.23.25-.34.37s-.47.44-.71.64.26-.19 0 0l-.22.15-.39.25a6.74 6.74 0 0 1-.89.45 1.47 1.47 0 0 0-.53 2 1.46 1.46 0 0 0 .88.68 1.67 1.67 0 0 0 1.14-.15ZM757.61 1555.7v-2.31a1.53 1.53 0 0 0-.43-1.05 1.48 1.48 0 0 0-1-.43 1.53 1.53 0 0 0-1 .43 1.57 1.57 0 0 0-.43 1.05v2.31a1.55 1.55 0 0 0 .43 1 1.48 1.48 0 0 0 1 .43 1.44 1.44 0 0 0 1-.43 1.5 1.5 0 0 0 .43-1ZM768.85 1515.54a73 73 0 0 1 14-16.33c1.43-1.25-.66-3.33-2.09-2.08a75.61 75.61 0 0 0-14.43 16.92c-1 1.61 1.54 3.1 2.55 1.49ZM808.8 1486.94a27.41 27.41 0 0 1 14.05-9.68c1.82-.53 1-3.39-.78-2.84a30.69 30.69 0 0 0-15.82 11 1.48 1.48 0 0 0 .53 2 1.52 1.52 0 0 0 2-.53ZM857.27 1463.48l6.14-6.19a1.48 1.48 0 1 0-2.09-2.09l-6.14 6.19a1.48 1.48 0 0 0 2.09 2.09ZM920.43 1367.84a25.15 25.15 0 0 0 9.37-11 1.52 1.52 0 0 0-.53-2 1.5 1.5 0 0 0-2 .53 23.32 23.32 0 0 1-3.42 5.59 22.06 22.06 0 0 1-4.89 4.34 1.52 1.52 0 0 0-.53 2 1.48 1.48 0 0 0 2 .53ZM929.09 1390a5.4 5.4 0 0 0 4.16-5.3 1.5 1.5 0 0 0-.43-1 1.48 1.48 0 0 0-1-.43 1.5 1.5 0 0 0-1.48 1.47 3 3 0 0 1 0 .6l.05-.39a3.36 3.36 0 0 1-.26.94l.15-.35a4.53 4.53 0 0 1-.53.9l.23-.3a4.2 4.2 0 0 1-.73.73l.3-.23a3.61 3.61 0 0 1-.85.49l.35-.14a3.81 3.81 0 0 1-.68.2 1.5 1.5 0 0 0-.88.68 1.56 1.56 0 0 0-.15 1.14 1.53 1.53 0 0 0 .68.88 1.67 1.67 0 0 0 1.14.15ZM915.31 1380.06c0-1.29.07-2.57.1-3.85a1.48 1.48 0 0 0-1.47-1.48 1.51 1.51 0 0 0-1.48 1.48c0 1.28-.07 2.56-.1 3.85a1.48 1.48 0 0 0 1.48 1.47 1.5 1.5 0 0 0 1.47-1.47ZM927 1345.78a6.37 6.37 0 0 1 .36-1.2l-.15.35a6.69 6.69 0 0 1 .84-1.44l-.23.3a6.15 6.15 0 0 1 1.14-1.14l-.3.23a1.61 1.61 0 0 0 .68-.88 1.47 1.47 0 0 0-.15-1.14 1.5 1.5 0 0 0-.88-.68 1.46 1.46 0 0 0-1.14.15 7.87 7.87 0 0 0-2.05 2.2 7.56 7.56 0 0 0-1 2.5 1.55 1.55 0 0 0 .15 1.14 1.5 1.5 0 0 0 .88.68 1.47 1.47 0 0 0 1.14-.15 1.5 1.5 0 0 0 .68-.88ZM890.68 1422.4a11.11 11.11 0 0 0 .91-3 11.94 11.94 0 0 0 0-3.48 1.46 1.46 0 0 0-1.82-1 1.48 1.48 0 0 0-.88.67 1.73 1.73 0 0 0-.15 1.14c-.07-.46 0 0 0 .09V1418.75c0 .11-.08.41 0 0a12.18 12.18 0 0 1-.26 1.23c-.06.22-.12.44-.2.65l-.1.27-.07.18c.08-.2.1-.23 0-.09a1.62 1.62 0 0 0-.15 1.14 1.5 1.5 0 0 0 .68.88 1.49 1.49 0 0 0 2-.53ZM907.4 1408.07l1.54-1.54a1.22 1.22 0 0 0 .3-.48 1.09 1.09 0 0 0 .13-.57 1.14 1.14 0 0 0-.13-.57 1.12 1.12 0 0 0-.3-.47 1.47 1.47 0 0 0-1.05-.43h-.39a1.47 1.47 0 0 0-.65.38l-1.54 1.54a1 1 0 0 0-.31.47 1.13 1.13 0 0 0-.12.57 1.09 1.09 0 0 0 .12.57 1.14 1.14 0 0 0 .31.48 1.46 1.46 0 0 0 1 .43h.4a1.53 1.53 0 0 0 .65-.38ZM918.35 1431.34l8.44 2.43a1.47 1.47 0 0 0 .78-2.84l-8.44-2.43a1.48 1.48 0 0 0-1.81 1 1.5 1.5 0 0 0 1 1.81ZM898.26 1469.3l8.46 1.57a1.52 1.52 0 0 0 1.82-1 1.49 1.49 0 0 0-1-1.81l-8.47-1.58a1.5 1.5 0 0 0-1.81 1 1.49 1.49 0 0 0 1 1.82ZM893.27 1454.45l.75-2.32a1.47 1.47 0 0 0-.15-1.14 1.53 1.53 0 0 0-.88-.68 1.56 1.56 0 0 0-1.14.15 1.68 1.68 0 0 0-.68.89l-.75 2.31a1.56 1.56 0 0 0 .15 1.14 1.5 1.5 0 0 0 .88.68 1.46 1.46 0 0 0 1.14-.15 1.58 1.58 0 0 0 .68-.88ZM864.76 1504.78a16.55 16.55 0 0 0 7.32-.81 1.48 1.48 0 0 0-.78-2.85 15.29 15.29 0 0 1-1.72.5l-.76.15h-.62a15.22 15.22 0 0 1-3.44 0 1.49 1.49 0 0 0-1.48 1.48 1.52 1.52 0 0 0 1.48 1.48ZM876.25 1479.43v-1.54a1.25 1.25 0 0 0-.13-.57 1 1 0 0 0-.31-.47 1.53 1.53 0 0 0-1-.43h-.39a1.57 1.57 0 0 0-.66.38 1.55 1.55 0 0 0-.43 1v1.54a1.09 1.09 0 0 0 .13.57 1.15 1.15 0 0 0 .3.48 1.22 1.22 0 0 0 .48.3 1 1 0 0 0 .57.13l.39-.05a1.47 1.47 0 0 0 .65-.38 1.54 1.54 0 0 0 .44-1ZM837.79 1473.21a1.48 1.48 0 0 0 0-3 1.48 1.48 0 0 0 0 3ZM810.9 1446.31v6.16a1.49 1.49 0 0 0 1.47 1.48 1.51 1.51 0 0 0 1.48-1.48v-6.16a1.48 1.48 0 1 0-3 0ZM807.19 1471l-2.3 3.86a1.48 1.48 0 0 0 2.55 1.49l2.3-3.86a1.48 1.48 0 1 0-2.55-1.49ZM824.37 1507.5l6.21 5.34a1.52 1.52 0 0 0 2.09 0 1.5 1.5 0 0 0 0-2.09l-6.21-5.34a1.48 1.48 0 1 0-2.09 2.09ZM886.09 1510.24l1.54-2.31a1.09 1.09 0 0 0 .18-.55 1.19 1.19 0 0 0 0-.59 1.5 1.5 0 0 0-.68-.88 1.51 1.51 0 0 0-1.14-.15 1.7 1.7 0 0 0-.88.68l-1.54 2.31a1 1 0 0 0-.17.55 1.08 1.08 0 0 0 0 .59 1.53 1.53 0 0 0 .68.88 1.47 1.47 0 0 0 1.14.15 1.57 1.57 0 0 0 .88-.68ZM638.32 1486.84l6.26 2.86a1.52 1.52 0 0 0 2-.53 1.5 1.5 0 0 0-.53-2l-6.26-2.86a1.51 1.51 0 0 0-2 .53 1.49 1.49 0 0 0 .53 2ZM652.92 1501a26.48 26.48 0 0 1-.56 9.64 1.48 1.48 0 1 0 2.85.79 29.09 29.09 0 0 0 .67-10.43 1.53 1.53 0 0 0-1.48-1.48 1.5 1.5 0 0 0-1.48 1.48ZM630.57 1537.14a1.48 1.48 0 0 0 0-3 1.48 1.48 0 0 0 0 3ZM650.6 1532.52h3.85a1.49 1.49 0 0 0 1.48-1.47 1.51 1.51 0 0 0-1.48-1.48h-3.85a1.48 1.48 0 0 0 0 3ZM644.5 1554.93v2.31a1.51 1.51 0 0 0 .44 1 1.47 1.47 0 0 0 2.08 0 1.51 1.51 0 0 0 .44-1v-2.31a1.54 1.54 0 0 0-.44-1 1.47 1.47 0 0 0-2.08 0 1.54 1.54 0 0 0-.44 1ZM629.8 1581.18h-9.24a1.48 1.48 0 1 0 0 3h9.24a1.49 1.49 0 0 0 1.48-1.48 1.51 1.51 0 0 0-1.48-1.48ZM621.15 1556.49c1.27-2.32 2.55-4.63 3.83-7a1.48 1.48 0 1 0-2.55-1.49c-1.28 2.32-2.56 4.63-3.83 7a1.48 1.48 0 0 0 2.55 1.49ZM641.61 1610.64l4.63-3.84a1.47 1.47 0 0 0 .43-1 1.5 1.5 0 0 0-.43-1 1.46 1.46 0 0 0-1-.43 1.64 1.64 0 0 0-1.05.43l-4.63 3.84a1.46 1.46 0 0 0-.43 1 1.53 1.53 0 0 0 .43 1.05 1.5 1.5 0 0 0 1 .43 1.7 1.7 0 0 0 1.05-.43ZM654.39 1586.51V1575a1.48 1.48 0 0 0-2.95 0v11.55a1.48 1.48 0 0 0 2.95 0ZM651.31 1461v-4.63a1.48 1.48 0 0 0-2.95 0v4.63a1.48 1.48 0 0 0 1.47 1.47 1.5 1.5 0 0 0 1.48-1.47ZM668.59 1549.81l2.31-2.31a1.54 1.54 0 0 0 .44-1 1.49 1.49 0 0 0-1.48-1.47 1.5 1.5 0 0 0-1 .43l-2.31 2.31a1.53 1.53 0 0 0-.44 1 1.48 1.48 0 0 0 .44 1 1.46 1.46 0 0 0 1 .43 1.55 1.55 0 0 0 1-.43ZM620 1616l4.62-4.63a1.49 1.49 0 0 0 0-2.09 1.51 1.51 0 0 0-2.09 0l-4.61 4.63A1.47 1.47 0 0 0 620 1616ZM641.74 1634.92a7 7 0 0 0 3.28-.21 7.14 7.14 0 0 0 2.78-1.7 1.48 1.48 0 0 0-2.09-2.09 6.17 6.17 0 0 1-.54.48l.3-.23a5.56 5.56 0 0 1-1.18.68l.35-.14a6.09 6.09 0 0 1-1.39.38l.39-.06a5.7 5.7 0 0 1-1.37 0h.4-.15a1.62 1.62 0 0 0-1.14.15 1.52 1.52 0 0 0-.67.88 1.47 1.47 0 0 0 .15 1.14 1.43 1.43 0 0 0 .88.68ZM660.55 1615.78v-.78a1.53 1.53 0 0 0-.43-1 1 1 0 0 0-.48-.31 1.07 1.07 0 0 0-.56-.12h-.4a1.53 1.53 0 0 0-.65.38l-.23.3a1.49 1.49 0 0 0-.2.74v.77a1 1 0 0 0 .13.57 1.22 1.22 0 0 0 .3.48 1.15 1.15 0 0 0 .48.3 1.09 1.09 0 0 0 .57.13h.39a1.47 1.47 0 0 0 .65-.38l.23-.3a1.5 1.5 0 0 0 .2-.75ZM627.43 1645.06v-4.63a1.48 1.48 0 0 0-2.95 0v4.63a1.48 1.48 0 0 0 1.47 1.47 1.5 1.5 0 0 0 1.48-1.47ZM644.76 1665.42a16 16 0 0 0 5-6.87 1.47 1.47 0 0 0-1-1.81 1.53 1.53 0 0 0-1.82 1l-.09.23c0 .09-.16.29 0 0-.07.13-.12.28-.19.42s-.28.57-.43.84a14.19 14.19 0 0 1-1 1.61 1 1 0 0 0-.12.16c.18-.3.07-.1 0 0l-.29.34c-.2.24-.42.48-.64.71a15.05 15.05 0 0 1-1.46 1.3 1.44 1.44 0 0 0-.43 1 1.53 1.53 0 0 0 .43 1.05 1.5 1.5 0 0 0 1 .43 1.78 1.78 0 0 0 1-.43ZM669 1593.44v-4.62a1.48 1.48 0 1 0-3 0v4.62a1.49 1.49 0 0 0 1.48 1.48 1.51 1.51 0 0 0 1.48-1.48ZM670.31 1407.79v-7.7a1.48 1.48 0 1 0-2.95 0v7.7a1.49 1.49 0 0 0 1.47 1.48 1.51 1.51 0 0 0 1.48-1.48ZM681.09 1378.93c.33-1.21.65-2.41 1-3.61a1.48 1.48 0 0 0-2.85-.79l-1 3.61a1.51 1.51 0 0 0 .15 1.14 1.47 1.47 0 0 0 .88.68 1.49 1.49 0 0 0 1.81-1ZM672.94 1494.52a1.48 1.48 0 0 0 0-3 1.48 1.48 0 0 0 0 3ZM704.27 1475.52a1.48 1.48 0 0 0 0-3 1.48 1.48 0 0 0 0 3ZM767.31 1575.28a1.48 1.48 0 0 0 0-3 1.48 1.48 0 0 0 0 3ZM699.13 1583.36a1.48 1.48 0 0 0 0-2.95 1.48 1.48 0 0 0 0 2.95Z"/><path fill="#2b1710" d="m685.52 1310.47-3.33-7.44c-31.2-14.64-42-73.57-6.55-90.13s50.45-2.7 60.47-4.62 20.16 6.93 13.35 16.17-51.1 89.75-51.1 89.75Z"/><path fill="#ff8762" d="M758.45 1335.13c-5.61 4.83-20.8-2.32-20.8-2.32s-10.78 18.75-3.08 39.29c0 0-21.57-9.76-55.21-8.47 1-2.06 10.53-38.26 6.16-53.16 0 0 8.48-2 10.53-15.4a21.13 21.13 0 0 1-11.55-14.38c-2.57-10.79 9.24-24.4 23.62-9.5 0 0 3.08-32.61 41.34-46.74 10.27 10.28 10.79 22.09 10 30.3s-1 20.29.51 22.6 11.3 8.73 11.55 9.5c-1.79 2.57-6.16 4.62-6.93 6.16-1.28 3.6-.87 8.48.29 9.73.67 2.5-1.73 6.84-1.73 6.84 1.35 5 .09 7.12.09 7.12-1.63.58-2.79 1.35-2.69 6.26s-.46 10.75-2.1 12.17Z"/><path fill="#e64067" d="M763.17 1309.58s2.4-4.34 1.73-6.84c0 0-8.63-.23-21.73 3.5 0 0 5.78 9.76 20.09 10.46 0 0 1.26-2.12-.09-7.12Z"/><path d="M700.87 1291.58c-3.5-.18-6.16-1.73-7.29-4.24a6.7 6.7 0 0 1 .92-6.84 7.57 7.57 0 0 1 7.11-2.56c-.8-1.62-2.87-5.17-6-6.11-1.88-.57-3.89-.1-6 1.36a.48.48 0 0 1-.68-.11.5.5 0 0 1 .12-.69c2.34-1.65 4.64-2.16 6.82-1.51 4.55 1.37 6.92 7.26 7 7.51a.51.51 0 0 1-.09.5.48.48 0 0 1-.47.16c-3-.6-5.54.15-7.07 2.06a5.68 5.68 0 0 0-.79 5.83c1 2.19 3.27 3.49 6.44 3.66a.49.49 0 0 1 0 1ZM735 1332.79a.43.43 0 0 1-.19 0c-.1 0-10.51-4.48-18.33-8.68-8.56-4.6-12.43-12.36-13.36-26.79a.49.49 0 0 1 .46-.52.48.48 0 0 1 .52.46c.9 14 4.62 21.57 12.84 26 7.79 4.18 18.15 8.6 18.26 8.65a.49.49 0 0 1 .26.64.5.5 0 0 1-.46.24Z" style="mix-blend-mode:multiply" fill="#e0b3a8"/><path fill="#2b1710" d="M759.57 1310.09c-16.24 0-18.26-5.13-18.34-5.36a.48.48 0 0 1 .3-.62.49.49 0 0 1 .63.29s2.19 5 19.17 4.68a.5.5 0 0 1 0 1Z"/><path d="M686.42 1402.89a.49.49 0 0 1-.3-.1.5.5 0 0 1-.09-.69c15.85-20.48 41.25-24.48 51-21a.49.49 0 0 1 .29.63.5.5 0 0 1-.63.3c-9.52-3.43-34.35.53-49.9 20.63a.47.47 0 0 1-.37.23ZM787 1508a.45.45 0 0 1-.2 0c-.48-.22-48.13-21.84-75.59-43.2a.48.48 0 0 1-.09-.69.5.5 0 0 1 .69-.09c27.37 21.29 74.92 42.87 75.39 43.08a.49.49 0 0 1 .25.65.48.48 0 0 1-.45.25ZM865.91 1459.51a.48.48 0 0 1-.48-.4 130.72 130.72 0 0 0-4.09-14.92c-2-6.23-2.34-7.61-1.54-8.06.59-.33 1.27.26 2.25 1.38 5 5.72 9.2 10.74 9.24 10.79a.49.49 0 1 1-.75.64s-4.29-5.07-9.24-10.78a7.59 7.59 0 0 0-.91-.94 53.65 53.65 0 0 0 1.89 6.67 131.16 131.16 0 0 1 4.11 15 .48.48 0 0 1-.39.57ZM944.1 1345.12a.52.52 0 0 1-.29-.09 225 225 0 0 0-22.28-13.45.5.5 0 0 1-.21-.67.49.49 0 0 1 .67-.2 228.86 228.86 0 0 1 22.39 13.51.5.5 0 0 1-.28.9ZM709.92 1884.74a.49.49 0 0 1-.48-.51c0-1 1.91-96.85.77-146-1-44.49-.06-95.63 15-137.69a.49.49 0 1 1 .92.34c-15 41.9-16 92.93-15 137.32 1.14 49.13-.75 145-.77 146a.5.5 0 0 1-.44.54Z" style="mix-blend-mode:multiply" fill="#d1d1d1"/><path d="M719.93 1634.38a.5.5 0 0 1 0-1c14.73-.34 28.82-3.16 39.22-33.56a.49.49 0 0 1 .93.32c-9.6 28.07-22 33.81-40.13 34.23Z" style="mix-blend-mode:multiply" fill="#d1d1d1"/><ellipse cx="743.33" cy="1273.9" fill="#2b1710" rx="3.76" ry="5.83"/><path fill="#2b1710" d="M730.33 1261.05a43.82 43.82 0 0 1 21.06-8.86c-6.94-5.52-18.11-1.93-21.06 8.86Z"/><path fill="#f8f2e7" d="M713.51 1297.12a5.91 5.91 0 1 1-5.9-5.9 5.91 5.91 0 0 1 5.9 5.9Z"/><circle cx="667.93" cy="1190.56" r="30.04" fill="#2b1710" transform="rotate(-13.28 668.092 1190.786)"/><path fill="#ff8762" d="M923.3 1321.13s-1-38.64-1-43.52 21.83-46.74 23.37-47.25c4.62 6.42-4.62 29.53-1.54 33.38s20.54 16.43 19.51 22.85-4.62 10.79-4.62 17.47-5.13 16.43-7.19 21.82a60.5 60.5 0 0 1-4.62 9.5Z"/><path fill="#361d14" d="M678.33 2306c7.6 3.49 129.92 0 129.92 0-4.12-5.07-28.52-20.91-57-31-2.39-.85-4.58-1.67-6.6-2.46-13.07 8-4.66 17.58-23.91 20.42-23.23 3.43-27.64-4.82-45.24-13.19-4.19 13.53-2.68 23.7 2.83 26.23Z"/><path fill="#83dedb" d="M1334.13 987.71a2.89 2.89 0 0 1-1.22-.27l-217.21-100a2.94 2.94 0 0 1 0-5.33l217.21-100a2.91 2.91 0 0 1 2.45 0l217.2 100a2.93 2.93 0 0 1 0 5.33l-217.2 100a2.93 2.93 0 0 1-1.23.27Zm-210.2-103 210.2 96.81 210.21-96.81-210.21-96.82ZM1334.13 1227.89a2.88 2.88 0 0 1-1.22-.26l-217.21-100.05a2.93 2.93 0 0 1 2.45-5.32l216 99.48 216-99.48a2.93 2.93 0 1 1 2.45 5.32l-217.2 100.05a2.92 2.92 0 0 1-1.27.26ZM1116.36 1114.61a2.93 2.93 0 0 1-2.93-2.93V898.62a2.93 2.93 0 0 1 5.86 0v213.06a2.93 2.93 0 0 1-2.93 2.93Z"/><path fill="#83dedb" d="M1334.13 1215.47a2.93 2.93 0 0 1-2.93-2.93V999.48a2.93 2.93 0 1 1 5.86 0v213.06a2.93 2.93 0 0 1-2.93 2.93ZM1550.76 1112.89a2.93 2.93 0 0 1-2.93-2.93V896.9a2.93 2.93 0 1 1 5.86 0V1110a2.93 2.93 0 0 1-2.93 2.89Z"/><circle cx="1117.5" cy="888.36" r="10.89" fill="#71bfbd" transform="rotate(-76.72 1117.456 888.36)"/><circle cx="1116.36" cy="1120.28" r="10.89" fill="#71bfbd" transform="rotate(-45 1116.364 1120.277)"/><circle cx="1333.75" cy="989.61" r="10.89" fill="#71bfbd" transform="rotate(-45 1333.747 989.604)"/><circle cx="1334.13" cy="1219.23" r="10.89" fill="#71bfbd"/><circle cx="1550.38" cy="1118.75" r="10.89" fill="#71bfbd"/><circle cx="1551.53" cy="889.51" r="10.89" fill="#71bfbd"/><circle cx="1334.51" cy="784.44" r="10.89" fill="#71bfbd" transform="rotate(-22.5 1334.517 784.445)"/><path fill="#f3ce7d" d="M211.4 2307.32h2386.87a22 22 0 0 1 22 22v67.9H189.4v-67.9a22 22 0 0 1 22-22Z"/></g></svg>