<svg xmlns="http://www.w3.org/2000/svg" width="819.341" height="604.891" enable-background="new 0 0 900 900" viewBox="40.407 147.504 819.341 604.891"><path fill="#f8f9fe" d="M768.8 686.7c-19.6 10.8-51.4 10.8-71.1 0-19.7-10.8-19.8-28.2-.2-38.9s51.4-10.8 71.1 0c19.7 10.7 19.8 28.1.2 38.9z"/><linearGradient id="a" x1="83.922" x2="110.053" y1="680.252" y2="680.252" gradientTransform="matrix(1.2925 -.0024 .0018 1 388.921 3.316)" gradientUnits="userSpaceOnUse"><stop offset="0" stop-color="#f1eff6"/><stop offset="1" stop-color="#b6bce1" stop-opacity="0"/></linearGradient><path fill="url(#a)" d="M532.4 675.4v15.8h-33.8v-15.7z"/><linearGradient id="b" x1="226.471" x2="252.602" y1="573.57" y2="573.57" gradientTransform="matrix(1.2925 -.0024 .0018 1 388.921 3.316)" gradientUnits="userSpaceOnUse"><stop offset="0" stop-color="#f1eff6"/><stop offset="1" stop-color="#b6bce1" stop-opacity="0"/></linearGradient><path fill="url(#b)" d="M716.4 568.4v15.7l-33.7.1-.1-15.7z"/><g opacity=".7"><linearGradient id="c" x1="429.421" x2="462.868" y1="681.065" y2="681.065" gradientUnits="userSpaceOnUse"><stop offset="0" stop-color="#f1eff6"/><stop offset=".674" stop-color="#4746a4" stop-opacity=".293"/><stop offset="1" stop-color="#000082" stop-opacity="0"/></linearGradient><path fill="url(#c)" d="M458 687.9c-.9.5-4.5-.6-8.8-2.6-.5 3.2-1.7 5.5-3 5.5-.2 0-.4-.1-.7-.2-1-.6-1.9-2.6-2.4-5.3-4.3 2.1-7.9 3.2-8.8 2.6-.9-.5 1-2.6 4.5-5.1-4.6-.3-8.1-.8-9.1-1.4-.2-.1-.3-.3-.3-.4 0-.8 3.9-1.4 9.4-1.7-3.6-2.5-5.5-4.6-4.6-5.1.9-.5 4.5.6 8.8 2.6.5-3.2 1.7-5.5 3-5.5.2 0 .4.1.7.2 1 .6 1.9 2.6 2.4 5.3 4.3-2.1 7.9-3.2 8.8-2.6.9.5-1 2.6-4.5 5.1 4.6.3 8.1.8 9.1 1.4.2.1.3.3.3.4 0 .8-3.8 1.4-9.4 1.7 3.6 2.5 5.5 4.6 4.6 5.1zm-14.2-5.5c1.3.8 3.4.8 4.7 0 1.3-.8 1.3-2 0-2.7-1.3-.8-3.4-.8-4.7 0-1.3.8-1.3 2 0 2.7"/></g><g opacity=".7"><linearGradient id="d" x1="342.872" x2="376.319" y1="709.646" y2="709.646" gradientUnits="userSpaceOnUse"><stop offset="0" stop-color="#f1eff6"/><stop offset=".674" stop-color="#4746a4" stop-opacity=".293"/><stop offset="1" stop-color="#000082" stop-opacity="0"/></linearGradient><path fill="url(#d)" d="M371.5 716.5c-.9.5-4.5-.6-8.8-2.6-.5 3.2-1.7 5.5-3 5.5-.2 0-.4-.1-.7-.2-1-.6-1.9-2.6-2.4-5.3-4.3 2.1-7.9 3.2-8.8 2.6-.9-.5 1-2.6 4.5-5.1-4.6-.3-8.1-.8-9.1-1.4-.2-.1-.3-.3-.3-.4 0-.8 3.9-1.4 9.4-1.7-3.6-2.5-5.5-4.6-4.6-5.1.9-.5 4.5.6 8.8 2.6.5-3.2 1.7-5.5 3-5.5.2 0 .4.1.7.2 1 .6 1.9 2.6 2.4 5.3 4.3-2.1 7.9-3.2 8.8-2.6.9.5-1 2.6-4.5 5.1 4.6.3 8.1.8 9.1 1.4.2.1.3.3.3.4 0 .8-3.8 1.4-9.4 1.7 3.6 2.5 5.5 4.6 4.6 5.1zm-14.3-5.5c1.3.8 3.4.8 4.7 0 1.3-.8 1.3-2 0-2.7-1.3-.8-3.4-.8-4.7 0-1.3.7-1.3 2 0 2.7"/></g><g opacity=".7"><linearGradient id="e" x1="194.425" x2="227.872" y1="560.111" y2="560.111" gradientUnits="userSpaceOnUse"><stop offset="0" stop-color="#f1eff6"/><stop offset=".674" stop-color="#4746a4" stop-opacity=".293"/><stop offset="1" stop-color="#000082" stop-opacity="0"/></linearGradient><path fill="url(#e)" d="M223 567c-.9.5-4.5-.6-8.8-2.6-.5 3.2-1.7 5.5-3 5.5-.2 0-.4-.1-.7-.2-1-.6-1.9-2.6-2.4-5.3-4.3 2.1-7.9 3.2-8.8 2.6-.9-.5 1-2.6 4.5-5.1-4.6-.3-8.1-.8-9.1-1.4-.2-.1-.3-.3-.3-.4 0-.8 3.9-1.4 9.4-1.7-3.6-2.5-5.5-4.6-4.6-5.1.9-.5 4.5.6 8.8 2.6.5-3.2 1.7-5.5 3-5.5.2 0 .4.1.7.2 1 .6 1.9 2.6 2.4 5.3 4.3-2.1 7.9-3.2 8.8-2.6.9.5-1 2.6-4.5 5.1 4.6.3 8.1.8 9.1 1.4.2.1.3.3.3.4 0 .8-3.8 1.4-9.4 1.7 3.6 2.5 5.5 4.5 4.6 5.1zm-14.2-5.5c1.3.8 3.4.8 4.7 0 1.3-.8 1.3-2 0-2.7-1.3-.8-3.4-.8-4.7 0-1.3.7-1.3 1.9 0 2.7"/></g><g opacity=".7"><linearGradient id="f" x1="137.974" x2="171.421" y1="621.845" y2="621.845" gradientUnits="userSpaceOnUse"><stop offset="0" stop-color="#f1eff6"/><stop offset=".674" stop-color="#4746a4" stop-opacity=".293"/><stop offset="1" stop-color="#000082" stop-opacity="0"/></linearGradient><path fill="url(#f)" d="M166.6 628.7c-.9.5-4.5-.6-8.8-2.6-.5 3.2-1.7 5.5-3 5.5-.2 0-.4-.1-.7-.2-1-.6-1.9-2.6-2.4-5.3-4.3 2.1-7.9 3.2-8.8 2.6-.9-.5 1-2.6 4.5-5.1-4.6-.3-8.1-.8-9.1-1.4-.2-.1-.3-.3-.3-.4 0-.8 3.9-1.4 9.4-1.7-3.6-2.5-5.5-4.6-4.6-5.1.9-.5 4.5.6 8.8 2.6.5-3.2 1.7-5.5 3-5.5.2 0 .4.1.7.2 1 .6 1.9 2.6 2.4 5.3 4.3-2.1 7.9-3.2 8.8-2.6.9.5-1 2.6-4.5 5.1 4.6.3 8.1.8 9.1 1.4.2.1.3.3.3.4 0 .8-3.8 1.4-9.4 1.7 3.6 2.5 5.5 4.6 4.6 5.1zm-14.3-5.5c1.3.8 3.4.8 4.7 0 1.3-.8 1.3-2 0-2.7-1.3-.8-3.4-.8-4.7 0-1.3.7-1.3 2 0 2.7"/></g><linearGradient id="g" x1="-3795.197" x2="-3663.143" y1="798.62" y2="824.306" gradientTransform="matrix(.4341 .0431 -.1194 .4209 2236.4 207.514)" gradientUnits="userSpaceOnUse"><stop offset="0" stop-color="#f1eff6"/><stop offset=".674" stop-color="#4746a4" stop-opacity=".293"/><stop offset="1" stop-color="#000082" stop-opacity="0"/></linearGradient><path fill="url(#g)" d="M550.2 394c-.9-4.9-17.1-11.2-28.9-14.1v17.3c2 .6 4 1.1 6.1 1.5 11.7 2.2 23.7-.2 22.8-4.7z" opacity=".7"/><linearGradient id="h" x1="140.379" x2="272.432" y1="3029.276" y2="3054.963" gradientTransform="matrix(.406 .02166 -.3931 .2115 1609.194 -271.527)" gradientUnits="userSpaceOnUse"><stop offset="0" stop-color="#f1eff6"/><stop offset=".674" stop-color="#4746a4" stop-opacity=".293"/><stop offset="1" stop-color="#000082" stop-opacity="0"/></linearGradient><path fill="url(#h)" d="M519.3 378.6c2.2-2.4-9.8-5.6-19.8-7.1l-11.2 8.7c1.6.3 3.3.5 5.1.7 10.4 1.2 23.9 0 25.9-2.3z" opacity=".7"/><path fill="#939fbc" d="M520.2 381.4s-5.8 10.3-3.7 13.7c2.2 3.4 10.1 3.9 11.8-2.9 1.7-6.8 1.6-8.5 2.3-10.1.8-1.6-2.6-4.5-2.9-4.5l-7.5 3.8zM498.7 367.6s-13 5.7-12.3 10.3c.7 4.6 9.1 2.2 12 0 2.9-2.2 4.6-3 7.4-2.6 2.8.4 6.8-.8 6.9-3.2 0-2.4-1.2-4.7-1.2-4.7l-6.4-3.8-6.4 4z"/><path fill="#f4d6d4" d="M452.5 228c-.8 3.5-6.2 4.6-13.3 2.2-4.5-1.5 0-7.9 0-7.9s-6.3-1.2-5.7-2.8c.9-2.6 8-.4 10.5.4.2.1.3-.1.2-.2-2-1.7-1.2-2.7-.1-3 1.3-.4 2.6 2.2 4.7 4.1 2.2 1.9 4.4 3.7 3.7 7.2z"/><path fill="#bf7d5a" d="M501.9 182s1.5 2 4.2 4.1c3.3 2.6 8.3 5.2 14.3 4 3.4 2.6 0 9.4 0 9.4h1.6s2.8-6.1 5-3.7c2.3 2.3-2.6 8.2-2.6 8.2l1.5 5.4s11.3-19.7 5.4-25.2c0 0-1.8-9.3-11.2-9.2-9.4.2-12.6 6.8-18.2 7z"/><path fill="#aa6256" d="M521.3 192.8c-.2-.7-.5-1.3-1-1.8.5.5.8 1.1 1 1.8z"/><path fill="#f5c9c6" d="M510.9 210.9c-.2 2 .4 4.5 1.5 6.1 0 0 10 3.2 14.4-4.3l-1.3-4.9-1-3.7s-.9.8-2.3 1.8c-2.5 1.8-6.7 4.5-10.8 5-.1-.1-.5 0-.5 0z"/><path fill="#111d33" d="M511.6 367.5c-6.3 2.9-9 3.2-14.4.8 0 0-1.6-29.4-5.1-53.4s2.4-38.3 2.4-38.3l13.8 1.5 5.5 41.6-2.2 47.8z"/><path fill="#fff" d="M525.5 213.4s-5 6.7-5 6.8c0 .1-2.7 10.9-3 11.1-.2.2-7.7 11.7-7.7 11.7l-6.7 5.1s-2-3.1-2-3.2c0-.2-.2-13.1-.1-13.2.1-.2 5-18.9 5-18.9 4.3 8 11.4 7.3 19.5.6z"/><path fill="#f45170" d="m512.3 217-4 3.1 1 2.6-7.4 17.2 1.2 5.5 2.9-4 5.2-18.3 2.3-1.6z"/><path fill="#4c5c75" d="M535.2 294s-5.7 24.5-3.9 41.3c1.8 16.9 3 33-.6 46.7-4 2.5-7 1.2-10.6-.3 0 0-15.7-83.7-15.2-89.3s30.3 1.6 30.3 1.6z"/><path fill="#7e5af2" d="M510.7 206.6c-7.8 17.5-13.5 32-26.9 38.8-1.4.7-3 1.1-4.5 1.1-.7 0-1.4-.2-2.1-.4-8.2-2.4-20.7-8.6-28.5-13.9-.8-.2 1.6-10.9 2.3-10.8l25.1 8.9c.8.3 1.8 0 2.3-.7 3.2-4.5 14.7-19.8 22.2-21.8l10.1-1.2z"/><path fill="#b28afd" d="M500.6 233.7c-.3.2 1.2 8.5 2.4 11.9.1.4-1.2 9.7-1.2 9.7l3.6 3.9-2.7 32.6-.3.6c-1.4 2.1-4.3 1.6-8.5.7-4.6-1-4.2-7.3-4.2-7.3s.9-15.6 2.5-23.6c.7-3.5 1.1-12.8 1.4-22.6-.5-8.7-.3-16.9 1.1-24.4.7-3.5 3-6.5 6.3-7.7 4.4-1.7 9.8-2.4 9.8-2.4l-5 6s-2 11.3-2.3 11.3c-.2.2-2.7 11.1-2.9 11.3z"/><path fill="#7e5af2" d="m505.5 259.3-2.7 32.6-.3.6s-.1-.1-.1-.2l-.7-36.5 1.4-10.1 2.4 13.6z"/><path fill="#b28afd" d="M534.6 295.9c-5.6 2.1-24.3 6.7-31.8-4l.3-45.7c.6.2 15-26 24.9-38.9l3.3 5.2s11.3 9.1 11.7 11.6c.4 2.6-8.8 20.6-9.8 28.2-1 7.2.1 31.8 2.6 41.4.2.9-.3 1.9-1.2 2.2z"/><path fill="#dedffb" d="M529 208.6c-.2-.8-.8-1.4-1.4-1.8l-1.1-.8s-6.1 10.3-14.2 11l1.4 5.2s9.3-2.9 13.3-7.5c2.3-2.8 2.3-4.9 2-6.1zM512.3 217s-2.3-4.9-1.2-11.7l-5.1 8.3c.2 2.5.9 4.7 2.1 6.7l4.2-3.3z"/><path fill="#7e5af2" d="M525.8 223.3H521l2.7 4-20.6 19c-.6-1.6 13-25.4 25.1-36.2.8-.7.8-1.8.1-2.7l-1-.8.7-1.4s1 .6 1.2.9c2.2 2.7 2.6 6.3.9 9.3l-4.3 7.9z"/><path fill="#7e5af2" d="M503.2 245.9c-2.1-13.4 5.9-40.3 5.9-40.3-8.1-2.2-10.3 10.4-10.3 10.4l3.4 2.5-3.8 1.1c-.9 9.1 3.1 21.3 4.7 26.6l.1-.3z"/><path fill="#f4d6d4" d="M524.4 204s-.9.8-2.3 1.8c-2.5 1.8-6.7 4.5-10.8 5h-.2c-1.2.1-2.4.2-3.6-.2-5.4-1.8-3.7-21.9-1.6-24.5 3.3 2.6 8.4 5.2 14.3 4 .1.1.3.2.4.4.5.5.8 1.1 1 1.8.8 3.1-1.3 7.3-1.3 7.3h1.6s2.8-6.1 5-3.7c2.4 2.2-2.5 8.1-2.5 8.1z"/><path fill="#aa6256" d="M520.3 190.1s5.5-.4 11-5.9c-3.4 2.1-7.1 4.1-11 5.9z"/><path fill="#bf7d5a" d="M527 199.9c-.9 2.1-2.6 4.1-2.6 4.1l1.5 5.4s2.5-4.3 4.5-9.5H527z"/><path fill="#f8f9fe" d="m511.7 276.4-19-6.6-8.9-33.1 19.4 8.3z"/><path fill="#f1f6fa" d="m497.8 243.8-6.9-2.6-.5-2.6 6.8 2.9z"/><path fill="#f4d6d4" d="M513.5 263.4s-2.6.5-3.5.6c-11.6 2-14.4-6.7-11.3-9.3 1.5-1.2 3.5 3.1 4.8 3.8 1.4.9 3.3.4 3.4-.8.1-1-1.1-.8-.9-2.5.1-1.2 3.6-.3 4.7.4s1.6 2.6 1.6 2.6l1.2 5.2z"/><path fill="#7e5af2" d="M539 263.2c-5.3 4.4-28.2 1.3-28.2 1.3-.6 0 0-8.9.6-8.9l17.8-2.5c.6-.1 1.1-.6 1.2-1.2.4-3.7 1.6-16 2.3-23.4.7-8.7 7.5-6.6 7.5-6.6 10 1.6 3.9 36.9-1.2 41.3z"/><path fill="#e9e7fc" d="m679.7 369.1-.1 74-40.5 23.6-32-18.5.2-89.4 40.5-23.5 21.7 12.5z"/><path fill="#e9e7fc" d="m639.2 392.6 40.5-23.5-.1 74-40.5 23.6z"/><path fill="#f3f1fc" d="m679.7 369.1-40.5 23.5-10.2-21.3 40.5-23.5z"/><path fill="#4c5c75" d="m631.5 372.1 37.1-21.5 8.6 17.7-37.1 21.6z"/><path fill="#e9e7fc" d="m607.3 358.8 40.5-23.5 21.7 12.5-40.5 23.5z"/><path fill="#c9cee2" d="m629 371.3 10.2 21.3-.1 74.1-32-18.5.2-89.4z"/><path fill="#df3260" d="m667.4 392.1-6.6 11.4-2.9-1.7c-.8-.5-1.4-1.5-1.4-3 0-3 2.1-6.6 4.7-8.1 1.3-.8 2.5-.8 3.3-.3l2.9 1.7z"/><path fill="#f45170" d="M664.1 392.4c2.6-1.5 4.7-.3 4.7 2.7 0 2.9-2.1 6.5-4.7 8s-4.7.3-4.7-2.6c0-3 2.1-6.6 4.7-8.1z"/><path fill="#dedffb" d="m643.3 385.1-.9.2c-.9.2-1.9-.4-2.4-1.5-.6-1.3-.2-2.9.9-3.5.2-.1.3-.2.5-.2l.9-.2 1 5.2z"/><path fill="#f3f1fc" d="M641.7 380c1-.6 2.4 0 3 1.3s.2 2.9-.8 3.5c-1.1.6-2.4 0-3-1.3s-.3-2.9.8-3.5z"/><path fill="#dedffb" d="m640.1 377.9-.9.2c-.9.2-2-.4-2.4-1.5-.6-1.3-.2-2.9.9-3.5.2-.1.4-.2.5-.2l.9-.2 1 5.2z"/><path fill="#f3f1fc" d="M638.5 372.8c1-.6 2.4 0 3 1.3.6 1.3.2 2.9-.8 3.5-1.1.6-2.4 0-3-1.3-.6-1.3-.2-2.9.8-3.5z"/><path fill="#ffd06c" d="m650.2 381.1-.9.2c-.9.2-1.9-.4-2.4-1.5-.6-1.4-.2-2.9.8-3.5.2-.1.3-.2.5-.2l.9-.2 1.1 5.2z"/><ellipse cx="649.6" cy="378.4" fill="#ffde9b" rx="2.2" ry="2.7" transform="rotate(-11.275 649.626 378.375)"/><path fill="#ffd06c" d="m647 373.9-.9.2c-.9.2-1.9-.4-2.4-1.5-.6-1.3-.2-2.9.8-3.5.2-.1.4-.2.6-.2l.9-.2 1 5.2z"/><ellipse cx="646.5" cy="371.2" fill="#ffde9b" rx="2.2" ry="2.7" transform="rotate(-11.275 646.474 371.176)"/><path fill="#febc1f" d="m657.1 377.1-.9.2c-.9.2-1.9-.4-2.4-1.5-.6-1.3-.2-2.9.8-3.5.2-.1.4-.2.5-.2l.9-.2 1.1 5.2z"/><path fill="#ffd06c" d="M655.5 372c1.1-.6 2.4 0 3 1.3s.2 2.9-.8 3.5c-1.1.6-2.4 0-3-1.3-.6-1.3-.3-2.9.8-3.5z"/><path fill="#febc1f" d="m653.9 369.9-.9.2c-.9.2-1.9-.4-2.4-1.5-.6-1.3-.2-2.9.8-3.5.2-.1.4-.2.5-.2l.9-.2 1.1 5.2z"/><path fill="#ffd06c" d="M652.3 364.8c1.1-.6 2.4 0 3 1.3.6 1.3.2 2.9-.8 3.5s-2.4 0-3-1.3c-.6-1.3-.2-2.9.8-3.5z"/><path fill="#5ec363" d="m664 373.1-.9.2c-.9.2-1.9-.4-2.4-1.5-.6-1.3-.2-2.9.8-3.5.2-.1.4-.2.5-.2l.9-.2 1.1 5.2z"/><path fill="#78e75a" d="M662.4 368c1.1-.6 2.4 0 3 1.3s.2 2.9-.9 3.5c-1 .6-2.4 0-3-1.3s-.2-2.8.9-3.5z"/><path fill="#5ec363" d="m660.8 365.9-.9.2c-.9.2-2-.4-2.4-1.5-.6-1.3-.2-2.9.8-3.5.2-.1.4-.2.5-.2l.9-.2 1.1 5.2z"/><path fill="#78e75a" d="M659.2 360.8c1.1-.6 2.4 0 3 1.3.6 1.3.2 2.9-.9 3.5-1 .6-2.4 0-3-1.3-.5-1.3-.1-2.8.9-3.5z"/><path fill="#febc1f" d="m670.9 369.1-.9.2c-.9.2-1.9-.4-2.4-1.5-.6-1.3-.2-2.9.9-3.5.2-.1.3-.2.5-.2l1-.2.9 5.2z"/><ellipse cx="670.4" cy="366.5" fill="#ffd06c" rx="2.2" ry="2.7" transform="rotate(-11.275 670.353 366.407)"/><path fill="#febc1f" d="m667.7 361.9-.9.2c-.9.2-1.9-.4-2.4-1.5-.6-1.3-.2-2.9.8-3.5.2-.1.4-.2.5-.2l.9-.2 1.1 5.2z"/><ellipse cx="667.2" cy="359.3" fill="#ffd06c" rx="2.2" ry="2.7" transform="rotate(-11.275 667.201 359.207)"/><path fill="#1d2943" d="M644 349.7v5.5c0 .6-.4 1.2-1.2 1.7-1.6 1-4.3 1-5.9 0-.8-.5-1.2-1.1-1.2-1.7v-5.5c0 .6.4 1.3 1.2 1.7 1.6 1 4.3 1 5.9 0 .8-.4 1.2-1.1 1.2-1.7z"/><path fill="#4c5c75" d="m660.1 313.1-3.1-1.7-38 21.9.1 29 3.1 1.8 38-22z"/><path fill="#111d33" d="m622.2 364.1-3.1-1.8-.1-29 3.1 1.8z"/><path fill="#1d2943" d="m622.1 335.1-3.1-1.8 38-21.9 3.1 1.7z"/><path fill="#4c5c75" d="m660.1 313.1.1 29-38 22-.1-29z"/><path fill="#57b3fe" d="m624.2 336.2 33.8-19.5.1 24.3-33.9 19.5z"/><path fill="#f4d6d4" d="m307.6 275.4 9.4 28.2 7 15.9-8.9 6.7-13.3-24-6.5-19.6z"/><path fill="#72d561" d="M295.3 254.6s10.4 5.2 12.7 21.3c.8 1.4-11.8 8.9-12.7 7.4v-28.7z"/><path fill="#4c5c75" d="M232.8 325.3v50.1l53.2-33.6v-14.5z"/><path fill="#78e75a" d="M244.9 261.3s27.3-17 50.3-6.7c0 0 9.2 16.7 0 28.7s-13.8 31.6-9.8 41.9c4.1 10.3-45 9.4-52.7 0 0 0-.1-11.1 5.8-19.7s11-35 6.4-44.2z"/><path fill="#f4d6d4" d="M238.8 293.7s1.6 23.3 2 31.9c.4 8.5 6.7 40.6 6.7 40.6l11.9-7.5-.5-65.7-20.1.7z"/><path fill="#72d561" d="M246.7 260.7s-12.3 1.3-9 31.3c0 5.2 21.6 5.2 21.6 0 .1-.1 5.9-33.6-12.6-31.3z"/><path fill="#f5c9c6" d="M274.1 268.3c-6.5-3.4-10.6-7.4-14.8-14l.3-.8 1.8-4.5s.9 1.1 2.5 2.7c2.8 2.7 7.5 6.6 12.5 8 0 0 1.4.3 1.5.3.1 2.6-2.2 6.4-3.8 8.3z"/><path fill="#f4d6d4" d="M281.2 260.1c-1.5.3-3 .1-4.4-.3-.1 0-.2-.1-.2-.1-5-1.4-9.7-5.3-12.5-8-1.6-1.5-2.6-2.6-2.6-2.6s-5-8-1.8-10.5 5.6 5.4 5.6 5.4l2 .3s-3-8.9 1.6-11.6c.5-.3 1.1-.5 1.9-.7 7.2-1.2 13.2-4.5 16.2-2.2l.3.3c2.1 3.6.9 28.7-6.1 30z"/><path fill="#1d2943" d="m258.8 255.6 2.7-6.5s-5-8-1.8-10.5 5.6 5.4 5.6 5.4l2 .3s-3-8.9 1.6-11.6c7.1 2.5 13.8.1 18.3-2.6 3.6-2.1 5.8-4.3 5.8-4.3-6.9-1.2-9.8-9.9-21.4-11.6-13-1.9-15.3 9.5-15.3 9.5-8.2 5.7 2.5 31.9 2.5 31.9z"/><path fill="#4c5c75" d="M229.9 491v24.5l-17.6 10.2-17.8-10.2.1-24.5 17.7 10.2z"/><path fill="#4c5c75" d="M229.9 491v24.5l-17.6 10.2v-24.5z"/><path fill="#1d2943" d="M212.3 501.2v24.5l-17.8-10.2.1-24.5z"/><path fill="#0f192c" d="m301.7 532.7-17.6 10.2-17.8-10.2 17.6-10.2z"/><path fill="#ffd475" d="m546.7 335.9 12.4-7.2 13.7 7.9-12.5 7.2z"/><path fill="#ffb961" d="M581.6 371.3v16.1l-12.5 7.2-22.5-13 .1-45.7 13.6 7.9 12.5-7.2V356z"/><path fill="#ffd475" d="m560.3 363.3 12.5-7.3 8.8 15.3-12.5 7.3z"/><path fill="#ffb961" d="m569.1 378.6 12.5-7.3v16.1l-12.5 7.2zM560.3 343.8l12.5-7.2V356l-12.5 7.3z"/><path fill="#f9a83d" d="M560.3 343.8v19.5l8.8 15.3v16l-22.5-13 .1-45.7z"/><path fill="#1d2943" d="m516.2 656.5-.1 24.5-17.6 10.2-17.7-10.2v-24.5l17.8 10.3z"/><path fill="#4c5c75" d="m516.2 656.5-.1 24.5-17.6 10.2.1-24.4z"/><path fill="#1d2943" d="m498.6 666.8-.1 24.4-17.7-10.2v-24.5z"/><path fill="#111d33" d="M700.3 549.5V574l-17.7 10.2-17.7-10.2.1-24.5 17.6-10.2z"/><path fill="#4c5c75" d="M700.3 549.5V574l-17.7 10.2.1-24.4z"/><path fill="#111d33" d="m682.7 559.8-.1 24.4-17.7-10.2.1-24.5z"/><path fill="#0f192c" d="m700.3 549.5-17.6 10.3-17.7-10.3 17.6-10.2z"/><path fill="#4c5c75" d="M700.3 561.2 498.6 677.8 194.7 501.1l-.1-85.8 201.7-116.6 304 176.7z"/><path fill="#1d2943" d="M498.6 677.8 194.7 501.1l-.1-85.8 303.9 176.6z"/><path fill="#414f65" d="M498.5 591.9 194.6 415.3l201.7-116.6 304 176.7z"/><path fill="#4c5c75" d="M700.3 475.4v85.8L498.6 677.8l-.1-85.9z"/><path fill="#797b80" d="m687.8 471.7-304-176.6v-9.8l303.9 176.6z"/><path fill="#c3c7cf" d="M511 573.9 207 397.3l176.8-102.2 304 176.6z"/><path fill="#1d2943" d="M687.8 471.7 511 573.9v-9.8l.1-.1s-.1 0-.1.1L198.6 382.6l176.8-102.2 312.4 181.5c-.1.1-.2.1-.4.2.1-.1.2-.1.4-.2v9.8z"/><path fill="#4c5c75" d="M687.7 461.9C523 557.1 512.2 563.4 510.9 564.1L198.6 382.6l176.8-102.2 312.3 181.5z"/><path fill="#1d2943" d="m687.7 461.9.1 9.8L511 573.9l-.1-9.8z"/><path fill="#414f65" d="M680.5 466.1l-5.6 3.2L369.5 293l5.6-3.2zM604.9 509.8l-5.6 3.2-305.4-176.3 5.6-3.2zM589.8 518.5l-5.6 3.3-305.4-176.3 5.6-3.3zM574.7 527.3l-5.6 3.2-305.4-176.3 5.6-3.2zM544.4 544.8l-5.6 3.2-305.4-176.3 5.6-3.3zM529.3 553.5l-5.6 3.2-305.4-176.3 5.6-3.2zM620 501.1l-5.6 3.2L309 328l5.6-3.3zM635.1 492.3l-5.5 3.3-305.4-176.4 5.5-3.2zM650.3 483.6l-5.6 3.2-305.4-176.3 5.6-3.2zM665.4 474.8l-5.6 3.3-305.4-176.3 5.6-3.3z"/><path fill="#29313f" d="M511 573.9 207 397.3v-9.8l303.9 176.6z"/><path fill="#8d9ab7" d="M498.5 585.1 186.1 403.6v-7l312.4 181.6z"/><path fill="#e3e7f0" d="M700.2 454.7 387.8 273.2l-12.4 7.2-176.8 102.2 7.9 4.6L383.3 285l304.4 176.9.1 9.8L511 573.9l-.1-9.8-312.4-181.5-12.4 7.2.1 20.6 312.3 181.5 201.8-116.5z"/><path fill="#e3e7f0" d="M687.7 461.9 375.4 280.4l12.4-7.2 312.4 181.5zM383.3 285 206.5 387.2l-7.9-4.6 176.8-102.2z"/><path fill="#b0b8cf" d="M498.5 591.9 186.2 410.4l-.1-20.6 312.4 181.5z"/><path fill="#c9cee2" d="m700.2 454.7.1 20.7-201.8 116.5v-20.6l12.4-7.2.1 9.8 176.8-102.2-.1-9.8z"/><path fill="#e3e7f0" d="M498.5 571.3 186.1 389.8l12.4-7.2 312.4 181.5z"/><path fill="#ffd475" d="M672.1 503.3l-114.7 66.2.1 62.5 114.6-66.2zM359.8 444.5l12.5-7.3 13.7 7.9-12.5 7.3z"/><path fill="#ffb961" d="M394.8 475.4V496l-12.5 7.2-22.5-13v-45.7l13.7 7.9 12.5-7.3v19.5z"/><path fill="#ffd475" d="m373.5 471.8 12.5-7.2 8.8 10.8-12.5 7.2z"/><path fill="#ffb961" d="m382.3 482.6 12.5-7.2-.1 20.6-12.4 7.2z"/><path fill="#f9a83d" d="M373.5 452.4v19.4l8.8 10.8v20.6l-22.5-13v-45.7z"/><path fill="#ffb961" d="m373.5 452.4 12.5-7.3v19.5l-12.5 7.2z"/><path fill="#f9a83d" d="M572.8 328.4v8.2L373.6 452.4l-13.8-7.9.1-8.2 199.2-115.8 3.5 2v3.8l3.4 2 3.3-1.9z"/><path fill="#ffb961" d="m363.4 438.3 199.2-115.8v3.8L363.4 442.1z"/><path fill="#ffd475" d="m359.9 436.3 199.2-115.8 3.5 2-199.2 115.8z"/><path fill="#dc9f54" d="m363.4 442.1 199.2-115.8 6.7 3.9L370 446z"/><path fill="#ffb961" d="m373.6 444.2 199.2-115.8v8.2L373.6 452.4z"/><path fill="#ffd475" d="m370 442.1 199.3-115.7 3.5 2-199.2 115.8z"/><path fill="#f9a83d" d="M373.6 444.2v8.2l-13.8-7.9.1-8.2 3.5 2v3.8l6.6 3.9v-3.9z"/><path fill="#e9e7fc" d="m487.3 355-.1 49.5-19.1 11.1-7.8-4.5.1-17.4-13.8-7.9.1-32.1 19.1-11.1z"/><path fill="#e9e7fc" d="m468.2 366.1 19.1-11.1-.1 49.5-19.1 11.1z"/><path fill="#f3f1fc" d="m446.7 353.7 19.1-11.1 21.5 12.4-19.1 11.1z"/><path fill="#dedffb" d="m468.2 366.1-.1 49.5-7.8-4.5.1-17.4-13.8-7.9.1-32.1z"/><path fill="#dba660" d="M649.5 458.6v2.8l-133 77.2-117.9-68v-2.8l133-77.3z"/><path fill="#aa6256" d="M649.5 458.6v2.8l-133 77.2v-2.8z"/><path fill="#bf7d5a" d="M516.5 535.8v2.8l-117.9-68v-2.8z"/><path fill="#dba660" d="m649.5 458.6-133 77.2-117.9-68 133-77.3z"/><path fill="#dedffb" d="m488.8 410.8-.8 10.6c0 .4-.4.7-.8.7s-.7-.3-.7-.7l-.8-10.6c-.1-.9.6-1.6 1.4-1.7.9-.1 1.6.6 1.7 1.4v.3z"/><path fill="#497bfe" d="M471.6 354.5v2.1c0 .8-.5 1.6-1.6 2.3-2.2 1.3-5.7 1.3-7.8 0-1.1-.6-1.6-1.5-1.6-2.3v-2.1c0 .8.5 1.7 1.6 2.3 2.2 1.3 5.7 1.3 7.8 0 1-.6 1.6-1.4 1.6-2.3z"/><path fill="#57b3fe" d="M469.9 352.3c2.2 1.3 2.2 3.3 0 4.5-2.2 1.3-5.7 1.3-7.8 0-2.2-1.3-2.2-3.3 0-4.5 2.1-1.3 5.6-1.3 7.8 0z"/><path fill="#111d33" d="m490.8 365.7-.1 49.9c0 1.9-1.6 3.5-3.5 3.5s-3.5-1.6-3.5-3.5v-49.9c0-5.6-4.1-12.7-8.9-15.5-1.7-1-3.2-1.3-4.1-.8-.9.5-1.4 1.9-1.4 3.9v1.3c0 .5-.3 1-1 1.4-1.4.8-3.6.8-5 0-.7-.4-1-.9-1-1.4v-1.3c0-4.5 1.8-8.1 4.9-9.9 3.1-1.8 7.2-1.5 11.1.8 7.1 4 12.5 13.4 12.5 21.5z"/><path fill="#dedffb" d="m456.9 391.7-3.5 2-3.2-2v-3.9z"/><path fill="#aa6256" d="M439 475.8c-.3 0-.6-.1-.8-.2-1-.6-1.9-2.4-2.4-4.9-2.4 1.1-7.1 3.1-8.4 2.3-.2-.1-.4-.4-.4-.7 0-1.1 2-2.8 4-4.3-4.2-.3-7.1-.7-8-1.3-.4-.2-.5-.5-.5-.6 0-.4 0-1.5 8.5-2-2-1.5-4.1-3.3-4-4.3 0-.3.2-.5.4-.6 1.3-.8 6.1 1.2 8.5 2.3.6-3.2 1.8-5.2 3.2-5.2.3 0 .5.1.8.2 1 .6 1.9 2.4 2.4 4.9 2.4-1.1 7.1-3.1 8.5-2.3.2.1.4.4.4.6 0 1.1-2 2.8-4 4.3 4.2.3 7.1.7 8 1.3.1.1.5.3.5.7 0 .9-2.9 1.6-8.5 2 2 1.5 4.1 3.3 4 4.3 0 .3-.2.5-.4.6-1.3.8-6.1-1.2-8.5-2.3-.7 3.3-1.9 5.2-3.3 5.2zm-2.9-6h.2c.1.1.2.1.2.3.4 2.5 1.2 4.4 2.1 4.9.2.1.3.1.5.1 1 0 2.1-2.1 2.5-5 0-.1.1-.2.2-.3.1-.1.2-.1.3 0 4.8 2.3 7.6 2.9 8.2 2.6.1 0 .1 0 .1-.1 0-.4-.9-1.8-4.5-4.3-.1-.1-.2-.2-.1-.4 0-.1.2-.2.3-.3 5.8-.3 8.4-1 8.8-1.3 0 0-.1 0-.1-.1-.9-.5-4.3-1-8.7-1.3-.1 0-.3-.1-.3-.3 0-.1 0-.3.1-.4 3.6-2.5 4.5-3.9 4.5-4.3l-.1-.1c-.6-.4-3.4.3-8.2 2.6h-.3c-.1 0-.2-.1-.2-.3-.4-2.5-1.2-4.4-2.1-4.9-1.2-.7-2.5 1.4-3 4.9 0 .1-.1.2-.2.3-.1.1-.2.1-.3 0-4.8-2.3-7.6-2.9-8.2-2.6-.1 0-.1 0-.1.1 0 .4.9 1.8 4.5 4.3.1.1.2.2.1.4 0 .1-.2.2-.3.3-5.8.3-8.4 1-8.8 1.3 0 0 .1 0 .1.1.9.5 4.3 1 8.7 1.3.1 0 .3.1.3.3 0 .1 0 .3-.1.4-3.6 2.5-4.5 3.9-4.5 4.3l.1.1c.6.4 3.5-.3 8.2-2.6h.1z"/><path fill="#aa6256" d="M439 468c-.8 0-1.5-.2-2.1-.5-.6-.4-1-.9-1-1.4 0-.5.4-1.1 1-1.4 1.2-.7 3.1-.7 4.2 0 .6.4 1 .9 1 1.4 0 .5-.4 1.1-1 1.4-.6.3-1.4.5-2.1.5zm0-3.2c-.6 0-1.3.1-1.8.4-.4.2-.6.5-.6.8 0 .3.2.6.6.8 1 .6 2.6.6 3.6 0 .4-.2.6-.5.6-.8 0-.3-.2-.6-.6-.8-.5-.3-1.2-.4-1.8-.4zM468.4 458.7c-.3 0-.6-.1-.8-.2-1-.6-1.9-2.4-2.4-4.9-2.4 1.1-7.1 3.1-8.4 2.3-.2-.1-.4-.4-.4-.7 0-1.1 2-2.8 4-4.3-4.2-.3-7.1-.7-8-1.3-.4-.2-.5-.5-.5-.6 0-.4 0-1.5 8.5-2-2-1.5-4.1-3.2-4-4.3 0-.3.2-.5.4-.6 1.3-.8 6.1 1.2 8.5 2.3.6-3.2 1.8-5.2 3.2-5.2.3 0 .5.1.8.2 1 .6 1.9 2.4 2.4 4.9 2.4-1.1 7.1-3.1 8.5-2.3.2.1.4.4.4.7 0 1.1-2 2.8-4 4.3 4.2.3 7.1.7 8 1.3.1.1.5.3.5.7 0 .9-2.9 1.6-8.5 2 2 1.5 4.1 3.3 4 4.3 0 .3-.2.5-.4.6-1.3.8-6.1-1.2-8.5-2.3-.7 3.2-1.9 5.1-3.3 5.1zm-2.9-6h.2c.1.1.2.1.2.3.4 2.5 1.2 4.4 2.1 4.9.2.1.3.1.5.1 1 0 2.1-2.1 2.5-5 0-.1.1-.2.2-.3s.2-.1.3 0c4.8 2.3 7.6 2.9 8.2 2.6.1 0 .1 0 .1-.1 0-.4-.9-1.8-4.5-4.3-.1-.1-.2-.2-.1-.4 0-.1.2-.2.3-.3 5.8-.3 8.4-1 8.8-1.3 0 0-.1 0-.1-.1-.9-.5-4.3-1-8.7-1.3-.1 0-.3-.1-.3-.3 0-.1 0-.3.1-.4 3.6-2.5 4.5-3.9 4.5-4.3l-.1-.1c-.6-.4-3.4.3-8.2 2.6h-.3c-.1-.1-.2-.1-.2-.3-.4-2.5-1.2-4.4-2.1-4.9-.2-.1-.3-.1-.5-.1-1 0-2.1 2.1-2.5 5 0 .1-.1.2-.2.3-.1.1-.2.1-.3 0-4.8-2.3-7.6-2.9-8.2-2.6-.1 0-.1 0-.1.1 0 .4.9 1.8 4.5 4.3.1.1.2.2.1.4 0 .1-.2.2-.3.3-5.8.3-8.4 1-8.8 1.3 0 0 .1 0 .1.1.9.5 4.3 1 8.7 1.3.1 0 .3.1.3.3 0 .1 0 .3-.1.4-3.6 2.5-4.5 3.9-4.5 4.3l.1.1c.6.4 3.5-.3 8.2-2.6h.1z"/><path fill="#aa6256" d="M468.4 450.9c-.8 0-1.5-.2-2.1-.5-.6-.4-1-.9-1-1.4 0-.6.3-1.1 1-1.4 1.2-.7 3.1-.7 4.3 0 .6.4 1 .9 1 1.4 0 .5-.4 1.1-1 1.4-.7.4-1.5.5-2.2.5zm-.1-3.2c-.6 0-1.3.1-1.8.4-.4.2-.6.5-.6.8 0 .3.2.6.6.8 1 .6 2.6.6 3.6 0 .4-.2.6-.5.6-.8 0-.3-.2-.6-.6-.8-.5-.2-1.1-.4-1.8-.4zM497.8 441.7c-.3 0-.6-.1-.8-.2-1-.6-1.9-2.4-2.4-4.9-2.4 1.1-7.1 3.1-8.4 2.3-.2-.1-.4-.4-.4-.7 0-1.1 2-2.8 4-4.3-4.2-.3-7.1-.7-8-1.3-.4-.2-.5-.5-.5-.6 0-.4 0-1.5 8.5-2-2-1.5-4.1-3.3-4-4.3 0-.3.2-.5.4-.6 1.3-.8 6.1 1.2 8.5 2.3.6-3.2 1.8-5.1 3.2-5.1.3 0 .5.1.8.2 1 .6 1.9 2.4 2.4 4.9 2.4-1.1 7.1-3.1 8.5-2.3.2.1.4.4.4.6 0 1.1-2 2.8-4 4.3 4.2.3 7.1.7 8 1.3.1.1.5.3.5.7 0 .9-2.9 1.6-8.5 2 2 1.5 4.1 3.3 4 4.3 0 .3-.2.5-.4.6-1.3.8-6.1-1.2-8.5-2.3-.8 3.1-1.9 5.1-3.3 5.1zm-3-6h.2c.1.1.2.1.2.3.4 2.5 1.2 4.4 2.1 4.9.2.1.3.1.5.1 1 0 2.1-2.1 2.5-5 0-.1.1-.2.2-.3.1-.1.2-.1.3 0 4.8 2.3 7.6 2.9 8.2 2.6.1 0 .1 0 .1-.1 0-.4-.9-1.8-4.5-4.3-.1-.1-.2-.2-.1-.4 0-.1.2-.2.3-.3 5.8-.3 8.4-1 8.8-1.3 0 0-.1 0-.1-.1-.9-.5-4.3-1-8.7-1.3-.1 0-.3-.1-.3-.3 0-.1 0-.3.1-.4 3.6-2.5 4.5-3.9 4.5-4.3l-.1-.1c-.6-.4-3.4.3-8.2 2.6h-.3c-.1 0-.2-.1-.2-.3-.4-2.5-1.2-4.4-2.1-4.9-1.2-.7-2.5 1.4-3 4.9 0 .1-.1.2-.2.3-.1.1-.2.1-.3 0-4.8-2.3-7.6-2.9-8.2-2.6-.1 0-.1 0-.1.1 0 .4.9 1.8 4.5 4.3.1.1.2.2.1.4 0 .1-.2.2-.3.3-5.8.3-8.4 1-8.8 1.3 0 0 .1 0 .1.1.9.5 4.3 1 8.7 1.3.1 0 .3.1.3.3 0 .1 0 .3-.1.4-3.6 2.5-4.5 3.9-4.5 4.3l.1.1c.6.4 3.5-.3 8.2-2.6h.1z"/><path fill="#aa6256" d="M497.7 433.9c-.8 0-1.5-.2-2.1-.5-.6-.4-1-.9-1-1.4 0-.6.3-1.1 1-1.4 1.2-.7 3.1-.7 4.3 0 .6.4 1 .9 1 1.4 0 .5-.4 1.1-1 1.4-.6.3-1.4.5-2.2.5zm0-3.2c-.6 0-1.3.1-1.8.4-.4.2-.6.5-.6.8 0 .3.2.6.6.8 1 .6 2.6.6 3.6 0 .4-.2.6-.5.6-.8 0-.3-.2-.6-.6-.8-.5-.3-1.1-.4-1.8-.4zM527.2 424.6c-.3 0-.6-.1-.8-.2-1-.6-1.9-2.4-2.4-4.9-2.4 1.1-7.1 3.1-8.4 2.3-.2-.1-.4-.4-.4-.7 0-1.1 2-2.8 4-4.3-4.2-.3-7.1-.7-8-1.3-.4-.2-.5-.5-.5-.6 0-.4 0-1.5 8.5-2-2-1.5-4.1-3.2-4-4.3 0-.3.2-.5.4-.6 1.3-.8 6.1 1.2 8.5 2.3.6-3.2 1.8-5.2 3.2-5.2.3 0 .5.1.8.2 1 .6 1.9 2.4 2.4 4.9 2.4-1.1 7.1-3.1 8.5-2.3.2.1.4.4.4.7 0 1.1-2 2.8-4 4.3 4.2.3 7.1.7 8 1.3.1.1.5.3.5.7 0 .9-2.9 1.6-8.5 2 2 1.5 4.1 3.3 4 4.3 0 .3-.2.5-.4.6-1.3.8-6.1-1.2-8.5-2.3-.8 3.2-1.9 5.1-3.3 5.1zm-3-6h.2c.1.1.2.1.2.3.4 2.5 1.2 4.4 2.1 4.9.2.1.3.1.5.1 1 0 2.1-2.1 2.5-5 0-.1.1-.2.2-.3s.2-.1.3 0c4.8 2.3 7.6 2.9 8.2 2.6.1 0 .1 0 .1-.1 0-.4-.9-1.8-4.5-4.3-.1-.1-.2-.2-.1-.4 0-.1.2-.2.3-.3 5.8-.3 8.4-1 8.8-1.3 0 0-.1 0-.1-.1-.9-.5-4.3-1-8.7-1.3-.1 0-.3-.1-.3-.3 0-.1 0-.3.1-.4 3.6-2.5 4.5-3.9 4.5-4.3l-.1-.1c-.6-.4-3.4.3-8.2 2.6h-.3c-.1 0-.2-.1-.2-.3-.4-2.5-1.2-4.4-2.1-4.9-.2-.1-.3-.1-.5-.1-1 0-2.1 2.1-2.5 5 0 .1-.1.2-.2.3-.1.1-.2.1-.3 0-4.8-2.3-7.6-2.9-8.2-2.6-.1 0-.1 0-.1.1 0 .4.9 1.8 4.5 4.3.1.1.2.2.1.4 0 .1-.2.2-.3.3-5.8.3-8.4 1-8.8 1.3 0 0 .1 0 .1.1.9.5 4.3 1 8.7 1.3.1 0 .3.1.3.3 0 .1 0 .3-.1.4-3.6 2.5-4.5 3.9-4.5 4.3l.1.1c.6.4 3.5-.3 8.2-2.6h.1z"/><path fill="#aa6256" d="M527.1 416.8c-.8 0-1.5-.2-2.1-.5-.6-.4-1-.9-1-1.4 0-.6.3-1.1 1-1.4 1.2-.7 3.1-.7 4.3 0 .6.4 1 .9 1 1.4 0 .5-.4 1.1-1 1.4-.7.3-1.4.5-2.2.5zm0-3.2c-.6 0-1.3.1-1.8.4-.4.2-.6.5-.6.8 0 .3.2.6.6.8 1 .6 2.6.6 3.6 0 .4-.2.6-.5.6-.8 0-.3-.2-.6-.6-.8-.5-.3-1.2-.4-1.8-.4zM469.6 493.4c-.3 0-.6-.1-.8-.2-1-.6-1.9-2.4-2.4-4.9-2.4 1.1-7.1 3.1-8.4 2.3-.2-.1-.4-.4-.4-.7 0-1.1 2-2.8 4-4.3-4.2-.3-7.1-.7-8-1.3-.3-.2-.5-.4-.5-.6 0-.4 0-1.5 8.5-2-2-1.5-4.1-3.2-4-4.3 0-.3.2-.5.4-.6 1.3-.8 6.1 1.2 8.5 2.3.6-3.2 1.8-5.2 3.2-5.2.3 0 .5.1.8.2 1 .6 1.9 2.4 2.4 4.9 2.4-1.1 7.1-3.1 8.5-2.3.2.1.4.4.4.7 0 1.1-2 2.8-4 4.3 4.2.3 7.1.7 8 1.3.1.1.5.3.5.7 0 .9-2.9 1.6-8.5 2 2 1.5 4.1 3.3 4 4.3 0 .3-.2.5-.4.6-1.3.8-6.1-1.2-8.5-2.3-.8 3.2-1.9 5.1-3.3 5.1zm-3-6h.2c.1.1.2.1.2.3.4 2.5 1.2 4.4 2.1 4.9.2.1.3.1.5.1 1 0 2.1-2.1 2.5-5 0-.1.1-.2.2-.3.1-.1.2-.1.3 0 4.8 2.3 7.6 2.9 8.2 2.6.1 0 .1 0 .1-.1 0-.4-.9-1.8-4.5-4.3-.1-.1-.2-.2-.1-.4 0-.1.2-.2.3-.3 5.8-.3 8.4-1 8.8-1.3 0 0-.1 0-.1-.1-.9-.5-4.3-1-8.7-1.3-.1 0-.3-.1-.3-.3 0-.1 0-.3.1-.4 3.6-2.5 4.5-3.9 4.5-4.3l-.1-.1c-.6-.4-3.4.3-8.2 2.6h-.3c-.1-.1-.2-.1-.2-.3-.4-2.5-1.2-4.4-2.1-4.9-.2-.1-.3-.1-.5-.1-1 0-2.1 2.1-2.5 5 0 .1-.1.2-.2.3-.1.1-.2.1-.3 0-4.8-2.3-7.6-2.9-8.2-2.6-.1 0-.1 0-.1.1 0 .4.9 1.8 4.5 4.3.1.1.2.2.1.4 0 .1-.2.2-.3.3-5.8.3-8.4 1-8.8 1.3 0 0 .1 0 .1.1.9.5 4.3 1 8.7 1.3.1 0 .3.1.3.3 0 .1 0 .3-.1.4-3.6 2.5-4.5 3.9-4.5 4.3l.1.1c.6.4 3.5-.3 8.2-2.6h.1z"/><path fill="#aa6256" d="M469.5 485.6c-.8 0-1.5-.2-2.1-.5-.6-.4-1-.9-1-1.4 0-.5.4-1.1 1-1.4 1.2-.7 3.1-.7 4.3 0 .6.4 1 .9 1 1.4 0 .5-.4 1.1-1 1.4-.7.4-1.4.5-2.2.5zm0-3.2c-.6 0-1.3.1-1.8.4-.4.2-.6.5-.6.8 0 .3.2.6.6.8 1 .6 2.6.6 3.6 0 .4-.2.6-.5.6-.8 0-.3-.2-.6-.6-.8-.5-.2-1.2-.4-1.8-.4zM498.9 476.4c-.3 0-.6-.1-.8-.2-1-.6-1.9-2.4-2.4-4.9-2.4 1.1-7.1 3.1-8.4 2.3-.2-.1-.4-.4-.4-.7 0-1.1 2-2.8 4-4.3-4.2-.3-7.1-.7-8-1.3-.4-.2-.5-.5-.5-.6 0-.4 0-1.5 8.5-2-2-1.5-4.1-3.2-4-4.3 0-.3.2-.5.4-.6 1.3-.8 6.1 1.2 8.5 2.3.6-3.2 1.8-5.2 3.2-5.2.3 0 .5.1.8.2 1 .6 1.9 2.4 2.4 4.9 2.4-1.1 7.1-3.1 8.5-2.3.2.1.4.4.4.6 0 1.1-2 2.8-4 4.3 4.2.3 7.1.7 8 1.3.1.1.5.3.5.7 0 .9-2.9 1.6-8.5 2 2 1.5 4.1 3.3 4 4.3 0 .3-.2.5-.4.6-1.3.8-6.1-1.2-8.5-2.3-.7 3.2-1.9 5.2-3.3 5.2zm-2.9-6h.2c.1.1.2.1.2.3.4 2.5 1.2 4.4 2.1 4.9.2.1.3.1.5.1 1 0 2.1-2.1 2.5-5 0-.1.1-.2.2-.3.1-.1.2-.1.3 0 4.8 2.3 7.6 2.9 8.2 2.6.1 0 .1 0 .1-.1 0-.4-.9-1.8-4.5-4.3-.1-.1-.2-.2-.1-.4 0-.1.2-.2.3-.3 5.8-.3 8.4-1 8.8-1.3 0 0-.1 0-.1-.1-.9-.5-4.3-1-8.7-1.3-.1 0-.3-.1-.3-.3 0-.1 0-.3.1-.4 3.6-2.5 4.5-3.9 4.5-4.3l-.1-.1c-.6-.4-3.4.3-8.2 2.6h-.3c-.1-.1-.2-.1-.2-.3-.4-2.5-1.2-4.4-2.1-4.9-1.2-.7-2.5 1.4-3 4.9 0 .1-.1.2-.2.3-.1.1-.2.1-.3 0-4.8-2.3-7.6-2.9-8.2-2.6-.1 0-.1 0-.1.1 0 .4.9 1.8 4.5 4.3.1.1.2.2.1.4 0 .1-.2.2-.3.3-5.8.3-8.4 1-8.8 1.3 0 0 .1 0 .1.1.9.5 4.3 1 8.7 1.3.1 0 .3.1.3.3 0 .1 0 .3-.1.4-3.6 2.5-4.5 3.9-4.5 4.3l.1.1c.6.4 3.5-.3 8.2-2.6h.1z"/><path fill="#aa6256" d="M498.9 468.6c-.8 0-1.5-.2-2.1-.5-.6-.4-1-.9-1-1.4 0-.6.3-1.1 1-1.4 1.2-.7 3.1-.7 4.3 0 .6.4 1 .9 1 1.4 0 .5-.4 1.1-1 1.4-.7.3-1.4.5-2.2.5zm0-3.2c-.6 0-1.3.1-1.8.4-.4.2-.6.5-.6.8 0 .3.2.6.6.8 1 .6 2.6.6 3.6 0 .4-.2.6-.5.6-.8 0-.3-.2-.6-.6-.8-.5-.3-1.2-.4-1.8-.4zM528.3 459.3c-.3 0-.6-.1-.8-.2-1-.6-1.9-2.4-2.4-4.9-2.4 1.1-7.1 3.1-8.4 2.3-.2-.1-.4-.4-.4-.7 0-1.1 2-2.8 4-4.3-4.2-.3-7.1-.7-8-1.3-.4-.2-.5-.5-.5-.6 0-.4 0-1.5 8.5-2-2-1.5-4.1-3.3-4-4.3 0-.3.2-.5.4-.6 1.3-.8 6.1 1.2 8.5 2.3.6-3.2 1.8-5.2 3.2-5.2.3 0 .5.1.8.2 1 .6 1.9 2.4 2.4 4.9 2.4-1.1 7.1-3.1 8.5-2.3.2.1.4.4.4.6 0 1.1-2 2.8-4 4.3 4.2.3 7.1.7 8 1.3.1.1.5.3.5.7 0 .9-2.9 1.6-8.5 2 2 1.5 4.1 3.3 4 4.3 0 .3-.2.5-.4.6-1.3.8-6.1-1.2-8.5-2.3-.7 3.3-1.9 5.2-3.3 5.2zm-2.9-6h.2c.1.1.2.1.2.3.4 2.5 1.2 4.4 2.1 4.9.2.1.3.1.5.1 1 0 2.1-2.1 2.5-5 0-.1.1-.2.2-.3s.2-.1.3 0c4.8 2.3 7.6 2.9 8.2 2.6.1 0 .1 0 .1-.1 0-.4-.9-1.8-4.5-4.3-.1-.1-.2-.2-.1-.4 0-.1.2-.2.3-.3 5.8-.3 8.4-1 8.8-1.3 0 0-.1 0-.1-.1-.9-.5-4.3-1-8.7-1.3-.1 0-.3-.1-.3-.3 0-.1 0-.3.1-.4 3.6-2.5 4.5-3.9 4.5-4.3l-.1-.1c-.6-.4-3.4.3-8.2 2.6h-.3c-.1 0-.2-.1-.2-.3-.4-2.5-1.2-4.4-2.1-4.9-.2-.1-.3-.1-.5-.1-1 0-2.1 2.1-2.5 5 0 .1-.1.2-.2.3-.1.1-.2.1-.3 0-4.8-2.3-7.6-2.9-8.2-2.6-.1 0-.1 0-.1.1 0 .4.9 1.8 4.5 4.3.1.1.2.2.1.4 0 .1-.2.2-.3.3-5.8.3-8.4 1-8.8 1.3 0 0 .1 0 .1.1.9.5 4.3 1 8.7 1.3.1 0 .3.1.3.3 0 .1 0 .3-.1.4-3.6 2.5-4.5 3.9-4.5 4.3l.1.1c.6.4 3.5-.3 8.2-2.6h.1z"/><path fill="#aa6256" d="M528.3 451.5c-.8 0-1.5-.2-2.1-.5-.6-.4-1-.9-1-1.4 0-.5.4-1.1 1-1.4 1.2-.7 3.1-.7 4.3 0 .6.4 1 .9 1 1.4 0 .5-.4 1.1-1 1.4-.7.3-1.5.5-2.2.5zm-.1-3.2c-.6 0-1.3.1-1.8.4-.4.2-.6.5-.6.8 0 .3.2.6.6.8 1 .6 2.6.6 3.6 0 .4-.2.6-.5.6-.8 0-.3-.2-.6-.6-.8-.5-.3-1.1-.4-1.8-.4zM557.7 442.2c-.3 0-.6-.1-.8-.2-1-.6-1.9-2.4-2.4-4.9-2.4 1.1-7.1 3.1-8.4 2.3-.2-.1-.4-.4-.4-.7 0-1.1 2-2.8 4-4.3-4.2-.3-7.1-.7-8-1.3-.4-.2-.5-.5-.5-.6 0-.4 0-1.5 8.5-2-2-1.5-4.1-3.3-4-4.3 0-.3.2-.5.4-.6 1.3-.8 6.1 1.2 8.5 2.3.6-3.2 1.8-5.2 3.2-5.2.3 0 .5.1.8.2 1 .6 1.9 2.4 2.4 4.9 2.4-1.1 7.1-3.1 8.5-2.3.2.1.4.4.4.6 0 1.1-2 2.8-4 4.3 4.2.3 7.1.7 8 1.3.1.1.5.3.5.7 0 .9-2.9 1.6-8.5 2 2 1.5 4.1 3.3 4 4.3 0 .3-.2.5-.4.6-1.3.8-6.1-1.2-8.5-2.3-.8 3.3-1.9 5.2-3.3 5.2zm-3-6h.2c.1.1.2.1.2.3.4 2.5 1.2 4.4 2.1 4.9.2.1.3.1.5.1 1 0 2.1-2.1 2.5-5 0-.1.1-.2.2-.3.1-.1.2-.1.3 0 4.8 2.3 7.6 2.9 8.2 2.6.1 0 .1 0 .1-.1 0-.4-.9-1.8-4.5-4.3-.1-.1-.2-.2-.1-.4 0-.1.2-.2.3-.3 5.8-.3 8.4-1 8.8-1.3 0 0-.1 0-.1-.1-.9-.5-4.3-1-8.7-1.3-.1 0-.3-.1-.3-.3 0-.1 0-.3.1-.4 3.6-2.5 4.5-3.9 4.5-4.3l-.1-.1c-.6-.4-3.4.3-8.2 2.6h-.3c-.1 0-.2-.1-.2-.3-.4-2.5-1.2-4.4-2.1-4.9-1.2-.7-2.5 1.4-3 4.9 0 .1-.1.2-.2.3-.1.1-.2.1-.3 0-4.8-2.3-7.6-2.9-8.2-2.6-.1 0-.1 0-.1.1 0 .4.9 1.8 4.5 4.3.1.1.2.2.1.4 0 .1-.2.2-.3.3-5.8.3-8.4 1-8.8 1.3 0 0 .1 0 .1.1.9.5 4.3 1 8.7 1.3.1 0 .3.1.3.3 0 .1 0 .3-.1.4-3.6 2.5-4.5 3.9-4.5 4.3l.1.1c.6.4 3.5-.3 8.2-2.6h.1z"/><path fill="#aa6256" d="M557.6 434.4c-.8 0-1.5-.2-2.1-.5-.6-.4-1-.9-1-1.4 0-.6.3-1.1 1-1.4 1.2-.7 3.1-.7 4.2 0 .6.4 1 .9 1 1.4 0 .5-.4 1.1-1 1.4-.5.3-1.3.5-2.1.5zm0-3.2c-.6 0-1.3.1-1.8.4-.4.2-.6.5-.6.8 0 .3.2.6.6.8 1 .6 2.6.6 3.6 0 .4-.2.6-.5.6-.8 0-.3-.2-.6-.6-.8-.5-.2-1.1-.4-1.8-.4zM500.1 511.1c-.3 0-.6-.1-.8-.2-1-.6-1.9-2.4-2.4-4.9-2.4 1.1-7.1 3.1-8.4 2.3-.2-.1-.4-.4-.4-.7 0-1.1 2-2.8 4-4.3-4.2-.3-7.1-.7-8-1.3-.4-.2-.5-.5-.5-.6 0-.4 0-1.5 8.5-2-2-1.5-4.1-3.2-4-4.3 0-.3.2-.5.4-.6 1.3-.8 6.1 1.2 8.5 2.3.6-3.2 1.8-5.2 3.2-5.2.3 0 .5.1.8.2 1 .6 1.9 2.4 2.4 4.9 2.4-1.1 7.1-3.1 8.5-2.3.2.1.4.4.4.7 0 1.1-2 2.8-4 4.3 4.2.3 7.1.7 8 1.3.1.1.5.3.5.7 0 .9-2.9 1.6-8.5 2 2 1.5 4.1 3.3 4 4.3 0 .3-.2.5-.4.6-1.3.8-6.1-1.2-8.5-2.3-.7 3.1-1.9 5.1-3.3 5.1zm-3-6h.2c.1.1.2.1.2.3.4 2.5 1.2 4.4 2.1 4.9.2.1.3.1.5.1 1 0 2.1-2.1 2.5-5 0-.1.1-.2.2-.3s.2-.1.3 0c4.8 2.3 7.6 2.9 8.2 2.6.1 0 .1 0 .1-.1 0-.4-.9-1.8-4.5-4.3-.1-.1-.2-.2-.1-.4 0-.1.2-.2.3-.3 5.8-.3 8.4-1 8.8-1.3 0 0-.1 0-.1-.1-.9-.5-4.3-1-8.7-1.3-.1 0-.3-.1-.3-.3 0-.1 0-.3.1-.4 3.6-2.5 4.5-3.9 4.5-4.3l-.1-.1c-.6-.4-3.4.3-8.2 2.6h-.3c-.1-.1-.2-.1-.2-.3-.4-2.5-1.2-4.4-2.1-4.9-.2-.1-.3-.1-.5-.1-1 0-2.1 2.1-2.5 5 0 .1-.1.2-.2.3-.1.1-.2.1-.3 0-4.8-2.3-7.6-2.9-8.2-2.6-.1 0-.1 0-.1.1 0 .4.9 1.8 4.5 4.3.1.1.2.2.1.4 0 .1-.2.2-.3.3-5.8.3-8.4 1-8.8 1.3 0 0 .1 0 .1.1.9.5 4.3 1 8.7 1.3.1 0 .3.1.3.3 0 .1 0 .3-.1.4-3.6 2.5-4.5 3.9-4.5 4.3l.1.1c.6.4 3.5-.3 8.2-2.6h.1z"/><path fill="#aa6256" d="M500 503.3c-.8 0-1.5-.2-2.1-.5-.6-.4-1-.9-1-1.4 0-.6.3-1.1 1-1.4 1.2-.7 3.1-.7 4.3 0 .6.4 1 .9 1 1.4 0 .5-.4 1.1-1 1.4-.6.3-1.4.5-2.2.5zm0-3.2c-.6 0-1.3.1-1.8.4-.4.2-.6.5-.6.8 0 .3.2.6.6.8 1 .6 2.6.6 3.6 0 .4-.2.6-.5.6-.8 0-.3-.2-.6-.6-.8-.5-.3-1.1-.4-1.8-.4zM529.5 494c-.3 0-.6-.1-.8-.2-1-.6-1.9-2.4-2.4-4.9-2.4 1.1-7.1 3.1-8.4 2.3-.2-.1-.4-.4-.4-.7 0-1.1 2-2.8 4-4.3-4.2-.3-7.1-.7-8-1.3-.4-.2-.5-.5-.5-.6 0-.4 0-1.5 8.5-2-2-1.5-4.1-3.3-4-4.3 0-.3.2-.5.4-.6 1.3-.8 6.1 1.2 8.5 2.3.6-3.2 1.8-5.2 3.2-5.2.3 0 .5.1.8.2 1 .6 1.9 2.4 2.4 4.9 2.4-1.1 7.1-3.1 8.5-2.3.2.1.4.4.4.6 0 1.1-2 2.8-4 4.3 4.2.3 7.1.7 8 1.3.1.1.5.3.5.7 0 .9-2.9 1.6-8.5 2 2 1.5 4.1 3.3 4 4.3 0 .3-.2.5-.4.6-1.3.8-6.1-1.2-8.5-2.3-.8 3.3-1.9 5.2-3.3 5.2zm-3-6h.2c.1.1.2.1.2.3.4 2.5 1.2 4.4 2.1 4.9.2.1.3.1.5.1 1 0 2.1-2.1 2.5-5 0-.1.1-.2.2-.3.1-.1.2-.1.3 0 4.8 2.3 7.6 2.9 8.2 2.6.1 0 .1 0 .1-.1 0-.4-.9-1.8-4.5-4.3-.1-.1-.2-.2-.1-.4 0-.1.2-.2.3-.3 5.8-.3 8.4-1 8.8-1.3 0 0-.1 0-.1-.1-.9-.5-4.3-1-8.7-1.3-.1 0-.3-.1-.3-.3 0-.1 0-.3.1-.4 3.6-2.5 4.5-3.9 4.5-4.3l-.1-.1c-.6-.4-3.4.3-8.2 2.6h-.3c-.1 0-.2-.1-.2-.3-.4-2.5-1.2-4.4-2.1-4.9-.2-.1-.3-.1-.5-.1-1 0-2.1 2.1-2.5 5 0 .1-.1.2-.2.3-.1.1-.2.1-.3 0-4.8-2.3-7.6-2.9-8.2-2.6-.1 0-.1 0-.1.1 0 .4.9 1.8 4.5 4.3.1.1.2.2.1.4 0 .1-.2.2-.3.3-5.8.3-8.4 1-8.8 1.3 0 0 .1 0 .1.1.9.5 4.3 1 8.7 1.3.1 0 .3.1.3.3 0 .1 0 .3-.1.4-3.6 2.5-4.5 3.9-4.5 4.3l.1.1c.6.4 3.5-.3 8.2-2.6h.1z"/><path fill="#aa6256" d="M529.4 486.2c-.8 0-1.5-.2-2.1-.5-.6-.4-1-.9-1-1.4 0-.6.4-1.1 1-1.4 1.2-.7 3.1-.7 4.3 0 .6.4 1 .9 1 1.4 0 .5-.4 1.1-1 1.4-.7.3-1.4.5-2.2.5zm0-3.2c-.6 0-1.3.1-1.8.4-.4.2-.6.5-.6.8 0 .3.2.6.6.8 1 .6 2.6.6 3.6 0 .4-.2.6-.5.6-.8 0-.3-.2-.6-.6-.8-.5-.3-1.1-.4-1.8-.4zM558.8 476.9c-.3 0-.6-.1-.8-.2-1-.6-1.9-2.4-2.4-4.9-2.4 1.1-7.1 3.1-8.4 2.3-.2-.1-.4-.4-.4-.7 0-1.1 2-2.8 4-4.3-4.2-.3-7.1-.7-8-1.3-.4-.2-.5-.5-.5-.6 0-.4 0-1.5 8.5-2-2-1.5-4.1-3.2-4-4.3 0-.3.2-.5.4-.6 1.3-.8 6.1 1.2 8.5 2.3.6-3.2 1.8-5.2 3.2-5.2.3 0 .5.1.8.2 1 .6 1.9 2.4 2.4 4.9 2.4-1.1 7.1-3.1 8.5-2.3.2.1.4.4.4.7 0 1.1-2 2.8-4 4.3 4.2.3 7.1.7 8 1.3.1.1.5.3.5.7 0 .9-2.9 1.6-8.5 2 2 1.5 4.1 3.3 4 4.3 0 .3-.2.5-.4.6-1.3.8-6.1-1.2-8.5-2.3-.7 3.2-1.9 5.1-3.3 5.1zm-2.9-6h.2c.1.1.2.1.2.3.4 2.5 1.2 4.4 2.1 4.9.2.1.3.1.5.1 1 0 2.1-2.1 2.5-5 0-.1.1-.2.2-.3.1-.1.2-.1.3 0 4.8 2.3 7.6 2.9 8.2 2.6.1 0 .1 0 .1-.1 0-.4-.9-1.8-4.5-4.3-.1-.1-.2-.2-.1-.4 0-.1.2-.2.3-.3 5.8-.3 8.4-1 8.8-1.3 0 0-.1 0-.1-.1-.9-.5-4.3-1-8.7-1.3-.1 0-.3-.1-.3-.3 0-.1 0-.3.1-.4 3.6-2.5 4.5-3.9 4.5-4.3l-.1-.1c-.6-.4-3.4.3-8.2 2.6h-.3c-.1 0-.2-.1-.2-.3-.4-2.5-1.2-4.4-2.1-4.9-1.2-.7-2.5 1.4-3 4.9 0 .1-.1.2-.2.3-.1.1-.2.1-.3 0-4.8-2.3-7.6-2.9-8.2-2.6-.1 0-.1 0-.1.1 0 .4.9 1.8 4.5 4.3.1.1.2.2.1.4 0 .1-.2.2-.3.3-5.8.3-8.4 1-8.8 1.3 0 0 .1 0 .1.1.9.5 4.3 1 8.7 1.3.1 0 .3.1.3.3 0 .1 0 .3-.1.4-3.6 2.5-4.5 3.9-4.5 4.3l.1.1c.6.4 3.5-.3 8.2-2.6h.1z"/><path fill="#aa6256" d="M558.8 469.1c-.8 0-1.5-.2-2.1-.5-.6-.4-1-.9-1-1.4 0-.6.3-1.1 1-1.4 1.2-.7 3.1-.7 4.2 0 .6.4 1 .9 1 1.4 0 .5-.4 1.1-1 1.4-.6.3-1.3.5-2.1.5zm0-3.2c-.6 0-1.3.1-1.8.4-.4.2-.6.5-.6.8 0 .3.2.6.6.8 1 .6 2.6.6 3.6 0 .4-.2.6-.5.6-.8 0-.3-.2-.6-.6-.8-.5-.2-1.2-.4-1.8-.4zM588.2 459.8c-.3 0-.6-.1-.8-.2-1-.6-1.9-2.4-2.4-4.9-2.4 1.1-7.1 3.1-8.4 2.3-.2-.1-.4-.4-.4-.7 0-1.1 2-2.8 4-4.3-4.2-.3-7.1-.7-8-1.3-.4-.2-.5-.5-.5-.6 0-.4 0-1.5 8.5-2-2-1.5-4.1-3.2-4-4.3 0-.3.2-.5.4-.6 1.3-.8 6.1 1.2 8.5 2.3.6-3.2 1.8-5.2 3.2-5.2.3 0 .5.1.8.2 1 .6 1.9 2.4 2.4 4.9 2.4-1.1 7.1-3.1 8.5-2.3.2.1.4.4.4.6 0 1.1-2 2.8-4 4.3 4.2.3 7.1.7 8 1.3.1.1.5.3.5.7 0 .9-2.9 1.6-8.5 2 2 1.5 4.1 3.3 4 4.3 0 .3-.2.5-.4.6-1.3.8-6.1-1.2-8.5-2.3-.7 3.3-1.9 5.2-3.3 5.2zm-2.9-6h.2c.1.1.2.1.2.3.4 2.5 1.2 4.4 2.1 4.9.2.1.3.1.5.1 1 0 2.1-2.1 2.5-5 0-.1.1-.2.2-.3s.2-.1.3 0c4.8 2.3 7.6 2.9 8.2 2.6.1 0 .1 0 .1-.1 0-.4-.9-1.8-4.5-4.3-.1-.1-.2-.2-.1-.4 0-.1.2-.2.3-.3 5.8-.3 8.4-1 8.8-1.3 0 0-.1 0-.1-.1-.9-.5-4.3-1-8.7-1.3-.1 0-.3-.1-.3-.3 0-.1 0-.3.1-.4 3.6-2.5 4.5-3.9 4.5-4.3l-.1-.1c-.6-.4-3.4.3-8.2 2.6h-.3c-.1 0-.2-.1-.2-.3-.4-2.5-1.2-4.4-2.1-4.9-.2-.1-.3-.1-.5-.1-1 0-2.1 2.1-2.5 5 0 .1-.1.2-.2.3-.1.1-.2.1-.3 0-4.8-2.3-7.6-2.9-8.2-2.6-.1 0-.1 0-.1.1 0 .4.9 1.8 4.5 4.3.1.1.2.2.1.4 0 .1-.2.2-.3.3-5.8.3-8.4 1-8.8 1.3 0 0 .1 0 .1.1.9.5 4.3 1 8.7 1.3.1 0 .3.1.3.3 0 .1 0 .3-.1.4-3.6 2.5-4.5 3.9-4.5 4.3l.1.1c.6.4 3.5-.3 8.2-2.6h.1z"/><path fill="#aa6256" d="M588.2 452c-.8 0-1.5-.2-2.1-.5-.6-.4-1-.9-1-1.4 0-.6.3-1.1 1-1.4 1.2-.7 3.1-.7 4.3 0 .6.4 1 .9 1 1.4 0 .5-.4 1.1-1 1.4-.7.4-1.5.5-2.2.5zm0-3.2c-.6 0-1.3.1-1.8.4-.4.2-.6.5-.6.8 0 .3.2.6.6.8 1 .6 2.6.6 3.6 0 .4-.2.6-.5.6-.8 0-.3-.2-.6-.6-.8-.6-.2-1.2-.4-1.8-.4z"/><path fill="#111d33" d="M488 427.7c-.5.3-1.4.3-2 0-.5-.3-.5-.8 0-1.1.5-.3 1.4-.3 2 0 .5.3.5.8 0 1.1z"/><path fill="#bf7d5a" d="M343.8 415.5c-.9-.5-3.8-1-7.8-1.3 2.1-1.6 3.4-3 3.4-3.7v-1.1c0-.2-.1-.3-.2-.4-.9-.5-4.5.6-8.8 2.6-.5-2.7-1.3-4.7-2.4-5.3-.2-.1-.4-.2-.7-.2-1.3 0-2.5 2.2-3 5.5-4.4-2.1-7.9-3.2-8.8-2.6-.2.1-.2.2-.2.4v1.1c0 .7 1.3 2.1 3.4 3.7-4.8.3-8.1.9-8.1 1.6v1.1c0 .1.1.3.3.4.9.5 3.8 1 7.8 1.3-2.2 1.7-3.4 3-3.4 3.7v1.1c0 .2.1.3.2.4.9.5 4.5-.6 8.8-2.6.5 2.7 1.3 4.7 2.4 5.3.2.1.4.2.7.2 1.3 0 2.5-2.2 3-5.5 3.6 1.7 6.7 2.8 8.1 2.8.3 0 .5-.1.7-.1.2-.1.2-.2.2-.4v-1.1c.1-.7-1.2-2.1-3.4-3.7 4.8-.3 8.1-1 8.1-1.7v-1.1c0-.1-.1-.3-.3-.4zm-14 1.8c-1.2.7-3.3.8-4.7 0-.4-.2-.7-.5-.8-.8.2-.3.4-.6.8-.8 1.4-.8 3.6-.7 4.7 0 .4.2.7.5.8.8-.1.2-.4.5-.8.8z"/><path fill="#aa6256" d="M339.4 409.4v1.1c0 .9-1.8 2.6-4.8 4.7v-1.1c3-2 4.8-3.8 4.8-4.7zM315.3 410.5v-1.1c0 .8 1.8 2.6 4.8 4.7v1.1c-3-2-4.8-3.8-4.8-4.7zM330.8 415.9v1.1c0-.5-.3-1-1-1.4-1.3-.8-3.4-.8-4.7 0-.6.4-1 .9-1 1.4v-1.1c0-.5.3-1 1-1.4 1.3-.8 3.4-.8 4.7 0 .6.4 1 .9 1 1.4z"/><path fill="#bf7d5a" d="M344.1 415.9v1.1c0 .8-3.8 1.4-9.4 1.7v-1.1c5.6-.3 9.4-.9 9.4-1.7zM320.2 417.6v1.1c-4.6-.3-8.1-.8-9.1-1.4-.2-.1-.3-.3-.3-.4v-1.1c0 .1.1.3.3.4 1 .7 4.4 1.2 9.1 1.4z"/><path fill="#aa6256" d="M339.5 422.3v1.1c0 .2-.1.3-.2.4-.9.5-4.5-.6-8.8-2.6v-1.1c4.4 2.1 7.9 3.2 8.8 2.6.1-.1.2-.2.2-.4zM315.4 423.4v-1.1c0 .2.1.3.2.4.9.5 4.5-.6 8.8-2.6v1.1c-4.3 2.1-7.9 3.2-8.8 2.6-.1-.1-.2-.2-.2-.4z"/><path fill="#dba660" d="M339.3 422.7c-.9.5-4.5-.6-8.8-2.6-.5 3.2-1.7 5.5-3 5.5-.2 0-.4-.1-.7-.2-1-.6-1.9-2.6-2.4-5.3-4.3 2.1-7.9 3.2-8.8 2.6-.9-.5 1-2.6 4.5-5.1-4.6-.3-8.1-.8-9.1-1.4-.2-.1-.3-.3-.3-.4 0-.8 3.9-1.4 9.4-1.7-3.6-2.5-5.5-4.6-4.6-5.1.9-.5 4.5.6 8.8 2.6.5-3.2 1.7-5.5 3-5.5.2 0 .4.1.7.2 1 .6 1.9 2.6 2.4 5.3 4.3-2.1 7.9-3.2 8.8-2.6.9.5-1 2.6-4.5 5.1 4.6.3 8.1.8 9.1 1.4.2.1.3.3.3.4 0 .8-3.8 1.4-9.4 1.7 3.6 2.5 5.5 4.6 4.6 5.1zm-14.2-5.4c1.3.8 3.4.8 4.7 0 1.3-.8 1.3-2 0-2.7-1.3-.8-3.4-.8-4.7 0-1.4.7-1.4 1.9 0 2.7"/><path fill="#bf7d5a" d="M330.4 420.1v1.1c-.5 3.2-1.7 5.5-3 5.5-.2 0-.4-.1-.7-.2-1-.6-1.9-2.6-2.4-5.3v-1.1c.5 2.7 1.3 4.7 2.4 5.3.2.1.4.2.7.2 1.4 0 2.5-2.3 3-5.5zM385.4 393.7c-.9-.5-3.8-1-7.8-1.3 2.1-1.6 3.4-3 3.4-3.7v-1.1c0-.2-.1-.3-.2-.4-.9-.5-4.5.6-8.8 2.6-.5-2.7-1.3-4.7-2.4-5.3-.2-.1-.4-.2-.7-.2-1.3 0-2.5 2.2-3 5.5-4.3-2.1-7.9-3.2-8.8-2.6-.2.1-.2.2-.2.4v1.1c0 .7 1.3 2.1 3.4 3.7-4.8.3-8.1.9-8.1 1.6v1.1c0 .1.1.3.3.4.9.5 3.8 1 7.8 1.3-2.2 1.7-3.4 3-3.4 3.7v1.1c0 .2.1.3.2.4.9.5 4.5-.6 8.8-2.6.5 2.7 1.3 4.7 2.4 5.3.2.1.4.2.7.2 1.3 0 2.5-2.2 3-5.5 3.6 1.7 6.7 2.8 8.1 2.8.3 0 .5-.1.7-.1.2-.1.2-.2.2-.4v-1.1c.1-.7-1.2-2.1-3.4-3.7 4.8-.3 8.1-1 8.1-1.7v-1.1c.1-.1 0-.2-.3-.4zm-14 1.8c-1.3.8-3.4.8-4.7 0-.4-.2-.7-.5-.8-.8.2-.3.4-.6.8-.8 1.3-.8 3.4-.8 4.7 0 .4.2.7.5.8.8-.1.3-.4.6-.8.8z"/><path fill="#aa6256" d="M381.1 387.7v1.1c0 .9-1.8 2.6-4.8 4.7v-1.1c3-2.1 4.8-3.9 4.8-4.7zM356.9 388.8v-1.1c0 .8 1.8 2.6 4.8 4.7v1.1c-2.9-2.1-4.8-3.9-4.8-4.7zM372.4 394.1v1.1c0-.5-.3-1-1-1.4-1.3-.8-3.4-.8-4.7 0-.6.4-1 .9-1 1.4v-1.1c0-.5.3-1 1-1.4 1.3-.8 3.4-.8 4.7 0 .7.4 1 .9 1 1.4z"/><path fill="#bf7d5a" d="M385.8 394.1v1.1c0 .8-3.8 1.4-9.4 1.7v-1.1c5.5-.2 9.4-.9 9.4-1.7zM361.8 395.9v1.1c-4.6-.3-8.1-.8-9.1-1.4-.2-.1-.3-.3-.3-.4v-1.1c0 .1.1.3.3.4 1 .6 4.4 1.1 9.1 1.4z"/><path fill="#aa6256" d="M381.1 400.6v1.1c0 .2-.1.3-.2.4-.9.5-4.5-.6-8.8-2.6v-1.1c4.4 2.1 7.9 3.2 8.8 2.6.2-.1.2-.2.2-.4zM357 401.7v-1.1c0 .2.1.3.2.4.9.5 4.5-.6 8.8-2.6v1.1c-4.3 2.1-7.9 3.2-8.8 2.6-.1-.1-.2-.3-.2-.4z"/><path fill="#dba660" d="M380.9 401c-.9.5-4.5-.6-8.8-2.6-.5 3.2-1.7 5.5-3 5.5-.2 0-.4-.1-.7-.2-1-.6-1.9-2.6-2.4-5.3-4.3 2.1-7.9 3.2-8.8 2.6-.9-.5 1-2.6 4.5-5.1-4.6-.3-8.1-.8-9.1-1.4-.2-.1-.3-.3-.3-.4 0-.8 3.9-1.4 9.4-1.7-3.6-2.5-5.5-4.6-4.6-5.1.9-.5 4.5.6 8.8 2.6.5-3.2 1.7-5.5 3-5.5.2 0 .4.1.7.2 1 .6 1.9 2.6 2.4 5.3 4.3-2.1 7.9-3.2 8.8-2.6.9.5-1 2.6-4.5 5.1 4.6.3 8.1.8 9.1 1.4.2.1.3.3.3.4 0 .8-3.8 1.4-9.4 1.7 3.6 2.5 5.5 4.5 4.6 5.1zm-14.2-5.5c1.3.8 3.4.8 4.7 0 1.3-.8 1.3-2 0-2.7-1.3-.8-3.4-.8-4.7 0-1.3.7-1.3 1.9 0 2.7"/><path fill="#bf7d5a" d="M372.1 398.3v1.1c-.5 3.2-1.7 5.5-3 5.5-.2 0-.4-.1-.7-.2-1-.6-1.9-2.6-2.4-5.3v-1.1c.5 2.7 1.3 4.7 2.4 5.3.2.1.4.2.7.2 1.3 0 2.5-2.2 3-5.5zM431.3 385.2c-.9-.5-3.8-1-7.8-1.3 2.1-1.6 3.4-3 3.4-3.7v-1.1c0-.2-.1-.3-.2-.4-.9-.5-4.5.6-8.8 2.6-.5-2.7-1.3-4.7-2.4-5.3-.2-.1-.4-.2-.7-.2-1.3 0-2.5 2.2-3 5.5-4.4-2.1-7.9-3.2-8.8-2.6-.2.1-.2.2-.2.4v1.1c0 .7 1.3 2.1 3.4 3.7-4.8.3-8.1 1-8.1 1.7v1.1c0 .1.1.3.3.4.9.5 3.8 1 7.8 1.3-2.2 1.7-3.4 3-3.4 3.7v1.1c0 .2.1.3.2.4.9.5 4.5-.6 8.8-2.6.5 2.7 1.3 4.7 2.4 5.3.2.1.4.2.7.2 1.3 0 2.5-2.2 3-5.5 3.6 1.7 6.7 2.8 8.1 2.8.3 0 .6-.1.7-.1.1-.1.2-.2.2-.4v-1.1c.1-.7-1.2-2.1-3.4-3.7 4.8-.3 8.1-.9 8.1-1.7v-1.1c0-.2-.1-.4-.3-.5zm-14 1.8c-1.3.8-3.4.8-4.7 0-.4-.2-.7-.5-.8-.8.2-.3.4-.6.8-.8 1.3-.8 3.4-.8 4.7 0 .4.2.7.5.8.8-.2.3-.4.5-.8.8z"/><path fill="#aa6256" d="M426.9 379.2v1.1c0 .9-1.8 2.6-4.8 4.7v-1.1c3-2.1 4.8-3.9 4.8-4.7zM402.8 380.3v-1.1c0 .8 1.8 2.6 4.8 4.7v1.1c-3-2.1-4.8-3.9-4.8-4.7zM418.2 385.6v1.1c0-.5-.3-1-1-1.4-1.3-.8-3.4-.8-4.7 0-.6.4-1 .9-1 1.4v-1.1c0-.5.3-1 1-1.4 1.3-.8 3.4-.8 4.7 0 .7.4 1 .9 1 1.4z"/><path fill="#bf7d5a" d="M431.6 385.6v1.1c0 .8-3.8 1.4-9.4 1.7v-1.1c5.6-.3 9.4-.9 9.4-1.7zM407.6 387.4v1.1c-4.6-.3-8.1-.8-9.1-1.4-.2-.1-.3-.3-.3-.4v-1.1c0 .1.1.3.3.4 1 .6 4.5 1.1 9.1 1.4z"/><path fill="#aa6256" d="M427 392.1v1.1c0 .2-.1.3-.2.4-.9.5-4.5-.6-8.8-2.6v-1.1c4.4 2.1 7.9 3.2 8.8 2.6.1-.1.2-.3.2-.4zM402.9 393.1V392c0 .2.1.3.2.4.9.5 4.5-.6 8.8-2.6v1.1c-4.3 2.1-7.9 3.2-8.8 2.6-.2 0-.2-.2-.2-.4z"/><path fill="#dba660" d="M426.8 392.5c-.9.5-4.5-.6-8.8-2.6-.5 3.2-1.7 5.5-3 5.5-.2 0-.4-.1-.7-.2-1-.6-1.9-2.6-2.4-5.3-4.3 2.1-7.9 3.2-8.8 2.6-.9-.5 1-2.6 4.5-5.1-4.6-.3-8.1-.8-9.1-1.4-.2-.1-.3-.3-.3-.4 0-.8 3.9-1.4 9.4-1.7-3.6-2.5-5.5-4.6-4.6-5.1.9-.5 4.5.6 8.8 2.6.5-3.2 1.7-5.5 3-5.5.2 0 .4.1.7.2 1 .6 1.9 2.6 2.4 5.3 4.3-2.1 7.9-3.2 8.8-2.6.9.5-1 2.6-4.5 5.1 4.6.3 8.1.8 9.1 1.4.2.1.3.3.3.4 0 .8-3.8 1.4-9.4 1.7 3.6 2.5 5.5 4.5 4.6 5.1zm-14.3-5.5c1.3.8 3.4.8 4.7 0 1.3-.8 1.3-2 0-2.7-1.3-.8-3.4-.8-4.7 0-1.3.7-1.3 1.9 0 2.7"/><path fill="#bf7d5a" d="M417.9 389.8v1.1c-.5 3.2-1.7 5.5-3 5.5-.2 0-.4-.1-.7-.2-1-.6-1.9-2.6-2.4-5.3v-1.1c.5 2.7 1.3 4.7 2.4 5.3.2.1.4.2.7.2 1.4 0 2.5-2.2 3-5.5zM427.9 349c-.9-.5-3.8-1-7.8-1.3 2.1-1.6 3.4-3 3.4-3.7v-1.1c0-.2-.1-.3-.2-.4-.9-.5-4.5.6-8.8 2.6-.5-2.7-1.3-4.7-2.4-5.3-.2-.1-.4-.2-.7-.2-1.3 0-2.5 2.2-3 5.5-4.3-2.1-7.9-3.2-8.8-2.6-.2.1-.2.2-.2.4v1.1c0 .7 1.3 2.1 3.4 3.7-4.8.3-8.1.9-8.1 1.7v1.1c0 .1.1.3.3.4.9.5 3.8 1 7.8 1.3-2.2 1.7-3.4 3-3.4 3.7v1.1c0 .2.1.3.2.4.9.6 4.5-.6 8.8-2.6.5 2.7 1.3 4.7 2.4 5.3.2.1.4.2.7.2 1.3 0 2.5-2.2 3-5.5 3.6 1.7 6.7 2.8 8.1 2.8.3 0 .5-.1.7-.1.2-.1.2-.2.2-.4V356c.1-.7-1.2-2.1-3.4-3.7 4.8-.3 8.1-.9 8.1-1.7v-1.1c.1-.3 0-.4-.3-.5zm-14 1.7c-1.3.8-3.4.8-4.7 0-.4-.2-.7-.5-.8-.8.1-.3.4-.6.8-.8 1.3-.8 3.4-.8 4.7 0 .4.2.7.5.8.8-.1.3-.4.6-.8.8z"/><path fill="#aa6256" d="M423.6 342.9v1.1c0 .9-1.8 2.6-4.8 4.7v-1.1c3-2.1 4.8-3.8 4.8-4.7zM399.4 344v-1.1c0 .8 1.8 2.6 4.8 4.7v1.1c-2.9-2.1-4.8-3.8-4.8-4.7zM414.9 349.4v1.1c0-.5-.3-1-1-1.4-1.3-.8-3.4-.8-4.7 0-.6.4-1 .9-1 1.4v-1.1c0-.5.3-1 1-1.4 1.3-.8 3.4-.8 4.7 0 .7.4 1 .9 1 1.4z"/><path fill="#bf7d5a" d="M428.3 349.4v1.1c0 .8-3.8 1.4-9.4 1.7v-1.1c5.5-.3 9.4-1 9.4-1.7zM404.3 351.1v1.1c-4.6-.3-8.1-.8-9.1-1.4-.2-.1-.3-.3-.3-.4v-1.1c0 .1.1.3.3.4 1 .6 4.4 1.1 9.1 1.4z"/><path fill="#aa6256" d="M423.6 355.8v1.1c0 .2-.1.3-.2.4-.9.5-4.5-.6-8.8-2.6v-1.1c4.4 2.1 7.9 3.2 8.8 2.6.2-.1.2-.2.2-.4zM399.5 356.9v-1.1c0 .2.1.3.2.4.9.5 4.5-.6 8.8-2.6v1.1c-4.3 2.1-7.9 3.2-8.8 2.6-.1-.1-.2-.2-.2-.4z"/><path fill="#dba660" d="M423.4 356.2c-.9.5-4.5-.6-8.8-2.6-.5 3.2-1.7 5.5-3 5.5-.2 0-.4-.1-.7-.2-1-.6-1.9-2.6-2.4-5.3-4.3 2.1-7.9 3.2-8.8 2.6-.9-.5 1-2.6 4.5-5.1-4.6-.3-8.1-.8-9.1-1.4-.2-.1-.3-.3-.3-.4 0-.8 3.9-1.4 9.4-1.7-3.6-2.5-5.5-4.6-4.6-5.1.9-.5 4.5.6 8.8 2.6.5-3.2 1.7-5.5 3-5.5.2 0 .4.1.7.2 1 .6 1.9 2.6 2.4 5.3 4.3-2.1 7.9-3.2 8.8-2.6.9.5-1 2.6-4.5 5.1 4.6.3 8.1.8 9.1 1.4.2.1.3.3.3.4 0 .8-3.8 1.4-9.4 1.7 3.6 2.5 5.5 4.6 4.6 5.1zm-14.2-5.5c1.3.8 3.4.8 4.7 0 1.3-.8 1.3-2 0-2.7-1.3-.8-3.4-.8-4.7 0-1.3.8-1.3 2 0 2.7"/><path fill="#bf7d5a" d="M414.6 353.6v1.1c-.5 3.2-1.7 5.5-3 5.5-.2 0-.4-.1-.7-.2-1-.6-1.9-2.6-2.4-5.3v-1.1c.5 2.7 1.3 4.7 2.4 5.3.2.1.4.2.7.2 1.3 0 2.5-2.3 3-5.5zM378.2 334.8c-.9-.5-3.8-1-7.8-1.3 2.1-1.6 3.4-3 3.4-3.7v-1.1c0-.2-.1-.3-.2-.4-.9-.5-4.5.6-8.8 2.6-.5-2.7-1.3-4.7-2.4-5.3-.2-.1-.4-.2-.7-.2-1.3 0-2.5 2.2-3 5.5-4.4-2.1-7.9-3.2-8.8-2.6-.2.1-.2.2-.2.4v1.1c0 .7 1.3 2.1 3.4 3.7-4.8.3-8.1.9-8.1 1.6v1.1c0 .1.1.3.3.4.9.5 3.8 1 7.8 1.3-2.2 1.7-3.4 3-3.4 3.7v1.1c0 .2.1.3.2.4.9.5 4.5-.6 8.8-2.6.5 2.7 1.3 4.7 2.4 5.3.2.1.4.2.7.2 1.3 0 2.5-2.2 3-5.5 3.6 1.7 6.7 2.8 8.1 2.8.3 0 .5 0 .7-.1.2-.1.2-.2.2-.4v-1.1c0-.7-1.2-2.1-3.4-3.7 4.8-.3 8.1-1 8.1-1.7v-1.1c0-.2-.1-.3-.3-.4zm-14 1.7c-1.3.8-3.4.8-4.7 0-.4-.2-.7-.5-.8-.8.1-.3.4-.6.8-.8 1.3-.8 3.4-.8 4.7 0 .4.2.7.5.8.8-.2.3-.4.6-.8.8z"/><path fill="#aa6256" d="M373.8 328.7v1.1c0 .9-1.8 2.6-4.8 4.7v-1.1c3-2.1 4.8-3.8 4.8-4.7zM349.7 329.8v-1.1c0 .8 1.8 2.6 4.8 4.7v1.1c-3-2.1-4.8-3.8-4.8-4.7zM365.1 335.2v1.1c0-.5-.3-1-1-1.4-1.3-.8-3.4-.8-4.7 0-.6.4-1 .9-1 1.4v-1.1c0-.5.3-1 1-1.4 1.3-.8 3.4-.8 4.7 0 .7.4 1 .9 1 1.4z"/><path fill="#bf7d5a" d="M378.5 335.2v1.1c0 .8-3.8 1.4-9.4 1.7v-1.1c5.6-.3 9.4-1 9.4-1.7zM354.5 336.9v1.1c-4.6-.3-8.1-.8-9.1-1.4-.2-.1-.3-.3-.3-.4v-1.1c0 .1.1.3.3.4 1 .6 4.5 1.1 9.1 1.4z"/><path fill="#aa6256" d="M373.9 341.6v1.1c0 .2-.1.3-.2.4-.9.5-4.5-.6-8.8-2.6v-1.1c4.4 2.1 7.9 3.2 8.8 2.6.1-.1.2-.2.2-.4zM349.8 342.7v-1.1c0 .2.1.3.2.4.9.5 4.5-.6 8.8-2.6v1.1c-4.3 2.1-7.9 3.2-8.8 2.6-.2-.1-.2-.2-.2-.4z"/><path fill="#dba660" d="M373.7 342c-.9.5-4.5-.6-8.8-2.6-.5 3.2-1.7 5.5-3 5.5-.2 0-.4-.1-.7-.2-1-.6-1.9-2.6-2.4-5.3-4.3 2.1-7.9 3.2-8.8 2.6-.9-.5 1-2.6 4.5-5.1-4.6-.3-8.1-.8-9.1-1.4-.2-.1-.3-.3-.3-.4 0-.8 3.9-1.4 9.4-1.7-3.6-2.5-5.5-4.6-4.6-5.1.9-.5 4.5.6 8.8 2.6.5-3.2 1.7-5.5 3-5.5.2 0 .4.1.7.2 1 .6 1.9 2.6 2.4 5.3 4.3-2.1 7.9-3.2 8.8-2.6.9.5-1 2.6-4.5 5.1 4.6.3 8.1.8 9.1 1.4.2.1.3.3.3.4 0 .8-3.8 1.4-9.4 1.7 3.6 2.5 5.5 4.6 4.6 5.1zm-14.3-5.5c1.3.8 3.4.8 4.7 0 1.3-.8 1.3-2 0-2.7-1.3-.8-3.4-.8-4.7 0-1.3.7-1.3 2 0 2.7"/><path fill="#bf7d5a" d="M364.8 339.4v1.1c-.5 3.2-1.7 5.5-3 5.5-.2 0-.4-.1-.7-.2-1-.6-1.9-2.6-2.4-5.3v-1.1c.5 2.7 1.3 4.7 2.4 5.3.2.1.4.2.7.2 1.4-.1 2.5-2.3 3-5.5zM350.9 365.4c-.9-.5-3.8-1-7.8-1.3 2.1-1.6 3.4-3 3.4-3.7v-1.1c0-.2-.1-.3-.2-.4-.9-.5-4.5.6-8.8 2.6-.5-2.7-1.3-4.7-2.4-5.3-.2-.1-.4-.2-.7-.2-1.3 0-2.5 2.2-3 5.5-4.4-2.1-7.9-3.2-8.8-2.6-.2.1-.2.2-.2.4v1.1c0 .7 1.3 2.1 3.4 3.7-4.8.3-8.1 1-8.1 1.6v1.1c0 .1.1.3.3.4.9.5 3.8 1 7.8 1.3-2.2 1.7-3.4 3-3.4 3.7v1.1c0 .2.1.3.2.4.9.5 4.5-.6 8.8-2.6.5 2.7 1.3 4.7 2.4 5.3.2.1.4.2.7.2 1.3 0 2.5-2.2 3-5.5 3.6 1.7 6.7 2.8 8.1 2.8.3 0 .5-.1.7-.1.2-.1.2-.2.2-.4v-1.1c.1-.7-1.2-2.1-3.4-3.7 4.8-.3 8.1-1 8.1-1.7v-1.1c0-.2-.1-.3-.3-.4zm-14.1 1.7c-1.3.8-3.4.8-4.7 0-.4-.2-.7-.5-.8-.8.1-.3.4-.6.8-.8 1.3-.8 3.4-.8 4.7 0 .4.2.7.5.8.8-.1.3-.4.6-.8.8z"/><path fill="#aa6256" d="M346.5 359.3v1.1c0 .9-1.8 2.6-4.8 4.7V364c3-2.1 4.8-3.8 4.8-4.7zM322.4 360.4v-1.1c0 .8 1.8 2.6 4.8 4.7v1.1c-3-2.1-4.8-3.9-4.8-4.7zM337.8 365.8v1.1c0-.5-.3-1-1-1.4-1.3-.8-3.4-.8-4.7 0-.6.4-1 .9-1 1.4v-1.1c0-.5.3-1 1-1.4 1.3-.8 3.4-.8 4.7 0 .7.4 1 .9 1 1.4z"/><path fill="#bf7d5a" d="M351.2 365.7v1.1c0 .8-3.8 1.4-9.4 1.7v-1.1c5.5-.2 9.4-.9 9.4-1.7zM327.2 367.5v1.1c-4.6-.3-8.1-.8-9.1-1.4-.2-.1-.3-.3-.3-.4v-1.1c0 .1.1.3.3.4 1 .6 4.5 1.1 9.1 1.4z"/><path fill="#aa6256" d="M346.6 372.2v1.1c0 .2-.1.3-.2.4-.9.5-4.5-.6-8.8-2.6V370c4.4 2.1 7.9 3.2 8.8 2.6.1-.1.2-.2.2-.4zM322.4 373.3v-1.1c0 .2.1.3.2.4.9.5 4.5-.6 8.8-2.6v1.1c-4.3 2.1-7.9 3.2-8.8 2.6-.1-.1-.2-.2-.2-.4z"/><path fill="#dba660" d="M346.3 372.6c-.9.5-4.5-.6-8.8-2.6-.5 3.2-1.7 5.5-3 5.5-.2 0-.4-.1-.7-.2-1-.6-1.9-2.6-2.4-5.3-4.3 2.1-7.9 3.2-8.8 2.6-.9-.5 1-2.6 4.5-5.1-4.6-.3-8.1-.8-9.1-1.4-.2-.1-.3-.3-.3-.4 0-.8 3.9-1.4 9.4-1.7-3.6-2.5-5.5-4.6-4.6-5.1.9-.5 4.5.6 8.8 2.6.5-3.2 1.7-5.5 3-5.5.2 0 .4.1.7.2 1 .6 1.9 2.6 2.4 5.3 4.3-2.1 7.9-3.2 8.8-2.6.9.5-1 2.6-4.5 5.1 4.6.3 8.1.8 9.1 1.4.2.1.3.3.3.4 0 .8-3.8 1.4-9.4 1.7 3.6 2.5 5.6 4.6 4.6 5.1zm-14.2-5.5c1.3.8 3.4.8 4.7 0 1.3-.8 1.3-2 0-2.7-1.3-.8-3.4-.8-4.7 0-1.3.7-1.3 2 0 2.7"/><path fill="#bf7d5a" d="M337.5 370v1.1c-.5 3.2-1.7 5.5-3 5.5-.2 0-.4-.1-.7-.2-1-.6-1.9-2.6-2.4-5.3V370c.5 2.7 1.3 4.7 2.4 5.3.2.1.4.2.7.2 1.3-.1 2.5-2.3 3-5.5zM302 385.4c-.9-.5-3.8-1-7.8-1.3 2.1-1.6 3.4-3 3.4-3.7v-1.1c0-.2-.1-.3-.2-.4-.9-.6-4.5.6-8.8 2.6-.5-2.7-1.3-4.7-2.4-5.3-.2-.1-.4-.2-.7-.2-1.3 0-2.4 2.2-3 5.5-4.3-2.1-7.9-3.2-8.8-2.6-.2.1-.2.2-.2.4v1.1c0 .7 1.3 2.1 3.4 3.7-4.8.3-8.1 1-8.1 1.6v1.1c0 .1.1.3.3.4.9.5 3.8 1 7.8 1.3-2.2 1.7-3.4 3-3.4 3.7v1.1c0 .2.1.3.2.4.9.5 4.5-.6 8.8-2.6.5 2.7 1.3 4.7 2.4 5.3.2.1.4.2.7.2 1.3 0 2.5-2.2 3-5.5 3.6 1.7 6.7 2.8 8.1 2.8.3 0 .5-.1.7-.1.2-.1.2-.2.2-.4v-1.1c0-.7-1.3-2.1-3.4-3.7 4.8-.3 8.1-1 8.1-1.7v-1.1c.1-.2 0-.3-.3-.4zm-14 1.7c-1.3.8-3.4.8-4.7 0-.4-.2-.7-.5-.8-.8.2-.3.4-.6.8-.8 1.3-.8 3.4-.8 4.7 0 .4.2.7.5.8.8-.1.3-.4.6-.8.8z"/><path fill="#aa6256" d="M297.7 379.3v1.1c0 .9-1.8 2.6-4.8 4.7V384c3-2.1 4.8-3.8 4.8-4.7zM273.5 380.4v-1.1c0 .8 1.8 2.6 4.8 4.7v1.1c-2.9-2.1-4.8-3.9-4.8-4.7zM289 385.8v1.1c0-.5-.3-1-1-1.4-1.3-.8-3.4-.8-4.7 0-.6.4-1 .9-1 1.4v-1.1c0-.5.3-1 1-1.4 1.3-.8 3.4-.8 4.7 0 .7.4 1 .9 1 1.4z"/><path fill="#bf7d5a" d="M302.4 385.8v1.1c0 .8-3.8 1.4-9.4 1.7v-1.1c5.5-.3 9.4-1 9.4-1.7zM278.4 387.5v1.1c-4.6-.3-8.1-.8-9.1-1.4-.2-.1-.3-.3-.3-.4v-1.1c0 .1.1.3.3.4 1 .6 4.4 1.1 9.1 1.4z"/><path fill="#aa6256" d="M297.7 392.2v1.1c0 .2-.1.3-.2.4-.9.5-4.5-.6-8.8-2.6V390c4.4 2.1 7.9 3.2 8.8 2.6.2-.1.2-.2.2-.4zM273.6 393.3v-1.1c0 .2.1.3.2.4.9.5 4.5-.6 8.8-2.6v1.1c-4.3 2.1-7.9 3.2-8.8 2.6-.1-.1-.2-.2-.2-.4z"/><path fill="#dba660" d="M297.5 392.6c-.9.5-4.5-.6-8.8-2.6-.5 3.2-1.7 5.5-3 5.5-.2 0-.4-.1-.7-.2-1-.6-1.9-2.6-2.4-5.3-4.3 2.1-7.9 3.2-8.8 2.6-.9-.5 1-2.6 4.5-5.1-4.6-.3-8.1-.8-9.1-1.4-.2-.1-.3-.3-.3-.4 0-.8 3.9-1.4 9.4-1.7-3.6-2.5-5.5-4.6-4.6-5.1.9-.5 4.5.6 8.8 2.6.5-3.2 1.7-5.5 3-5.5.2 0 .4.1.7.2 1 .6 1.9 2.6 2.4 5.3 4.3-2.1 7.9-3.2 8.8-2.6.9.5-1 2.6-4.5 5.1 4.6.3 8.1.8 9.1 1.4.2.1.3.3.3.4 0 .8-3.8 1.4-9.4 1.7 3.6 2.5 5.5 4.6 4.6 5.1zm-14.2-5.5c1.3.8 3.4.8 4.7 0 1.3-.8 1.3-2 0-2.7-1.3-.8-3.4-.8-4.7 0-1.3.7-1.3 2 0 2.7"/><path fill="#bf7d5a" d="M288.7 390v1.1c-.5 3.2-1.7 5.5-3 5.5-.2 0-.4-.1-.7-.2-1-.6-1.9-2.6-2.4-5.3V390c.5 2.7 1.3 4.7 2.4 5.3.2.1.4.2.7.2 1.3-.1 2.5-2.3 3-5.5z"/><path fill="#dba660" d="m363.9 635.9-6.6 3.8 6.6 3.8v2.8l-136.2 78.6-61.8-35.9v-2.8l2-1.2-9.4-5.5v-2.8l6.6-3.8-8.5-4.9v-2.9l136.1-78.6 4.8 2.8 4.5-2.6 61.9 35.9v2.9l-6.6 3.8 6.6 3.8z"/><path fill="#aa6256" d="M165.9 686.2v2.8l61.8 35.9v-2.8z"/><path fill="#bf7d5a" d="M227.7 722.1v2.8l136.2-78.6v-2.8z"/><path fill="#dba660" d="m165.9 686.2 61.8 35.9 136.2-78.6-61.9-35.9z"/><path fill="#aa6256" d="M158.5 676.7v2.8l61.9 36v-2.9z"/><path fill="#bf7d5a" d="M220.4 712.6v2.9l136.1-78.6V634z"/><path fill="#dba660" d="m158.5 676.7 61.9 35.9L356.5 634l-61.8-35.9z"/><path fill="#aa6256" d="M165.9 675.7v2.9l61.8 35.9v-2.8z"/><path fill="#bf7d5a" d="M227.7 711.7v2.8l136.2-78.6v-2.8z"/><path fill="#dba660" d="m165.9 675.7 61.8 36 136.2-78.6-61.9-36z"/><path fill="#8a4852" d="M156.6 665.1v2.9l61.8 35.9v-2.8z"/><path fill="#aa6256" d="M218.4 701.1v2.8l136.2-78.6v-2.8z"/><path fill="#bf7d5a" d="m156.6 665.1 61.8 36 136.2-78.6-61.9-36z"/><path fill="#aa6256" d="M165.9 665.3v2.8l61.8 36v-2.8z"/><path fill="#bf7d5a" d="M227.7 701.3v2.8l136.2-78.6v-2.9z"/><path fill="#dba660" d="M165.9 665.3l61.8 36 136.2-78.7-61.9-35.9zM675 278.2l-6.4 3.7 4.9 2.9v2.1l-7.1 4.1 1.6.9v2.1l-46.7 27.2-67.6-39.1v-2.2l4.9-2.8-4.9-2.9v-2.1l4.9-2.9-4.9-2.8v-2.2l46.6-27.1 3.4 2 3.6-2.1 67.7 39.1z"/><path fill="#aa6256" d="M668 291.9v2.2l-46.7 27.1V319z"/><path fill="#bf7d5a" d="M621.3 319v2.2l-67.6-39.1v-2.2z"/><path fill="#dba660" d="M668 291.9 621.3 319l-67.6-39.1 46.6-27.1z"/><path fill="#aa6256" d="M673.5 284.8v2.1L626.9 314v-2.1z"/><path fill="#bf7d5a" d="M626.9 311.9v2.1l-67.7-39.1v-2.1z"/><path fill="#dba660" d="m673.5 284.8-46.6 27.1-67.7-39.1 46.6-27.1z"/><g><path fill="#aa6256" d="M668 284.1v2.1l-46.7 27.1v-2.1z"/><path fill="#bf7d5a" d="M621.3 311.2v2.1l-67.6-39.1v-2.1z"/><path fill="#dba660" d="m668 284.1-46.7 27.1-67.6-39.1 46.6-27.1z"/></g><g><path fill="#8a4852" d="M675 276.1v2.1l-46.7 27.1v-2.1z"/><path fill="#aa6256" d="M628.3 303.2v2.1l-67.6-39.1v-2.1z"/><path fill="#bf7d5a" d="m675 276.1-46.7 27.1-67.6-39.1 46.6-27.1z"/></g><g><path fill="#aa6256" d="M668 276.2v2.1l-46.7 27.1v-2.1z"/><path fill="#bf7d5a" d="M621.3 303.3v2.1l-67.6-39v-2.2z"/><path fill="#dba660" d="m668 276.2-46.7 27.1-67.6-39.1 46.6-27.1z"/></g><g><path fill="#f45170" d="M695.1 475.1V507l-29.5 17.1-19-11v-45.5l29.5-17.1 9.4 5.4z"/></g><g><path fill="#df3260" d="m665.6 524.1 29.5-17.1v-31.8l-29.5 17.1z"/><path fill="#4c5c75" d="m665.6 492.3 29.5-17.1-9.6-19.3-29.4 17.1z"/><path fill="#f45170" d="m656.1 473 29.4-17.1-9.4-5.4-29.5 17.1z"/><path fill="#cc104a" d="M646.6 467.6v45.5l19 11v-31.8l-9.5-19.3z"/></g><path fill="#5ec363" d="m672.8 497.9-3.1 5.4-.9-.5c-.4-.2-.6-.7-.6-1.4 0-1.4 1-3.1 2.2-3.8.6-.3 1.2-.4 1.6-.1l.8.4z"/><path fill="#ffb961" d="m682.8 492.2-3.1 5.4-.9-.5c-.4-.2-.6-.7-.6-1.4 0-1.4 1-3.1 2.2-3.8.6-.3 1.2-.4 1.6-.1l.8.4z"/><path fill="#dedffb" d="m692.8 486.4-3.1 5.4-.9-.5c-.4-.2-.6-.7-.6-1.4 0-1.4 1-3.1 2.2-3.8.6-.4 1.2-.4 1.6-.2l.8.5z"/><path fill="#78e75a" d="M671.2 498.1c1.2-.7 2.2-.1 2.2 1.3 0 1.4-1 3.1-2.2 3.8-1.2.7-2.2.1-2.2-1.3 0-1.4 1-3.1 2.2-3.8z"/><path fill="#ffdd95" d="M681.2 492.3c1.2-.7 2.2-.1 2.2 1.3 0 1.4-1 3.1-2.2 3.8-1.2.7-2.2.1-2.2-1.3 0-1.4 1-3.1 2.2-3.8z"/><path fill="#f8f9fe" d="M691.2 486.6c1.2-.7 2.2-.1 2.2 1.3 0 1.4-1 3.1-2.2 3.8-1.2.7-2.2.1-2.2-1.3 0-1.4 1-3.1 2.2-3.8z"/><path fill="#dedffb" d="m658.3 473.7 8 16.2 26.6-15.4-8.1-16.2z"/><path fill="#bf7d5a" d="M462.7 679.1c-.9-.5-3.8-1-7.8-1.3 2.1-1.6 3.4-3 3.4-3.7V673c0-.2-.1-.3-.2-.4-.9-.5-4.5.6-8.8 2.6-.5-2.7-1.3-4.7-2.4-5.3-.2-.1-.4-.2-.7-.2-1.3 0-2.5 2.2-3 5.5-4.3-2.1-7.9-3.2-8.8-2.6-.2.1-.2.2-.2.4v1.1c0 .7 1.3 2.1 3.4 3.7-4.8.3-8.1 1-8.1 1.7v1.1c0 .1.1.3.3.4.9.5 3.8 1 7.8 1.3-2.2 1.7-3.4 3-3.4 3.7v1.1c0 .2.1.3.2.4.9.5 4.5-.6 8.8-2.6.5 2.7 1.3 4.7 2.4 5.3.2.1.4.2.7.2 1.3 0 2.5-2.2 3-5.5 3.6 1.7 6.7 2.8 8.1 2.8.3 0 .5-.1.7-.1.1-.1.2-.2.2-.4V686c.1-.7-1.2-2.1-3.4-3.7 4.8-.3 8.1-.9 8.1-1.6v-1.1c0-.2-.1-.3-.3-.5zm-14 1.8c-1.3.8-3.4.8-4.7 0-.4-.2-.7-.5-.8-.8.2-.3.4-.6.8-.8 1.3-.8 3.4-.8 4.7 0 .4.2.7.5.8.8-.2.3-.4.5-.8.8z"/><g><path fill="#aa6256" d="M458.3 673.1v1.1c0 .9-1.8 2.6-4.8 4.7v-1.1c3-2.1 4.8-3.9 4.8-4.7zM434.2 674.2v-1.1c0 .8 1.8 2.6 4.8 4.7v1.1c-3-2.1-4.8-3.9-4.8-4.7zM449.6 679.5v1.1c0-.5-.3-1-1-1.4-1.3-.8-3.4-.8-4.7 0-.6.4-1 .9-1 1.4v-1.1c0-.5.3-1 1-1.4 1.3-.8 3.4-.8 4.7 0 .7.4 1 .9 1 1.4z"/><path fill="#bf7d5a" d="M463 679.5v1.1c0 .8-3.8 1.4-9.4 1.7v-1.1c5.6-.3 9.4-.9 9.4-1.7zM439 681.3v1.1c-4.6-.3-8.1-.8-9.1-1.4-.2-.1-.3-.3-.3-.4v-1.1c0 .1.1.3.3.4 1 .6 4.5 1.1 9.1 1.4z"/><path fill="#aa6256" d="M458.4 686v1.1c0 .2-.1.3-.2.4-.9.5-4.5-.6-8.8-2.6v-1.1c4.4 2.1 7.9 3.2 8.8 2.6.1-.1.2-.3.2-.4zM434.3 687.1V686c0 .2.1.3.2.4.9.5 4.5-.6 8.8-2.6v1.1c-4.3 2.1-7.9 3.2-8.8 2.6-.2-.1-.2-.3-.2-.4z"/><path fill="#dba660" d="M458.2 686.4c-.9.5-4.5-.6-8.8-2.6-.5 3.2-1.7 5.5-3 5.5-.2 0-.4-.1-.7-.2-1-.6-1.9-2.6-2.4-5.3-4.3 2.1-7.9 3.2-8.8 2.6-.9-.5 1-2.6 4.5-5.1-4.6-.3-8.1-.8-9.1-1.4-.2-.1-.3-.3-.3-.4 0-.8 3.9-1.4 9.4-1.7-3.6-2.5-5.5-4.6-4.6-5.1.9-.5 4.5.6 8.8 2.6.5-3.2 1.7-5.5 3-5.5.2 0 .4.1.7.2 1 .6 1.9 2.6 2.4 5.3 4.3-2.1 7.9-3.2 8.8-2.6.9.5-1 2.6-4.5 5.1 4.6.3 8.1.8 9.1 1.4.2.1.3.3.3.4 0 .8-3.8 1.4-9.4 1.7 3.6 2.5 5.5 4.5 4.6 5.1zm-14.3-5.5c1.3.8 3.4.8 4.7 0 1.3-.8 1.3-2 0-2.7-1.3-.8-3.4-.8-4.7 0-1.3.7-1.3 1.9 0 2.7"/><path fill="#bf7d5a" d="M449.3 683.7v1.1c-.5 3.2-1.7 5.5-3 5.5-.2 0-.4-.1-.7-.2-1-.6-1.9-2.6-2.4-5.3v-1.1c.5 2.7 1.3 4.7 2.4 5.3.2.1.4.2.7.2 1.4 0 2.5-2.2 3-5.5z"/></g><path fill="#bf7d5a" d="M375.3 707.8c-.9-.5-3.8-1-7.8-1.3 2.1-1.6 3.4-3 3.4-3.7v-1.1c0-.2-.1-.3-.2-.4-.9-.5-4.5.6-8.8 2.6-.5-2.7-1.3-4.7-2.4-5.3-.2-.1-.4-.2-.7-.2-1.3 0-2.5 2.2-3 5.5-4.4-2.1-7.9-3.2-8.8-2.6-.2.1-.2.2-.2.4v1.1c0 .7 1.3 2.1 3.4 3.7-4.8.3-8.1.9-8.1 1.6v1.1c0 .1.1.3.3.4.9.5 3.8 1 7.8 1.3-2.2 1.7-3.4 3-3.4 3.7v1.1c0 .2.1.3.2.4.9.5 4.5-.6 8.8-2.6.5 2.7 1.3 4.7 2.4 5.3.2.1.4.2.7.2 1.3 0 2.5-2.2 3-5.5 3.6 1.7 6.7 2.8 8.1 2.8.3 0 .5-.1.7-.1s.2-.2.2-.4v-1.1c.1-.7-1.2-2.1-3.4-3.7 4.8-.3 8.1-1 8.1-1.7v-1.1c0-.2-.1-.3-.3-.4zm-14 1.7c-1.3.8-3.4.8-4.7 0-.4-.2-.7-.5-.8-.8.2-.3.4-.6.8-.8 1.3-.8 3.4-.8 4.7 0 .4.2.7.5.8.8-.2.3-.4.6-.8.8z"/><g><path fill="#aa6256" d="M370.9 701.7v1.1c0 .9-1.8 2.6-4.8 4.7v-1.1c3-2.1 4.8-3.8 4.8-4.7zM346.8 702.8v-1.1c0 .8 1.8 2.6 4.8 4.7v1.1c-3-2.1-4.8-3.9-4.8-4.7zM362.2 708.1v1.1c0-.5-.3-1-1-1.4-1.3-.8-3.4-.8-4.7 0-.6.4-1 .9-1 1.4v-1.1c0-.5.3-1 1-1.4 1.3-.8 3.4-.8 4.7 0 .7.5 1 1 1 1.4z"/><path fill="#bf7d5a" d="M375.6 708.1v1.1c0 .8-3.8 1.4-9.4 1.7v-1.1c5.6-.2 9.4-.9 9.4-1.7zM351.6 709.9v1.1c-4.6-.3-8.1-.8-9.1-1.4-.2-.1-.3-.3-.3-.4v-1.1c0 .1.1.3.3.4 1 .6 4.5 1.1 9.1 1.4z"/><path fill="#aa6256" d="M371 714.6v1.1c0 .2-.1.3-.2.4-.9.5-4.5-.6-8.8-2.6v-1.1c4.4 2.1 7.9 3.2 8.8 2.6.1-.1.2-.2.2-.4zM346.9 715.7v-1.1c0 .2.1.3.2.4.9.5 4.5-.6 8.8-2.6v1.1c-4.3 2.1-7.9 3.2-8.8 2.6-.2-.1-.2-.2-.2-.4z"/><path fill="#dba660" d="M370.7 715c-.9.5-4.5-.6-8.8-2.6-.5 3.2-1.7 5.5-3 5.5-.2 0-.4-.1-.7-.2-1-.6-1.9-2.6-2.4-5.3-4.3 2.1-7.9 3.2-8.8 2.6-.9-.5 1-2.6 4.5-5.1-4.6-.3-8.1-.8-9.1-1.4-.2-.1-.3-.3-.3-.4 0-.8 3.9-1.4 9.4-1.7-3.6-2.5-5.5-4.6-4.6-5.1s4.5.6 8.8 2.6c.5-3.2 1.7-5.5 3-5.5.2 0 .4.1.7.2 1 .6 1.9 2.6 2.4 5.3 4.3-2.1 7.9-3.2 8.8-2.6.9.5-1 2.6-4.5 5.1 4.6.3 8.1.8 9.1 1.4.2.1.3.3.3.4 0 .8-3.8 1.4-9.4 1.7 3.7 2.5 5.6 4.5 4.6 5.1zm-14.2-5.5c1.3.8 3.4.8 4.7 0 1.3-.8 1.3-2 0-2.7-1.3-.8-3.4-.8-4.7 0-1.3.7-1.3 2 0 2.7"/><path fill="#bf7d5a" d="M361.9 712.4v1.1c-.5 3.2-1.7 5.5-3 5.5-.2 0-.4-.1-.7-.2-1-.6-1.9-2.6-2.4-5.3v-1.1c.5 2.7 1.3 4.7 2.4 5.3.2.1.4.2.7.2 1.4-.1 2.5-2.3 3-5.5z"/></g><path fill="#bf7d5a" d="M169.9 619.5c-.9-.5-3.8-1-7.8-1.3 2.1-1.6 3.4-3 3.4-3.7v-1.1c0-.2-.1-.3-.2-.4-.9-.5-4.5.6-8.8 2.6-.5-2.7-1.3-4.7-2.4-5.3-.2-.1-.4-.2-.7-.2-1.3 0-2.4 2.2-3 5.5-4.3-2.1-7.9-3.2-8.8-2.6-.2.1-.2.2-.2.4v1.1c0 .7 1.3 2.1 3.4 3.7-4.8.3-8.1.9-8.1 1.6v1.1c0 .1.1.3.3.4.9.5 3.8 1 7.8 1.3-2.2 1.7-3.4 3-3.4 3.7v1.1c0 .2.1.3.2.4.9.5 4.5-.6 8.8-2.6.5 2.7 1.3 4.7 2.4 5.3.2.1.4.2.7.2 1.3 0 2.5-2.2 3-5.5 3.6 1.7 6.7 2.8 8.1 2.8.3 0 .5 0 .7-.1.2-.1.2-.2.2-.4v-1.1c0-.7-1.3-2.1-3.4-3.7 4.8-.3 8.1-1 8.1-1.7v-1.1c0-.1-.1-.3-.3-.4zm-14 1.8c-1.3.8-3.4.8-4.7 0-.4-.2-.7-.5-.8-.8.1-.3.4-.6.8-.8 1.3-.8 3.4-.8 4.7 0 .4.2.7.5.8.8-.2.3-.4.5-.8.8z"/><g><path fill="#aa6256" d="M165.5 613.5v1.1c0 .9-1.8 2.6-4.8 4.7v-1.1c3-2.1 4.8-3.9 4.8-4.7zM141.4 614.6v-1.1c0 .8 1.8 2.6 4.8 4.7v1.1c-3-2.1-4.8-3.9-4.8-4.7zM156.8 619.9v1.1c0-.5-.3-1-1-1.4-1.3-.8-3.4-.8-4.7 0-.6.4-1 .9-1 1.4v-1.1c0-.5.3-1 1-1.4 1.3-.8 3.4-.8 4.7 0 .7.4 1 .9 1 1.4z"/><path fill="#bf7d5a" d="M170.2 619.9v1.1c0 .8-3.8 1.4-9.4 1.7v-1.1c5.6-.3 9.4-.9 9.4-1.7zM146.2 621.7v1.1c-4.6-.3-8.1-.8-9.1-1.4-.2-.1-.3-.3-.3-.4v-1.1c0 .1.1.3.3.4 1 .6 4.5 1.1 9.1 1.4z"/><path fill="#aa6256" d="M165.6 626.4v1.1c0 .2-.1.3-.2.4-.9.5-4.5-.6-8.8-2.6v-1.1c4.4 2.1 7.9 3.2 8.8 2.6.1-.1.2-.3.2-.4zM141.5 627.4v-1.1c0 .2.1.3.2.4.9.5 4.5-.6 8.8-2.6v1.1c-4.3 2.1-7.9 3.2-8.8 2.6-.2 0-.2-.2-.2-.4z"/><path fill="#dba660" d="M165.4 626.8c-.9.5-4.5-.6-8.8-2.6-.5 3.2-1.7 5.5-3 5.5-.2 0-.4-.1-.7-.2-1-.6-1.9-2.6-2.4-5.3-4.3 2.1-7.9 3.2-8.8 2.6-.9-.5 1-2.6 4.5-5.1-4.6-.3-8.1-.8-9.1-1.4-.2-.1-.3-.3-.3-.4 0-.8 3.9-1.4 9.4-1.7-3.6-2.5-5.5-4.6-4.6-5.1.9-.5 4.5.6 8.8 2.6.5-3.2 1.7-5.5 3-5.5.2 0 .4.1.7.2 1 .6 1.9 2.6 2.4 5.3 4.3-2.1 7.9-3.2 8.8-2.6.9.5-1 2.6-4.5 5.1 4.6.3 8.1.8 9.1 1.4.2.1.3.3.3.4 0 .8-3.8 1.4-9.4 1.7 3.6 2.5 5.5 4.5 4.6 5.1zm-14.3-5.5c1.3.8 3.4.8 4.7 0 1.3-.8 1.3-2 0-2.7-1.3-.8-3.4-.8-4.7 0-1.3.7-1.3 1.9 0 2.7"/><path fill="#bf7d5a" d="M156.5 624.1v1.1c-.5 3.2-1.7 5.5-3 5.5-.2 0-.4-.1-.7-.2-1-.6-1.9-2.6-2.4-5.3v-1.1c.5 2.7 1.3 4.7 2.4 5.3.2.1.4.2.7.2 1.4 0 2.5-2.2 3-5.5z"/></g><path fill="#bf7d5a" d="M226.3 558.3c-.9-.5-3.8-1-7.8-1.3 2.1-1.6 3.4-3 3.4-3.7v-1.1c0-.2-.1-.3-.2-.4-.9-.5-4.5.6-8.8 2.6-.5-2.7-1.3-4.7-2.4-5.3-.2-.1-.4-.2-.7-.2-1.3 0-2.5 2.2-3 5.5-4.4-2.1-7.9-3.2-8.8-2.6-.2.1-.2.2-.2.4v1.1c0 .7 1.3 2.1 3.4 3.7-4.8.3-8.1 1-8.1 1.7v1.1c0 .1.1.3.3.4.9.5 3.8 1 7.8 1.3-2.2 1.7-3.4 3-3.4 3.7v1.1c0 .2.1.3.2.4.9.5 4.5-.6 8.8-2.6.5 2.7 1.3 4.7 2.4 5.3.2.1.4.2.7.2 1.3 0 2.5-2.2 3-5.5 3.6 1.7 6.7 2.8 8.1 2.8.3 0 .5-.1.7-.1.2-.1.2-.2.2-.4v-1.1c.1-.7-1.2-2.1-3.4-3.7 4.8-.3 8.1-1 8.1-1.7v-1.1c0-.2-.1-.4-.3-.5zm-14 1.8c-1.3.8-3.4.8-4.7 0-.4-.2-.7-.5-.8-.8.2-.3.4-.6.8-.8 1.3-.8 3.4-.8 4.7 0 .4.2.7.5.8.8-.1.2-.4.5-.8.8z"/><g><path fill="#aa6256" d="M221.9 552.2v1.1c0 .9-1.8 2.6-4.8 4.7v-1.1c3-2 4.8-3.8 4.8-4.7zM197.8 553.3v-1.1c0 .8 1.8 2.6 4.8 4.7v1.1c-3-2-4.8-3.8-4.8-4.7zM213.3 558.7v1.1c0-.5-.3-1-1-1.4-1.3-.8-3.4-.8-4.7 0-.6.4-1 .9-1 1.4v-1.1c0-.5.3-1 1-1.4 1.3-.8 3.4-.8 4.7 0 .6.4 1 .9 1 1.4z"/><path fill="#bf7d5a" d="M226.6 558.7v1.1c0 .8-3.8 1.4-9.4 1.7v-1.1c5.6-.3 9.4-.9 9.4-1.7zM202.7 560.4v1.1c-4.6-.3-8.1-.8-9.1-1.4-.2-.1-.3-.3-.3-.4v-1.1c0 .1.1.3.3.4 1 .7 4.4 1.2 9.1 1.4z"/><path fill="#aa6256" d="M222 565.1v1.1c0 .2-.1.3-.2.4-.9.5-4.5-.6-8.8-2.6v-1.1c4.4 2.1 7.9 3.2 8.8 2.6.1-.1.2-.2.2-.4zM197.9 566.2v-1.1c0 .2.1.3.2.4.9.5 4.5-.6 8.8-2.6v1.1c-4.3 2.1-7.9 3.2-8.8 2.6-.1-.1-.2-.2-.2-.4z"/><path fill="#dba660" d="M221.8 565.5c-.9.5-4.5-.6-8.8-2.6-.5 3.2-1.7 5.5-3 5.5-.2 0-.4-.1-.7-.2-1-.6-1.9-2.6-2.4-5.3-4.3 2.1-7.9 3.2-8.8 2.6-.9-.5 1-2.6 4.5-5.1-4.6-.3-8.1-.8-9.1-1.4-.2-.1-.3-.3-.3-.4 0-.8 3.9-1.4 9.4-1.7-3.6-2.5-5.5-4.6-4.6-5.1.9-.5 4.5.6 8.8 2.6.5-3.2 1.7-5.5 3-5.5.2 0 .4.1.7.2 1 .6 1.9 2.6 2.4 5.3 4.3-2.1 7.9-3.2 8.8-2.6.9.5-1 2.6-4.5 5.1 4.6.3 8.1.8 9.1 1.4.2.1.3.3.3.4 0 .8-3.8 1.4-9.4 1.7 3.6 2.5 5.5 4.6 4.6 5.1zm-14.2-5.4c1.3.8 3.4.8 4.7 0 1.3-.8 1.3-2 0-2.7-1.3-.8-3.4-.8-4.7 0-1.4.7-1.4 1.9 0 2.7"/><path fill="#bf7d5a" d="M212.9 562.9v1.1c-.5 3.2-1.7 5.5-3 5.5-.2 0-.4-.1-.7-.2-1-.6-1.9-2.6-2.4-5.3v-1.1c.5 2.7 1.3 4.7 2.4 5.3.2.1.4.2.7.2 1.4 0 2.5-2.3 3-5.5z"/></g><path fill="#f4d6d4" d="M775.8 503.7s7.3 17.1-3.1 21.2-28.3 6.8-28.3 6.8l1.6-10.3 19.7-7.1-2.4-5.7 12.5-4.9z"/><path fill="#5094ff" d="M761.5 475s11.9 10.5 15.6 28.7c.8 1.9-13.8 8.1-14.6 6.2l-10.3-17.2 9.3-17.7"/><linearGradient id="i" x1="-3620.031" x2="-3519.244" y1="1245.927" y2="1265.531" gradientTransform="matrix(.5218 .0732 -.1435 .4126 2799.626 400.86)" gradientUnits="userSpaceOnUse"><stop offset="0" stop-color="#f1eff6"/><stop offset=".674" stop-color="#4746a4" stop-opacity=".293"/><stop offset="1" stop-color="#000082" stop-opacity="0"/></linearGradient><path fill="url(#i)" d="M779.3 663.6c-.9-4-17.3-10.2-28.1-12.9V661l3.1 1.3c1.8.6 3.7 1.1 5.6 1.5 10.7 2.3 20.1 3.2 19.4-.2z" opacity=".7"/><path fill="#9ea9c9" d="M743.2 644.2s-10.8-4.7-10 2.4c.4 3.4 1.8 10.1 12.9 11.7 0 0 6.2 4.2 10.2 4.4 4.1.2 6-9.5 1.4-16.3-4.5-6.7-14.5-2.2-14.5-2.2z"/><path fill="#1d2943" d="M761 552.8s-4.6 26.7-3.9 35.4 3.1 25.7 3.9 37.6c.6 9.1-.9 29-.9 29-.4 3.9-17.3-2.8-17.2-10.4 0 0-2.4-35.1-11.3-55.2s4.8-48.3 4.8-48.3l24.6 11.9"/><linearGradient id="j" x1="-3673.908" x2="-3571.7" y1="1301.698" y2="1321.579" gradientTransform="matrix(.5218 .0732 -.1435 .4126 2799.626 400.86)" gradientUnits="userSpaceOnUse"><stop offset="0" stop-color="#f1eff6"/><stop offset=".674" stop-color="#4746a4" stop-opacity=".293"/><stop offset="1" stop-color="#000082" stop-opacity="0"/></linearGradient><path fill="url(#j)" d="M747.5 682.5c-.9-4-17.6-10.2-28.7-12.9v10.3l1.7 3.5c1.9.6 3.8 1.1 5.7 1.5 10.9 2.3 22.1 1.1 21.3-2.4z" opacity=".7"/><path fill="#9ea9c9" d="M708.5 666.8s-12.1-1.2-15.1.4-5.8 11.1 10.5 13.1l7.1.5c2.4.2 4.8.7 6.9 1.8.6.3 1.4.7 2.4.8 2.8.5 11.2.7 9.8-7-1.4-7.7-21.6-9.6-21.6-9.6z"/><path fill="#4c5c75" d="M709.1 556.8s-5.4 38.7-.6 52.6c4.8 13.9 2.6 48.1 0 57.4-2 5 20 16 21.7 10.9 0 0 6.9-29.7 3.9-46.1-3.1-16.4-5-22-2.5-29.5s17-41.4 13.9-56.6c-3-15.1-36.4 11.3-36.4 11.3"/><path fill="#57b3fe" d="M718.3 486.7s-1.6 2.3-4 21.2-5.3 49-5.3 49c-2.2 17.8 54.6 8.7 51.9-5.8 0 0-2.6-9.2-3-15.1-.5-5.9 1.7-17.2 5.8-28.9s2.1-26.3-1.9-31.7c-3.9-5.4-31.4 4.4-43.5 11.3z"/><path fill="#f4d6d4" d="M707.7 508.4s-4.2 8.1-4.6 12.4c0 0-25.4-6.2-27.6-10-2.2-3.8-1.2-10.6-4-11-1.9-.2-.3 5.6-2.2 4.8-1.9-.8-6.3-4.3-8.7-2.4s-5.3 16.1 6.7 17.7c12 1.6 37.1 21.7 44.7 15.2 7.6-6.5 13-20.7 13-20.7l-17.3-6z"/><path fill="#5094ff" d="M706.6 510s3.3-24.7 16.3-24.5c13 .2 2.4 34.2 2.4 34.2-1.1 2-19.7-7.7-18.7-9.7z"/><path fill="#f4d6d4" d="m750.2 471.1-.9 2.5c-3.8 4.5-9.5 6.1-17.4 5.4v-2.5c-10.9-.1-11.3-15.7-10.2-17.6 1-2-.1-3-.1-3-3.8-4.7-.7-12.9-.7-12.9l20.6 5 8.7 23.1z"/><path fill="#5094ff" d="M750.2 471.1c-.3 2.5-1.7 4.8-3.8 6.2-4 2.6-9.4 3.9-15.4 3.4l.8-4.2s10.7.2 18.4-5.4z"/><path fill="#1d2943" d="M756.1 456.3c-3.1 7.7-6 15.8-6 15.8s-2 1.7-6.7.2c-4.6-1.5-9.3-5.7-9.2-9.2 0-3.5.1-5.1-1.6-6.1-1.6-1-3.7.6-3.7 2.2l-2-.2s3.6-10.5-4.5-14c-8.7-3.8-4.4-9.8-.6-9.8 0 0 4.6.4 8.2-.4 3.5-.8 12.4-3.7 20.8 1.2 8.4 5 8.3 12.6 5.3 20.3z"/><path fill="#57b3fe" d="M723.1 207.7s-.2 4-3.3 3.8c-3.1-.3-3-4.1-3-4.1 2.3-.6 4.3-.4 6.3.3z"/><g><path fill="#dba660" d="m797.3 188.2-1.1.7 1.1.6v2.9l-1.1.6 1.1.7v2.9l-1.1.6 1.1.7v2.9l-98.8 57-17.6-10.3v-2.8l1.1-.7-1.1-.7v-2.8h-.1.1l1.1-.7-1.1-.7v-2.8l1.1-.7-1.1-.7v-2.8l98.7-57 17.7 10.2z"/></g><g><path fill="#aa6256" d="M680.8 244.7v2.8l17.7 10.3V255z"/><path fill="#bf7d5a" d="M698.5 255v2.8l98.8-57v-2.9z"/><path fill="#dba660" d="m680.8 244.7 17.7 10.3 98.8-57.1-17.7-10.2z"/></g><g><path fill="#aa6256" d="M680.8 240.5v2.8l17.7 10.3v-2.8z"/><path fill="#bf7d5a" d="M698.5 250.8v2.8l98.8-57v-2.9z"/><path fill="#dba660" d="m680.8 240.5 17.7 10.3 98.8-57.1-17.7-10.2z"/></g><g><path fill="#aa6256" d="M680.8 236.3v2.8l17.7 10.3v-2.8z"/><path fill="#bf7d5a" d="M698.5 246.6v2.8l98.8-57v-2.9z"/><path fill="#dba660" d="m680.8 236.3 17.7 10.3 98.8-57.1-17.7-10.2z"/></g><g><path fill="#aa6256" d="M680.8 232.1v2.8l17.7 10.3v-2.8z"/><path fill="#bf7d5a" d="M698.5 242.4v2.8l98.8-57v-2.9z"/><path fill="#dba660" d="m680.8 232.1 17.7 10.3 98.8-57.1-17.7-10.2z"/></g><linearGradient id="k" x1="-4475.797" x2="-4407.417" y1="-1023.376" y2="-1010.075" gradientTransform="matrix(.9284 .2155 -1.1274 .4455 3722.581 1814.294)" gradientUnits="userSpaceOnUse"><stop offset="0" stop-color="#f1eff6"/><stop offset=".674" stop-color="#4746a4" stop-opacity=".293"/><stop offset="1" stop-color="#000082" stop-opacity="0"/></linearGradient><path fill="url(#k)" d="M742.7 411.7c-2.1-.6-4.1-1.4-5.9-2.1l10.1-12.6c2.3.4 1.7.2 4.1.9 11.9 3.6 28.6 12 24.2 15.5-3.5 2.9-20.6 2-32.5-1.7z" opacity=".7"/><path fill="#dba660" d="M747.8 391.3s-2.2 6.6-9 8.2c-6.8 1.6-9 7.6-3.6 9.8 5.4 2.2 24.2-.3 24.8-4.2.6-3.9 1.9-14.5 1.9-14.5l-14.1.7z"/><linearGradient id="l" x1="-4408.315" x2="-4339.935" y1="-1027.563" y2="-1014.262" gradientTransform="matrix(.9042 .1849 -1.1006 .4793 3623.972 1686.705)" gradientUnits="userSpaceOnUse"><stop offset="0" stop-color="#f1eff6"/><stop offset=".674" stop-color="#4746a4" stop-opacity=".293"/><stop offset="1" stop-color="#000082" stop-opacity="0"/></linearGradient><path fill="url(#l)" d="M790 396.1c-2-.6-3.9-1.2-5.7-1.9l9.9-12.9c2.2.4 1.7.2 4 .8 11.6 3.2 27.9 11.1 23.6 14.7-3.6 2.9-20.2 2.5-31.8-.7z" opacity=".7"/><path fill="#dba660" d="M797.7 367.8s7.2 7.5 6.7 10.4c-.5 2.9-8.5 14.7-16.1 16-7.7 1.3-6.4-1.9-2.2-8.6 4.2-6.8 4.1-11.2-.6-15.4s12.2-2.4 12.2-2.4z"/><path fill="#1d2943" d="m751.1 308.8 11.8 36.8 25 31.2c4.5 2.9 13.5-5.5 10.4-8.9l-17-34.4-7.1-26.4-23.1 1.7z"/><path fill="#4c5c75" d="M744.2 396.7c-.5 2.6 16.1 3.9 16.7 1.3 4-17.1 8.5-33.4 9.5-45.3 7.1-12.5 13.4-25.6 18.7-39.3l-27.4.7-9.3 29.2-8.2 53.4z"/><path fill="#b0b8cf" d="M792.3 334.3c-4.3-1.1-.6-5.8-.1-7.7.5-1.9-3.5-1.3-5.7-.6-2.2.7 1.1-5.1 3.7-6.6s3.9-4.3 3.9-4.3 5.6-9.3 7.5 1.1c1.8 10.5-5.1 19.2-9.3 18.1z"/><path fill="#57b3fe" d="M802.7 318.4c-.4 1.8-10.4-.5-10-2.3 0 0 2.4-31.6-2.9-42.6l-.6 40c-.5 2.5-3.9 4.1-8.4 4.8-11.4 1.6-30.1-2.4-29.7-11 0 0-2-42.1-1.7-54.3.3-12.2.3-21.6 4.9-22.1 0 0 36.1 9.7 39.5 18.2 3.5 8.5 9.4 19.2 10.8 38 1.4 18.6-1.9 31.3-1.9 31.3z"/><path fill="#57b3fe" d="m749.6 246.5-12.3-11.1 14.3-8.2 10.2 7.8z"/><path fill="#5094ff" d="m789.7 273.5-.6 40c-.5 2.5-3.9 4.1-8.4 4.8 1-3 3.5-7.9 4.1-12.6.8-6.3-1.3-15.7.8-22 2.2-6.3 0-18.3 0-18.3l4.1 8.1z"/><path fill="#8a4852" d="M753 211.3s1.9 2.1 5.1 4.1c3.9 2.6 9.8 5 16.3 3 4 2.6 1 10.5 1 10.5l1.8-.2s2.5-7 5.2-4.6c2.8 2.4-2.1 9.4-2.1 9.4l2.2 5.9s10.6-23.1 3.5-28.6c0 0-2.9-10.2-13.4-9.1-10.4 1.1-13.3 8.8-19.6 9.6z"/><path fill="#f5c9c6" d="M767.5 248.8c7.3-.3 12.1-3.2 15.8-7.2l-1.4-4-1.5-4.1s-.9 1-2.4 2.2c-2.6 2.3-7 5.6-11.5 6.7 0 0-.4.1-.5.1-.1 2.3.2 4.6 1.5 6.3z"/><path fill="#f4d6d4" d="M780.4 233.4s-.9 1-2.4 2.3c-2.6 2.3-7 5.6-11.5 6.6 0 0-.1.1-.2.1-1.3.3-2.7.4-4 .1-6.2-1.5-6.3-24-4.2-27.1 3.9 2.6 9.8 5 16.3 3 .2.1.3.2.4.4.6.5 1 1.1 1.2 1.9 1.2 3.3-.7 8.3-.7 8.3l1.8-.2s2.5-7 5.2-4.6c2.9 2.3-1.9 9.2-1.9 9.2zM715.1 214.9c-2.8 1.7-6.1 1.6-7.2-.3-1.2-1.9 1.2-3.2 4-4.9 2.8-1.7 5.1-3.2 6.2-1.3 1.2 1.8-.2 4.7-3 6.5z"/><path fill="#f8f9fe" d="M159 575.3c-18.5 10.2-48.7 10.2-67.3 0-18.7-10.2-18.7-26.7-.2-36.9s48.7-10.2 67.3 0c18.6 10.2 18.7 26.7.2 36.9z"/><linearGradient id="m" x1="11418.536" x2="11513.531" y1="8178.38" y2="8196.857" gradientTransform="matrix(.8473 .1591 -1.3 .08244 1057.139 -1933.185)" gradientUnits="userSpaceOnUse"><stop offset="0" stop-color="#f1eff6"/><stop offset=".674" stop-color="#4746a4" stop-opacity=".293"/><stop offset="1" stop-color="#000082" stop-opacity="0"/></linearGradient><path fill="url(#m)" d="M120.5 568.2c-2.1-.5-4-1-5.8-1.5l17-4.7c2.4.4 1.9.3 4.3.8 12 2.7 23.9 6.6 20.8 9.1-8.8 7.2-24.3-1-36.3-3.7z" opacity=".7"/><linearGradient id="n" x1="11230.69" x2="11315.975" y1="8160.408" y2="8176.997" gradientTransform="matrix(.9721 .1773 -1.4847 .05548 1271.286 -1901.889)" gradientUnits="userSpaceOnUse"><stop offset="0" stop-color="#f1eff6"/><stop offset=".674" stop-color="#4746a4" stop-opacity=".293"/><stop offset="1" stop-color="#000082" stop-opacity="0"/></linearGradient><path fill="url(#n)" d="M94.6 552.6c-2.4-.5-4.6-1.1-6.6-1.6l19.4-4.3c2.8.5 2.2.3 4.9.9 13.8 3 27.4 7 24 9.6-5 3.6-27.9-1.6-41.7-4.6z" opacity=".7"/><path fill="#986ff9" d="M80 385V385.9c.8 6.3 2.8 18.5 5 23.7 2.2 5.3 4.8 10.2 7.4 15.1 1.6 3.1 5.5 4.3 8.6 2.6 3.1-1.6 4.3-5.5 2.6-8.6 0-.1-.1-.1-.1-.2-5.7-11-9.9-22.1-11.7-33.3 1.1-4.2 2.8-8.8 4.7-13.3 2-4.9 4.6-9.6 6.8-14.6 1-2.3 0-5.1-2.3-6.1-2.2-1-4.8-.1-6 2-2.6 4.8-5.5 9.3-8.1 14.3-2.5 5-5 10-6.9 16 .1.6 0 1 0 1.5z"/><path fill="#9ea9c9" d="M85.9 549.8c1.5 2.1 6.6 2 8.3.2 1.7-1.8 8.6.3 14.2-3.9 5.5-4.3 2.4-8.3.1-7.4-2.4.9-7.2.4-7.2.4s-9.4-1.1-13 1.3c-3.6 2.4-3.9 7.3-2.4 9.4z"/><path fill="#4c5c75" d="M86.2 542.6c2.4-.2 4.6-.5 6.7-1.1 2.1-.6 4-1.5 5.7-2.6 2.9-18.9 7.6-38.6 12.8-53.3.1-.3.2-.7.3-1.1.9-3.7 1.7-7.3 2.4-10.8 2.1-10.2 3.6-19.6 4-28l-16-7.2-5.3-2.4-3.7 2.5v43.8c-6.3 17.8-8.9 37.8-6.9 60.2z"/><path fill="#9ea9c9" d="M114.6 566.6c2.3.9 8.5-.5 8.5-.5 5 .5 18.4-.6 20.8-4 2.3-3.5-.4-7.1-4.3-6.2-2.6.6-5.2-.1-6.8-.7-.9-.3-1.7-.7-2.5-1.2l-1.3-1s-10.2 3.1-15.9 3.8c-1.8.3-.8 8.9 1.5 9.8z"/><path fill="#1d2943" d="M109.4 449.1c.6 9.1 1.5 18 1.9 27 .1 2.8.3 5.7.3 8.5.9-3.7 1.7-7.3 2.4-10.8-.6-8.4-2-16.7-4.6-24.7z"/><path fill="#4c5c75" d="M109.7 450.5c3.2 17.5 4.2 35 2 52.5-2.2 14 0 32.2 1.4 53.8 1.9-.2 3.6-.3 5.1-.5 4.8-.7 7.9-1.7 10.8-3.2 0 0 .5-28 1.8-43.9C132 493.2 141 451 141 451l-29.2-16.2-2.3 14.4c0 .4.1.8.2 1.3z"/><path fill="#44546b" d="M86.2 542.6c2.4-.2 4.6-.5 6.7-1.1-.1-.1-.2-.3-.4-.4-2-2.2-2.5-5.5-2.4-8.3 0-3.6.6-7.2 1.2-10.8 4.5-26.8 9.7-53.5 10.9-80.6 0-1 .1-1.9-.1-2.9l-5.3-2.4-3.7 2.5v43.8c-6.3 17.8-8.9 37.8-6.9 60.2zM111.7 503c-2.2 14 0 32.2 1.4 53.8 1.9-.2 3.6-.3 5.1-.5-2.4-2.9-2.6-7.1-2.6-10.7.1-14.6 2.8-29 4.9-43.5 2-14.4 3.3-29.3.5-43.6-.4-2.1-.9-4.2-2-6-1.1-1.8-3-3.2-5.1-3.4-1.5-.1-2.9.5-4.1 1.4 3.1 17.5 4.1 35.1 1.9 52.5z"/><path fill="#b28afd" d="M95 448.4c3.9 5.4 18.1 8.7 29.4 9.9 1.4.1 2.7.3 3.9.3 4 .3 7.4.3 9.4 0 1.8-.3 2.8-1.6 3.4-3.8 1.4-5.5-.3-16-1.5-25.5-.4-2.9-.7-5.7-.9-8.3v-.6c-.1-2 0-4.5.4-7.2 1.6-12.5 6.7-30.8 4.1-40.7-.8-2.9-2.2-5.1-4.6-6.2L107 349.7s-5-2.1-9.1.7c-.4.3-.8.6-1.2 1-1.4 1.3-2.6 3.4-3.4 6.4-1.1 4.2-1.1 10.1-.5 16.7 1.1 13.1 4 29 2.5 39.2-2.5 15.3-6.1 26.6-.3 34.7z"/><path fill="#f4d6d4" d="m104.1 339.8 6.5 14.8.8 2.7c3.4 2.5 9.2 2.6 15.5 2.1h.4c-.1-.4-.1-.9-.1-1.3-.1-1.2 0-2.3.4-3.2 0 0 .1-.1.4-.2.6-.2 1.7-.6 3.3-1.2 2.5-.9 4.4-10.8 1.8-15.4-2.6-4.6-2.2-13.5-2.2-13.5l-11.9-1.3-14.9 16.5z"/><path fill="#f5c9c6" d="M112.4 351.8c0 .2 3.6 7.1 3.6 7.1l10.5.3.4.2h.4c-.1-.4-.1-.9-.1-1.3-.1-1.2 0-2.3.4-3.2 0 0 .1-.1.4-.2-.5 0-7 .3-10.5-1.7-3.8-2.1-5.1-1.4-5.1-1.2z"/><path fill="#fff" d="M108.3 350.4v.7c-.1 1.8.1 3.6.9 5.2 4.7 9 21.4 5.8 21.4 5.8-1.4-1.2-2.6-3.4-3.3-5-10.7 2.5-16-4.8-16.5-5.7l.2-.5-2.7-.5z"/><path fill="#7e5af2" d="M143.6 385.6c-.6 5.9-1.8 12.7-3.3 20.1-9.1-17.5-4.5-37.6-4.5-37.6 2.1 7 4.5 13 7.8 17.5z"/><path fill="#1d2943" d="M102.8 343c4.1 12.3 12.5 15.4 17.1 13.9 4.6-1.5 4.1-4.8 3.2-10.4-.9-5 4.6-7.3 7.4-4.5.4.5 1.2.3 1.4-.3.5-1.4.8-3.6-1.1-5.5-.1-.1-.2-.2-.2-.3-1.6-1.7-1-4.4 1.1-5.7 2-1.3 4.9-4.1 2-7.8-2.7-3.4-10.9-5.1-18.4-3.6-8.6 1.7-14.6 9.4-13.7 18.2 0 1.7.4 3.8 1.2 6z"/><path fill="#7e5af2" d="M95 448.4c3.9 5.4 18.1 8.7 29.4 9.9 1.4.1 2.7.3 3.9.3 4 .3 7.4.3 9.4 0 1.8-.3 2.8-1.6 3.4-3.8 0 0-.1 0-.1-.1-1.3-.6-2.8-.8-4.2-.9-9.5-.4-19.9 2-27.8-3.3-5.1-3.4-7.8-9.3-9.2-15.3-3.5-15.6 1.5-31.8 1-47.8-.1-3.2-.4-6.4-.7-9.5-.6-6.6-1.3-13.2-1.9-19.7-.2-2.4-.5-4.8-1.7-6.8-1.4 1.3-2.6 3.4-3.4 6.4-1.1 4.2-1.1 10.1-.5 16.7 1.1 13.1 4 29 2.5 39.2-2.3 15.3-5.9 26.6-.1 34.7z"/><path fill="#f4d6d4" d="M188.1 356.7s5.6 2.7 2.9 5.7c-4.2 4.7-12.8 7.7-14.7 5.5s3.3-5.9 4.1-8.1.8-4.7 1.9-5c1-.3 1.9.1 1.1 2.2-.1.1.1.2.2.1 1.5-1.7 5.8-6.3 7.5-4.9 1.2 1-3 4.5-3 4.5z"/><path fill="#fff" d="m177.8 375.9 7-7.4c1.6-2.9-4.5-9-6.1-7.5l-6.4 6.3 5.5 8.6z"/><path fill="#b28afd" d="M140.4 383.5c5 3.4 16.2 9.5 18.2 9 8.7-2.3 25.1-22.4 25.4-22.9 1.7-3-4.4-9.6-6.1-8.1l-20 15.7s-12.3-7.6-19-10.6c-7-2.2-11.9 7.7 1.5 16.9z"/><linearGradient id="o" x1="673.274" x2="683.864" y1="655.232" y2="655.232" gradientTransform="matrix(1 0 -.00002 1 -35.253 4.169)" gradientUnits="userSpaceOnUse"><stop offset="0" stop-color="#f1eff6"/><stop offset="1" stop-color="#b6bce1" stop-opacity="0"/></linearGradient><path fill="url(#o)" d="M649.8 655v6.3l-10.6.1V655z"/><g><path fill="#ef7b56" d="M644.8 652.6v5.6c0 .3-.2.5-.5.7l-3.7 2.2c-.7.4-1.8.4-2.5 0l-3.8-2.2c-.3-.2-.5-.5-.5-.7v-5.6h11z"/><path fill="#ffd475" d="M644.3 651.8c.7.4.7 1.1 0 1.5l-3.7 2.2c-.7.4-1.8.4-2.5 0l-3.8-2.2c-.7-.4-.7-1.1 0-1.5l3.7-2.2c.7-.4 1.8-.4 2.5 0l3.8 2.2z"/></g><linearGradient id="p" x1="420.09" x2="431.921" y1="230.527" y2="230.527" gradientTransform="matrix(1 0 -.00002 1 -35.253 4.169)" gradientUnits="userSpaceOnUse"><stop offset="0" stop-color="#f1eff6"/><stop offset="1" stop-color="#b6bce1" stop-opacity="0"/></linearGradient><path fill="url(#p)" d="M397.1 230.3v7.2h-11.8l-.1-7.1z"/><g><path fill="#ef7b56" d="M391.5 227.7v6.2c0 .3-.2.6-.6.8l-4.2 2.4c-.8.4-2.1.4-2.8 0l-4.2-2.4c-.4-.2-.6-.5-.6-.8v-6.2h12.4z"/><path fill="#ffd475" d="M390.9 226.8c.8.5.8 1.2 0 1.6l-4.2 2.4c-.8.5-2 .5-2.8 0l-4.2-2.4c-.8-.5-.8-1.2 0-1.6l4.2-2.4c.8-.5 2-.5 2.8 0l4.2 2.4z"/></g><linearGradient id="q" x1="830.702" x2="841.293" y1="438.46" y2="438.46" gradientTransform="matrix(1 0 -.00002 1 -35.253 4.169)" gradientUnits="userSpaceOnUse"><stop offset="0" stop-color="#f1eff6"/><stop offset="1" stop-color="#b6bce1" stop-opacity="0"/></linearGradient><path fill="url(#q)" d="M806.8 437.9v6.4h-10.6v-6.4z"/><g><path fill="#ef7b56" d="M801.9 435.5v5.6c0 .3-.2.5-.5.7l-3.7 2.2c-.7.4-1.8.4-2.5 0l-3.8-2.2c-.4-.2-.5-.5-.5-.7v-5.6h11z"/><path fill="#ffd475" d="M801.3 434.8c.7.4.7 1.1 0 1.5l-3.7 2.2c-.7.4-1.8.4-2.5 0l-3.8-2.2c-.7-.4-.7-1.1 0-1.5l3.7-2.2c.7-.4 1.8-.4 2.5 0l3.8 2.2z"/></g><linearGradient id="r" x1="199.808" x2="213.369" y1="306.011" y2="306.011" gradientTransform="matrix(1 0 -.00002 1 -35.253 4.169)" gradientUnits="userSpaceOnUse"><stop offset="0" stop-color="#f1eff6"/><stop offset="1" stop-color="#b6bce1" stop-opacity="0"/></linearGradient><path fill="url(#r)" d="M178.7 305.7v8.2h-13.6v-8.2z"/><g><path fill="#ef7b56" d="M172.3 302.6v7.2c0 .3-.2.7-.7.9l-4.8 2.8c-.9.5-2.4.5-3.3 0l-4.8-2.8c-.5-.3-.7-.6-.7-.9v-7.2h14.3z"/><path fill="#ffd475" d="M171.6 301.7c.9.5.9 1.4 0 1.9l-4.8 2.8c-.9.5-2.3.5-3.2 0l-4.8-2.8c-.9-.5-.9-1.4 0-1.9l4.8-2.8c.9-.5 2.3-.5 3.2 0l4.8 2.8z"/></g><linearGradient id="s" x1="105.636" x2="116.227" y1="714.271" y2="714.271" gradientTransform="matrix(1.2925 -.0024 .0018 1 388.921 3.316)" gradientUnits="userSpaceOnUse"><stop offset="0" stop-color="#f1eff6"/><stop offset="1" stop-color="#b6bce1" stop-opacity="0"/></linearGradient><path fill="url(#s)" d="M540.4 714.1v6.4h-13.7v-6.4z"/><g><path fill="#ef7b56" d="M532.4 711.7v5.6c0 .3-.2.5-.5.7l-3.7 2.2c-.7.4-1.8.4-2.5 0l-3.8-2.2c-.4-.2-.5-.5-.5-.7v-5.6h11z"/><path fill="#ffd475" d="M531.8 711c.7.4.7 1.1 0 1.5l-3.7 2.2c-.7.4-1.8.4-2.5 0l-3.8-2.2c-.7-.4-.7-1.1 0-1.5l3.7-2.2c.7-.4 1.8-.4 2.5 0l3.8 2.2z"/></g><linearGradient id="t" x1="138.761" x2="149.352" y1="659.312" y2="659.312" gradientTransform="matrix(1 0 -.00002 1 -35.253 4.169)" gradientUnits="userSpaceOnUse"><stop offset="0" stop-color="#f1eff6"/><stop offset="1" stop-color="#b6bce1" stop-opacity="0"/></linearGradient><path fill="url(#t)" d="M115.3 660v6.4h-10.6V660z"/><g><path fill="#ef7b56" d="M110.3 657.6v5.6c0 .3-.2.5-.5.7l-3.7 2.2c-.7.4-1.8.4-2.5 0l-3.8-2.2c-.4-.2-.5-.5-.5-.7v-5.6h11z"/><path fill="#ffd475" d="M109.8 656.9c.7.4.7 1.1 0 1.5l-3.7 2.2c-.7.4-1.8.4-2.5 0l-3.8-2.2c-.7-.4-.7-1.1 0-1.5l3.7-2.2c.7-.4 1.8-.4 2.5 0l3.8 2.2z"/></g></svg>