<svg xmlns="http://www.w3.org/2000/svg" data-name="8" viewBox="0 0 4078.64 2994.64"><defs><clipPath id="b"><rect width="32.27" height="129.09" x="3013.71" y="1460.07" fill="none" stroke="#fff" stroke-miterlimit="10" clip-path="url(#a)"/></clipPath><clipPath id="c"><rect width="32.27" height="129.09" x="3013.71" y="643.4" fill="none" clip-path="url(#b)"/></clipPath><clipPath id="k"><rect width="32.27" height="129.09" x="3135.45" y="1045.35" fill="none" stroke="#fff" stroke-miterlimit="10" clip-path="url(#c)"/></clipPath><clipPath id="d"><rect width="1108.01" height="1347.1" x="2553.16" y="429.43" fill="none" stroke="#fff" stroke-miterlimit="10"/></clipPath><clipPath id="e"><rect width="934.67" height="359.22" x="2624.93" y="492.96" fill="none" stroke="#257cc0" stroke-miterlimit="10" clip-path="url(#d)"/></clipPath><clipPath id="f"><rect width="934.67" height="359.22" x="2624.93" y="923.37" fill="none" stroke="#257cc0" stroke-miterlimit="10" clip-path="url(#e)"/></clipPath><clipPath id="g"><rect width="934.67" height="359.22" x="2624.93" y="1345" fill="none" stroke="#257cc0" stroke-miterlimit="10" clip-path="url(#f)"/></clipPath><clipPath id="h"><line x1="3092.26" x2="3092.26" y1="492.96" y2="852.18" fill="none" clip-path="url(#g)"/></clipPath><clipPath id="i"><line x1="3092.26" x2="3092.26" y1="925.1" y2="1284.31" fill="none" stroke="#fff" stroke-miterlimit="10" clip-path="url(#h)"/></clipPath><clipPath id="j"><line x1="3092.26" x2="3092.26" y1="1345" y2="1704.22" fill="none" stroke="#fff" stroke-miterlimit="10" clip-path="url(#i)"/></clipPath><clipPath id="a"><rect width="32.27" height="129.09" x="3013.71" y="1045.35" fill="none" stroke="#fff" stroke-miterlimit="10" clip-path="url(#j)"/></clipPath><clipPath id="l"><path fill="#e0effd" d="M2799,474.44c8.28,96.53,147.71,225,308.59,294.62,180.95,78.29,333,57.37,431.32,44.71,55.74-7.18,114.52-20.07,154.31-59.76,54.61-54.48,56.81-141.69,46.54-218.14-9.38-69.86-27.71-141.72-74.23-194.66-76.56-87.14-206.9-100-322.59-91.76-112.43,8.05-191.71,23-285.18,51.68C2957.69,331.77,2806.8,378,2798.84,460A80.08,80.08,0,0,0,2799,474.44Z"/></clipPath><clipPath id="m"><rect width="32.27" height="129.09" x="3135.45" y="643.4" fill="#012ebc" clip-path="url(#k)"/></clipPath><clipPath id="n"><path fill="none" d="M805.24,554.06c264-196.4,527.83-243.81,608.79-255.95,508.8-76.34,881.24,169.87,919.13,200.08,57.69,46,93.57,78.41,93.57,78.41,31.2,29.15,62.41,58.31,127.19,101.86,145.29,97.67,322.8,130.73,491.76,176.57,237.36,64.39,484.24,172.62,604.82,387,45.19,80.34,69.51,170.94,83.62,262,12,77.62,27.77,256-50.1,450.79-106,265.14-320.26,395.92-447.22,473.43-123.69,75.51-225.52,109.3-381.48,161.06-276.71,91.84-499.62,121.3-554.54,128.12-225.51,28-618.84,77.67-1062.9-82.71-170.85-61.7-403.82-147.12-604.76-379C583.94,2199,418.82,1997.41,359.66,1683c-21.31-113.27-72.6-408.91,81.36-718.45C549,747.52,705.89,628,805.24,554.06Z"/></clipPath></defs><path fill="#e0effd" d="M2799,474.44c8.28,96.53,147.71,225,308.59,294.62,180.95,78.29,333,57.37,431.32,44.71,55.74-7.18,114.52-20.07,154.31-59.76,54.61-54.48,56.81-141.69,46.54-218.14-9.38-69.86-27.71-141.72-74.23-194.66-76.56-87.14-206.9-100-322.59-91.76-112.43,8.05-191.71,23-285.18,51.68C2957.69,331.77,2806.8,378,2798.84,460A80.08,80.08,0,0,0,2799,474.44Z"/><g clip-path="url(#l)"><rect width="1108.01" height="1347.1" x="2553.16" y="429.43" fill="#93c7fd"/><rect width="934.67" height="359.22" x="2624.93" y="492.96" fill="#fff"/><rect width="934.67" height="359.22" x="2624.93" y="923.37" fill="#fff"/><rect width="934.67" height="359.22" x="2624.93" y="1345" fill="#fff"/><rect width="32.27" height="129.09" x="3013.71" y="1045.35" fill="#93c7fd"/><rect width="32.27" height="129.09" x="3013.71" y="1460.07" fill="#93c7fd"/><rect width="32.27" height="129.09" x="3013.71" y="643.4" fill="#012ebc"/><rect width="32.27" height="129.09" x="3135.45" y="1045.35" fill="#93c7fd"/><rect width="32.27" height="129.09" x="3135.45" y="643.4" fill="#012ebc"/><g clip-path="url(#m)"><path fill="#93c7fd" d="M2789.94,474.44c8.28,96.53,147.71,225,308.59,294.62,180.95,78.29,333,57.37,431.32,44.71,55.74-7.18,114.52-20.07,154.31-59.76,54.61-54.48,56.81-141.69,46.54-218.14-9.39-69.86-27.71-141.72-74.23-194.66-76.56-87.14-206.9-100-322.59-91.76-112.44,8.05-191.71,23-285.18,51.68-100,30.64-250.91,76.87-258.87,158.84A80.08,80.08,0,0,0,2789.94,474.44Z"/><path fill="#fff" d="M2787.44,474.44c2.67,29.74,16,57.63,32.07,82.37,20.86,32.05,47.3,60.38,75.62,85.93,68.1,61.43,149.41,109.58,235.16,141.84,84.3,31.71,173.92,45.92,263.87,43.84,34.47-.79,68.82-3.89,103-8,38-4.58,76.41-8.83,112.93-20.73,40-13,75.94-36,98.25-72.41,21.2-34.55,28.59-75.81,29.53-115.82,1-42.92-4.69-86.39-13.73-128.29-9.43-43.7-24.45-87.09-50.37-123.9-23.38-33.19-55.18-59.24-91.53-77.09-36.11-17.73-75.57-27.59-115.32-32.74-41.55-5.37-83.66-5.6-125.42-3a1383.33,1383.33,0,0,0-142.41,16A1146.07,1146.07,0,0,0,3070.52,292c-36.8,10.64-73.51,22-109.59,34.89-35.09,12.49-70.1,26.56-102.16,45.7-25.33,15.12-51.52,34.66-64.39,62.07a77.51,77.51,0,0,0-6.94,39.76c.24,3.19,5.25,3.21,5,0-1.11-14.28,1.21-27.75,7.88-40.5,6.58-12.56,16.17-23.27,26.76-32.59,25.83-22.75,57.72-38.43,89.16-51.81,34.46-14.66,70.08-26.43,105.8-37.58,38.86-12.12,77.87-23.67,117.58-32.7A1156.66,1156.66,0,0,1,3270,257.67c44.14-4.85,88.62-8.51,133.06-7.75,78.92,1.36,163.68,16.37,226.07,68.22,68.55,57,91.7,148.09,100.92,233.15,8.6,79.26,1.1,173-72.17,220.7-36,23.44-79.39,32.61-121.37,38.39-31,4.27-62.15,8.07-93.37,10.51-81.33,6.37-163.15,1.44-242.28-19.14C3109.56,778,3023,735.13,2947.27,678.92c-32.72-24.3-63.64-51.4-90.65-82-22-24.92-42.29-52.76-54.55-83.89a140.1,140.1,0,0,1-9.63-38.62C2792.15,471.26,2787.15,471.23,2787.44,474.44Z"/></g><rect width="1108.01" height="1347.1" x="2553.16" y="429.43" fill="none" stroke="#fff" stroke-miterlimit="10"/><rect width="934.67" height="359.22" x="2624.93" y="492.96" fill="none" stroke="#257cc0" stroke-miterlimit="10"/><rect width="934.67" height="359.22" x="2624.93" y="923.37" fill="none" stroke="#257cc0" stroke-miterlimit="10"/><rect width="934.67" height="359.22" x="2624.93" y="1345" fill="none" stroke="#257cc0" stroke-miterlimit="10"/><line x1="3092.26" x2="3092.26" y1="925.1" y2="1284.31" fill="none" stroke="#fff" stroke-miterlimit="10"/><line x1="3092.26" x2="3092.26" y1="1345" y2="1704.22" fill="none" stroke="#fff" stroke-miterlimit="10"/><rect width="32.27" height="129.09" x="3013.71" y="1045.35" fill="none" stroke="#fff" stroke-miterlimit="10"/><rect width="32.27" height="129.09" x="3013.71" y="1460.07" fill="none" stroke="#fff" stroke-miterlimit="10"/><rect width="32.27" height="129.09" x="3135.45" y="1045.35" fill="none" stroke="#fff" stroke-miterlimit="10"/></g><g clip-path="url(#n)"><path fill="#e0effd" d="M801,550.63c264-196.4,527.83-243.81,608.79-255.95,508.8-76.34,881.24,169.87,919.13,200.08,57.69,46,93.57,78.41,93.57,78.41,31.2,29.16,62.41,58.31,127.19,101.86,145.29,97.67,322.8,130.74,491.76,176.57,237.36,64.39,484.24,172.62,604.82,387,45.19,80.35,69.51,170.94,83.62,262,12,77.63,27.77,256-50.1,450.79-106,265.14-320.26,395.92-447.22,473.43-123.69,75.51-225.52,109.3-381.48,161.06-276.71,91.84-499.62,121.3-554.54,128.12-225.51,28-618.84,77.67-1062.9-82.7-170.85-61.7-403.82-147.12-604.76-379-49.18-56.76-214.3-258.34-273.46-572.76-21.31-113.28-72.6-408.92,81.36-718.46C544.66,744.09,701.6,624.54,801,550.63Z"/><path fill="#a6d9f6" d="M1006.49,431s644.65,202.14,1038.32,968.24q6.72,13.07,13.33,26.35s290.41,462.08,1676.47,189.23l242-79.21V1790.8H922.89Z"/><path fill="#54a7cb" stroke="#257cc0" stroke-miterlimit="10" stroke-width="6" d="M1501.51,1788.6l2296.9-19.8L3673,2937.22l-1617.07,33.65s-1339.86,26.41-1366.26,6.6-514.82-528.74-514.82-528.74l224.41-217.84Z"/><line x1="2781" x2="1607.11" y1="1789.75" y2="3003.07" fill="none" stroke="#0041bc" stroke-miterlimit="10" stroke-width="6"/><line x1="1853.04" x2="409.78" y1="1775.89" y2="2651.65" fill="none" stroke="#0041bc" stroke-miterlimit="10" stroke-width="6"/><line x1="2453.61" x2="1120.47" y1="1695.89" y2="2731.65" fill="none" stroke="#0041bc" stroke-miterlimit="10" stroke-width="6"/><line x1="1321.63" x2="3974.02" y1="1790.24" y2="1788.78" fill="none" stroke="#0041bc" stroke-miterlimit="10" stroke-width="6"/><polygon fill="#263a7d" stroke="#fff" stroke-miterlimit="10" stroke-width="6" points="2374.57 2336.41 1832.37 2921.82 3805.01 2921.82 4207.63 2025.38 2621.07 2025.38 2374.57 2336.41"/><rect width="1108.01" height="1347.1" x="2558.05" y="429.67" fill="#93c7fd" stroke="#fff" stroke-miterlimit="10" stroke-width="6"/><rect width="934.67" height="359.22" x="2629.82" y="493.21" fill="#fff" stroke="#257cc0" stroke-miterlimit="10" stroke-width="6"/><rect width="934.67" height="359.22" x="2629.82" y="923.62" fill="#fff" stroke="#257cc0" stroke-miterlimit="10" stroke-width="6"/><polygon fill="#fff" stroke="#257cc0" stroke-miterlimit="10" stroke-width="6" points="3557.89 1704.47 2623.22 1704.47 2629.82 1345.25 3564.49 1345.25 3557.89 1704.47"/><line x1="3097.15" x2="3097.15" y1="925.34" y2="1284.56" fill="none" stroke="#012ebc" stroke-miterlimit="10" stroke-width="6"/><line x1="3097.15" x2="3097.15" y1="1345.25" y2="1704.47" fill="none" stroke="#012ebc" stroke-miterlimit="10" stroke-width="6"/><rect width="32.27" height="129.09" x="3018.6" y="1045.6" fill="#012ebc"/><rect width="32.27" height="129.09" x="3018.6" y="1460.31" fill="#012ebc"/><rect width="32.27" height="129.09" x="3018.6" y="643.65" fill="#012ebc"/><rect width="32.27" height="129.09" x="3140.34" y="1045.6" fill="#012ebc"/><rect width="32.27" height="129.09" x="3140.34" y="643.65" fill="#012ebc"/><line x1="3097.15" x2="3097.15" y1="493.21" y2="852.43" fill="none" stroke="#012ebc" stroke-miterlimit="10" stroke-width="6"/><polygon fill="#2a3795" points="2558.05 429.68 3666.06 1776.78 2558.05 1776.78 2558.05 429.68" opacity=".08"/><polygon fill="#fff" stroke="#257cc0" stroke-miterlimit="10" stroke-width="6" points="1462.86 484.62 -123.72 -31.11 -158.85 2563.21 1446.16 1774.19 1462.86 484.62"/><polygon fill="#fff" stroke="#231f20" stroke-miterlimit="10" stroke-width="6" points="963.08 1524.81 957.85 1928.21 1344.12 1784.3 1348.72 1429.26 963.08 1524.81"/><path fill="#fff" stroke="#231f20" stroke-miterlimit="10" stroke-width="6" d="M964.3,1524.82l-92.5-15q-2.53,196.14-5.08,392.26l92.35,26.15Z"/><polygon fill="#fff" stroke="#231f20" stroke-miterlimit="10" stroke-width="6" points="1348.72 1429.26 873.44 1383.67 871.8 1509.83 963.08 1524.81 1348.72 1429.26"/><polygon fill="#27397c" stroke="#fff" stroke-miterlimit="10" stroke-width="6" points="-115.49 159.13 1005.51 468.36 1012.62 1768.42 -141.24 2147.3 -115.49 159.13"/><rect width="379.59" height="1289.68" x="1008.73" y="481.25" fill="#263a7d" stroke="#fff" stroke-miterlimit="10" stroke-width="6" transform="rotate(.74 1202.023 1129.668)"/><path fill="#263a7d" stroke="#fff" stroke-miterlimit="10" stroke-width="6" d="M1017.1,478.85-127.72,159.13l2.47-190.24c566.9,171.63,955,343.24,1521.91,514.87Z"/><polygon fill="#59bbea" stroke="#fff" stroke-miterlimit="10" stroke-width="6" points="1000.4 1768.42 -153.47 2147.3 -157.16 2432.68 1379.96 1773.34 1000.4 1768.42"/><path fill="#009ddc" stroke="#fff" stroke-miterlimit="10" stroke-width="6" d="M604.69,1300.78,267.93,1285.9q-8.82,340.57-17.65,681.15l357.29,62.33Z"/><polygon fill="#009ddc" stroke="#fff" stroke-miterlimit="10" stroke-width="6" points="604.69 1300.78 607.57 2029.38 1018.06 1875.38 1026.15 1251.04 604.69 1300.78"/><polygon fill="#009ddc" stroke="#fff" stroke-miterlimit="10" stroke-width="6" points="267.93 1285.9 776.05 1247.8 1026.15 1251.04 604.69 1300.78 267.93 1285.9"/><polygon fill="#fff" stroke="#257cc0" stroke-miterlimit="10" stroke-width="6" points="-138.65 1003.59 1393.5 1025.88 1392.86 1075.16 -139.93 1102.15 -138.65 1003.59"/><path fill="#0e75af" stroke="#fff" stroke-miterlimit="10" stroke-width="6" d="M851.33,619l-293.7,67.76L553.43,1011l292.77,3.8Z"/><path fill="#0063b0" stroke="#fff" stroke-miterlimit="10" stroke-width="6" d="M1012.91,513.31l-1.52,117.15,260.8,27.59q1-74.92,1.94-149.86l-260.7-33.36Q1013.16,494.08,1012.91,513.31Z"/><path fill="#054e8d" stroke="#fff" stroke-miterlimit="10" stroke-width="6" d="M1013.43,474.83l-198.52,61-.39,88,42.16-9.73,154.71,16.37Z"/><polygon fill="#59bbea" stroke="#fff" stroke-miterlimit="10" stroke-width="6" points="855.38 620.48 850.29 1013.31 1351.72 1019.81 1356.21 673.47 855.38 620.48"/><path fill="#0085cb" d="M853,623.19a1153.19,1153.19,0,0,0,248.68,254.72,1150.53,1150.53,0,0,0,245.34,140l-496-6Q852,817.56,853,623.19Z" opacity=".64"/><path fill="#055191" d="M1017.56,479.19l207.13,170.69,43.55,5.06,2.53-144.35Z" opacity=".68"/><path fill="#0136bd" d="M607.54,1306.74c9.68,66.07,33.09,165.88,95.2,271.17,103.26,175.06,251.41,260,318.4,293.17l-410.5,154q-1.25-368.07-2.48-736.16" opacity=".78"/><polygon fill="#4b3795" stroke="#fff" stroke-miterlimit="10" stroke-width="6" points="267.93 1285.9 604.69 1300.78 610.64 2025.07 250.28 1967.05 267.93 1285.9"/><path fill="#0136bd" stroke="#fff" stroke-miterlimit="10" stroke-width="6" d="M-141.89 1583.91l-9.19 709.61 647.36-222.27q3.9-301.59 7.81-603.18zM504.09 1468.07L76.28 1428.46c-159.16 22.44-129.79 44.88-288.94 67.31q6.33 22.76 12.67 45.51l58.1 42.63z"/><path fill="#009ddc" d="M-141.89,1583.91s291.31,45.11,354,227.77S490.71,2066.3,490.71,2066.3l-636.46,221.41Z" opacity=".42"/><path fill="#0b5dac" stroke="#fff" stroke-miterlimit="10" stroke-width="6" d="M2546.54,1778.37H2224V896.67c28.75-72.52,100.37-117.85,174.85-112.07,65.45,5.08,123.11,48.87,147.7,112.07Z"/><rect width="108.31" height="34.96" x="2331.11" y="755.26" fill="#202854" stroke="#fff" stroke-miterlimit="10" stroke-width="6"/><ellipse cx="2437.53" cy="826.03" fill="#2a3795" rx="44.34" ry="41.59"/><ellipse cx="2445.06" cy="806.12" fill="#9ccffd" stroke="#fff" stroke-miterlimit="10" stroke-width="6" rx="36.71" ry="36.72"/><rect width="47.6" height="701.93" x="2449.58" y="909.41" fill="#fff" stroke="#fff" stroke-miterlimit="10" stroke-width="6" rx="22.85"/><path fill="#2a3795" d="M2228.51,1295.06A739.21,739.21,0,0,0,2308.37,1518c75.32,136,176.47,216.35,235.6,256.33l-317.77.93Z"/><path fill="#0b5dac" stroke="#fff" stroke-miterlimit="10" stroke-width="6" d="M2219.78,1778.37H1897.23V896.67c28.76-72.52,100.38-117.85,174.85-112.07,65.46,5.08,123.11,48.87,147.7,112.07Z"/><ellipse cx="2110.38" cy="826.03" fill="#2a3795" rx="44.34" ry="41.59"/><rect width="108.31" height="34.96" x="2004.35" y="755.26" fill="#202854" stroke="#fff" stroke-miterlimit="10" stroke-width="6"/><ellipse cx="2118.31" cy="806.12" fill="#9ccffd" stroke="#fff" stroke-miterlimit="10" stroke-width="6" rx="36.71" ry="36.72"/><rect width="47.6" height="701.93" x="2122.82" y="910.64" fill="#fff" stroke="#fff" stroke-miterlimit="10" stroke-width="6" rx="22.85"/><path fill="#2a3795" d="M1906.28,1295.06A739.28,739.28,0,0,0,1986.15,1518c75.32,136,176.46,216.35,235.6,256.33l-317.77.93Q1905.14,1535.15,1906.28,1295.06Z"/><rect width="32.27" height="129.09" x="3199.4" y="1462.86" fill="none" stroke="#231f20" stroke-miterlimit="10" stroke-width="6"/><path fill="#0136bd" stroke="#fff" stroke-miterlimit="10" stroke-width="6" d="M2629.32,1954.31,2368,2225.68v132.45h568.88l155.47-285.67V1954.31Z"/><circle cx="2769.59" cy="2276.18" r="21.93" fill="#fff" transform="rotate(-.23 2760.6 2267.485)"/><circle cx="2864.18" cy="2276.18" r="21.93" fill="#fff" transform="rotate(-.23 2852.772 2267.67)"/><polyline fill="#0136bd" stroke="#fff" stroke-miterlimit="10" stroke-width="6" points="2367.97 2225.68 2936.85 2225.68 3092.32 1954.31"/><line x1="2936.85" x2="2936.85" y1="2225.68" y2="2358.13" fill="#0136bd" stroke="#fff" stroke-miterlimit="10" stroke-width="6"/><path fill="#93c7fd" d="M3107.87,2149.22V2423c10.08,18.11,29.51,28.8,49.34,27.22,23.94-1.92,36.9-20.79,38.47-23.16V2151.33l-31.42-47.82Z"/><path fill="#fff" d="M2928.85,2054.47h783.47v98.18l-785-2.83Z"/><polygon fill="#93c7fd" points="2928.85 2054.47 3041.99 1872.48 3813.96 1872.48 3712.32 2054.47 2928.85 2054.47"/><path fill="#4d92fe" stroke="#fff" stroke-miterlimit="10" stroke-width="6" d="M3000.14,1483.25,2989.61,2009l363.07,36.79,141.15-93.2,3.26-496.39-252.47-15.72Z"/><path fill="none" stroke="#fff" stroke-miterlimit="10" stroke-width="6" d="M3016.74 1488.18l337.84 21.32 121.16-41M3351.22 1505.1q-.46 258.86-.94 517.72"/><path fill="#0136bd" stroke="#fff" stroke-miterlimit="10" stroke-width="6" d="M3025.17 1517.32v33.48l90.86 5.3v-32.3zM3025.17 1579.83v33.48l90.86 5.3v-32.3zM3025.17 1633v33.48l90.86 5.3v-32.3z"/><ellipse cx="3169.16" cy="1545.95" fill="#fcd645" stroke="#f16723" stroke-miterlimit="10" stroke-width="6" rx="22.81" ry="22.38"/><ellipse cx="3169.16" cy="1627.17" fill="#fcd645" stroke="#f16723" stroke-miterlimit="10" stroke-width="6" rx="22.81" ry="22.38"/><ellipse cx="3169.16" cy="1706.6" fill="#fcd645" stroke="#f16723" stroke-miterlimit="10" stroke-width="6" rx="22.81" ry="22.38"/><polygon fill="#fff" points="3225.71 1779.33 3225.71 1818.29 3302.02 1823.06 3302.02 1783.78 3225.71 1779.33"/><polygon fill="#80b2df" stroke="#fff" stroke-miterlimit="10" stroke-width="6" points="3243.35 1527.36 3328.79 1529.71 3328.79 1719.85 3243.35 1715.67 3243.35 1527.36"/><line x1="3271.65" x2="3271.65" y1="1528.14" y2="1715.67" fill="#80b2df" stroke="#fff" stroke-miterlimit="10" stroke-width="6"/><line x1="3302.02" x2="3302.02" y1="1529.71" y2="1719.85" fill="#80b2df" stroke="#fff" stroke-miterlimit="10" stroke-width="6"/><path fill="#0136bd" stroke="#fff" stroke-miterlimit="10" stroke-width="6" d="M3387.92,1552.87v251.72l81.42-40.58q-.3-125.05-.59-250.11Z"/><line x1="3389.47" x2="3468.47" y1="1582.11" y2="1546.78" fill="none" stroke="#fff" stroke-miterlimit="10" stroke-width="6"/><line x1="3389.47" x2="3468.47" y1="1613.34" y2="1578.01" fill="none" stroke="#fff" stroke-miterlimit="10" stroke-width="6"/><line x1="3389.47" x2="3468.47" y1="1642.44" y2="1607.11" fill="none" stroke="#fff" stroke-miterlimit="10" stroke-width="6"/><line x1="3389.47" x2="3468.47" y1="1676.91" y2="1641.58" fill="none" stroke="#fff" stroke-miterlimit="10" stroke-width="6"/><line x1="3389.47" x2="3468.47" y1="1707.88" y2="1672.55" fill="none" stroke="#fff" stroke-miterlimit="10" stroke-width="6"/><line x1="3389.47" x2="3468.47" y1="1739.8" y2="1704.47" fill="none" stroke="#fff" stroke-miterlimit="10" stroke-width="6"/><line x1="3389.47" x2="3468.47" y1="1770.44" y2="1735.11" fill="none" stroke="#fff" stroke-miterlimit="10" stroke-width="6"/><path fill="none" stroke="#231f20" stroke-miterlimit="10" stroke-width="6" d="M2103.13,2054.47s24.82,40.26,23.35,70.74"/><path fill="#fcd645" stroke="#f16723" stroke-miterlimit="10" stroke-width="6" d="M1873.22 1067.45s-241.48 330.7-255.92 368.22-11.54 117.55 74.47 138c0 0-45.49 3.11-70.86-14.23 0 0-50.53-81.74-18-140.28 3.47-6.67 9-17.19 16.21-29.91 22.88-40.64 43.36-70.63 54-85.84 62.92-90.4 172.52-227.77 172.52-227.77h0a75.93 75.93 0 0118.19-7.08A49.11 49.11 0 011873.22 1067.45zM1896 1813.16s165 108.63 229.58 149.46 152 87.64 152 87.64 104.81 43.33 103.94 112.76 1.64 73 1.64 73-33.72 17.29-40.21 0c0 0 24.12 102.56 28.74 136.14 6.72 19.32-1.26 35.55-9.9 37.72-8.41 2.12-23.44-7.61-28.91-26.17 5.93 19.66 2.75 36.62-7.83 42.67a16.19 16.19 0 01-9.37 2.31c-18.9-1.55-31.51-41.34-31.51-41.34h0c1.73 15.37-4 27.49-11.84 29.45-8.25 2.05-18-7.27-22.43-11.48a55.91 55.91 0 01-12.3-17.1c-7.08-15.63-26.1-52.21-52.52-102.65-10.66-10.6-28.7-33.71-59-54.16-32.31-21.78-393.43-227.68-393.43-227.68zM2230.51 2271.43s47.49 76.57 53.14 116.29M2262.54 2237.41s63.39 88 69.09 145.7"/><path fill="#27397c" d="M1783.12,1548.4a461.14,461.14,0,0,0,173.66,262.21s28.1,3.58-9.41,29.75a322.78,322.78,0,0,1-77.2,137.83l-34.37,49.74-144-38.94-59.86-72.9-112-370.14,108.8-65.39Z"/><path fill="#202854" d="M1616.6,2330.26s87.53,267,98.13,457.68l-408.16-54.73-193.68-490.44S1387.6,1940.06,1616.6,2330.26Z"/><path fill="#27397c" d="M962.58,2317.32,1036,2658.85l469.73,129.09L1461.78,2418s19.13-56.7,66.3-69.75-69.64-176-69.64-176l-312.17-50.54L960.53,2302.62Z"/><path fill="#ef7e7b" d="M1709.42,1026.86s-172.81,74.93-215.83,71.16l37.83,260.88s62.84-109.71,141.58-107.54Z"/><path fill="#ffcaa9" d="M1638.78,1152.55s-35.62,106.31,10.07,180.65c0,0,46.75,60.69,70.42,79.25l218.11-149.87-218.11-253.24Z"/><path fill="#632726" d="M1645.68,1078.11s-58.43,40.59-24.77,95.9c0,0,8-42,40.25-45.16,0,0-23.46,83.59,16.14,126.14,0,0-1.47-59.25,24.2-75.84,0,0-7.7,4.69,2.93,24.86,0,0,9.74-37,33.11-39.41l4.09-82.86Z"/><path fill="#fe8200" stroke="#fff" stroke-miterlimit="10" stroke-width="6" d="M2096.14,1036.12s82.49,62.28,66.32,83.54L2051.4,1227.47l-79.3-48.32-34.72-59.49Z"/><path fill="#202854" d="M2106.11,1119.66s23-88.74-59.37-166.67-190.65-85.87-227.31-55.28c0,0-17.74,9-36.12,6.39s-75.69,26.94-63.9,73.76,3,8.65,3,8.65l-113.59,48.23s140.6,188.82,328.56,227.84Z"/><path fill="#0136bd" d="M1738.12 997s26.45-22.92 68.25 0 115.7 20.71 115.7 20.71l-48.85 18.41a76.32 76.32 0 00-39.35-5.21 73.1 73.1 0 00-18.7 5.21 122 122 0 00-15.16-16.44c-6.07-5.47-13.9-12.54-25.38-17.45A73.88 73.88 0 001738.12 997zM1748.8 1018.18s27 17.05 31.56 33.35c0 0 21 13.52 49.74 5.8s28.84 2.38 28.84 2.38l-68.69 18.4S1765.66 1028.55 1748.8 1018.18z"/><path fill="#4c3594" d="M1670.26,1571s-20.61,75.29,0,118.59,13,221.15,13,221.15L1583.11,1879l17.1-332.06Z"/><path fill="#0136bd" d="M1774.63 1002.23s-11.16 74.23-109.07 69.61a142.64 142.64 0 0113.69-21.66 145.61 145.61 0 0142.93-37.47zM1720.1 982.91s-66.87-8.81-108.28 19.32c0 0 39.32 22.24 95.27 9.23z"/><path fill="#202854" d="M921.56,2257s3.56,43,41,60.35c0,0,187.06-111.75,378.47-29.6S1600,2275.05,1600,2275.05l-366.73-210.81L958.62,2032Z"/><path fill="#2968b2" d="M1512.59,1076.3s-257.74,15.17-371.58,169.54c0,0-247.29,370.22-295,797.73,0,0-36.79,221.36,89.3,213.53,0,0,66.9-95,223.1-62.25s186.52,143.54,335.64,146.81,144.66-56.55,144.66-56.55-34.91-162.77-16.69-215.78c0,0,36.62-352,14.22-410.83S1666,1529.71,1666,1529.71l-129.62-295.14Z"/><path fill="#3d2d7c" d="M1341.05 2159.14s102.5 181.48 178.86 138.16 81.59-69.56 81.59-69.56-9.07-35.14-57-38.19S1481.86 2296.08 1341.05 2159.14zM921.56 2177.69c20.38-16.44 55.69-39.88 104.43-49.36 115.1-22.4 204.9 52.52 218.25 64-57.3-91.15-156.07-130.4-231.74-102.68C957.85 2109.69 930.64 2159 921.56 2177.69z"/><path fill="#fe8200" d="M1429.05,1642.45s115.31,24.26,202.86-13.64l21.91,111.85s-73,44.72-175.27,30Z"/><path fill="#2968b2" d="M1947.37,1840.36q-114.11,96.38-103,114,4.1,6.51,25.38,2.21Z"/><path fill="#fcd645" stroke="#f16723" stroke-miterlimit="10" stroke-width="6" d="M1845.56,1075.69C1691.09,1263.51,1594.05,1413,1591,1454.49a180.29,180.29,0,0,0,2.48,42.91,161.18,161.18,0,0,0,27.4,62.09s61.54,35.29,143.3,2.55L2158.14,1278a160.63,160.63,0,0,0,23.44-58.46c9.41-51.21-9.46-92.15-17-106.65-6.93,5.4-19.09,13.16-35.21,14.6-15.13,1.35-26.83-3.48-34.39-6.71-38.85-16.58-74.21-34-91.36-42.63a227.82,227.82,0,0,0-51.9-13.92,230.57,230.57,0,0,0-87.94,4.42Z"/><path fill="#fe8200" stroke="#fff" stroke-miterlimit="10" stroke-width="6" d="M1912.55,1455.07l35,43.43L2103.67,1390s15.48-37.78-31.46-50.11Z"/><path fill="#f04c23" stroke="#fff" stroke-miterlimit="10" stroke-width="6" d="M2017.21,1339.92l30.39,36.91,28.67-20.24S2062.33,1311.18,2017.21,1339.92Z"/><circle cx="2051.4" cy="1352.3" r="10.73" fill="#fcd645"/><path fill="#27397c" d="M1618.21,1048.14s-67.08-8-100.8,17.26a40,40,0,0,0-5.65,28.28c1.74,57,2.14,116.63.79,178.74-1.12,51.5-3.37,101.23-6.49,149.06,11.26-20.68,32.21-33.52,54.27-33,23,.54,37.94,15.46,41.17,18.86,2-27.69,3.46-56.31,4.17-85.81a1776.06,1776.06,0,0,0-8.85-225,52.66,52.66,0,0,1,3.15-24.69A53.2,53.2,0,0,1,1618.21,1048.14Z"/><path fill="#27397c" d="M1419.25,1221.68s-261.79-96.17-254.27,200.54S1255.36,2009,1255.36,2009s27.72,108.06,198.74,141.27,8,0,8,0l109.49,22-14.84-284.46h-46.25s14.48-22.32,3.38-35.29c0,0,38.18-19.37,18.49-128.39,0,0-35.67-20.29-31.28-58.45,0,0,13.09-72.58,7.94-118.79,0,0,16.33-11.32-2.66-84.32,0,0-6.92-33.72-1.4-78.12C1504.94,1384.47,1503,1262.81,1419.25,1221.68Z"/><path fill="#2968b2" d="M1494.08 1899c-18 36-37.91 59.64-53.2 74.83-18.53 18.41-49.67 43.68-44.92 51.63a3.63 3.63 0 00.54.67c6.06 6 33.22-9.82 47.22-21.51 42.74-35.66 50.36-105.61 50.36-105.62zM1499.32 1860.29s-87.87 42-113.17 61.79-45.1-23.11-45.1-23.11a103 103 0 0149.5-19.8z"/><path fill="#202854" d="M1723.88,981.63s31.66-10.83,50.75,20.6c0,0-20.17,2.6-28.21,15.95s-52.26-7.63-45.66-19.18S1720.07,982.57,1723.88,981.63Z"/><path fill="#4e92fe" d="M2259.36,2215.55a98.4,98.4,0,0,0,24.16-11.5c3.42-3.33,4.17-6.05,4.12-8a24.53,24.53,0,0,0-1.68-6.7h0l-37.06-64.12a96.41,96.41,0,0,0-27.45-3.44l-24.56,3.44v33.93l15.4,22Z"/><path fill="#0136bd" d="M1871.13,2072.46s357.4,34.53,361.74,50.08c0,0-24.86,1.43,0,43.78l26.49,49.23s-22.87,9.27-48.17,4.78l-339.92-25.4c-30-30.12-39.89-69.31-25.75-96.91C1848.58,2092.05,1855.52,2081.24,1871.13,2072.46Z"/><path fill="#202854" d="M1846.6,2159.14c-53.46,31.9-84.13,91.63-78.7,153.29,5.58,63.38,48.35,118,108.87,138.85a265.24,265.24,0,0,0,100.06,3.8c76.47-11.84,126.5-54.53,146.12-73.34A930.31,930.31,0,0,1,2382,2167.53a476.22,476.22,0,0,1,263.68-41.91c13.54,3,73.48,14.9,134.2-20.54,67.52-39.42,84.41-107.23,87.09-118.84a540.91,540.91,0,0,0,6.78-88c-.27-41.49.56-60.18,2.2-97.55.35-7.88,1-20.66,6.91-35.8a122.28,122.28,0,0,1,23.79-36.08c22.2-23.1,67.65-40.82,124-42.66,0,0,26,18.45,8.25,44.12,0,0-85.73-12.42-114.44,27.16-14.18,19.56-18,45.56-22.14,99.11a748.54,748.54,0,0,0-1.43,92.31c.29,19.83-1.73,67-31.79,115.34-9.27,14.88-35,55-87.83,78.38-52.31,23.17-99.66,16-116.94,12.47-64.06-9.85-172.65-16-273.11,35.14-67.24,34.24-135,96.24-144.33,104.9-26.05,24.07-21.58,23.42-59.43,59.45-61.52,58.56-94.93,89.81-146.1,111.55a306.55,306.55,0,0,1-83.51,22c-16.79,2.08-74,7-129.51-29.11-76.13-49.55-85.82-135.09-86.92-146.52,0,0-16.63-94.34,98.4-177.45S1846.6,2159.14,1846.6,2159.14Z"/><path fill="#fcd645" stroke="#f16723" stroke-miterlimit="10" stroke-width="6" d="M1532.46,1859.37a319.83,319.83,0,0,1,11.84,128.71c-11.07,96.78-64.15,160.71-85.86,184.21,50.93,2.42,104.54,6.55,160.53,12.88q54.3,6.15,104.9,14.16,40.77,1,83.6,3.3,30.12,1.66,59.15,3.94s23,51.57,55.65,54.63,233.8,1.94,283.73-31.43c0,0,5.19-4.22,5.19-9.44,0,0-56.43-34.76-73.44-61.39,0,0-19-18.73-11.27-33.73,0,0,49,20.09,76.76,2.82,0,0,22.84-15.63,21.72-34.87,0,0,1.43-5.64-24.86-21.66s-56.84-32.27-56.84-32.27-25.58-11.64-63.53-7.19-80.3-4.11-80.3-4.11a299.81,299.81,0,0,0-33.9-18.52s-11.22-5.23-23-9.59C1920.41,1991.67,1756.77,1935.6,1532.46,1859.37Z"/><path fill="#27397c" stroke="#257cc0" stroke-miterlimit="10" stroke-width="6" d="M2247.47,2140.84s-20.89,25,17.45,32.34l145.64,26s-16.35-12.34,2.68-26.41Z"/><path fill="#fcd645" stroke="#f16723" stroke-miterlimit="10" stroke-width="6" d="M1564.63,1915.15s230.72,61.64,308.65,89.48,68.83,32.09,115.92,45.36,54.32,37,54.32,37a261.53,261.53,0,0,1,38.72,34c22.16,23.75,28.89,40,41.67,56.06,13.82,17.41,37.79,38.53,82.09,52.72"/><path fill="#f04c23" d="M2456.75 2203s-89.64-257.37-157.32-260.1c-2.31-.1-7.47-.25-9.91 3-10.83 14.25 55.37 63.72 113.18 158.41 24 39.32 54.05 98.72 54.05 98.72zM2452.1 2138.82h0s36.07-294.22 107.38-312.7c2.43-.63 7.88-2 11.22.87M2447.13 2214s-120.08-160.4-171.87-147.46c-1.77.45-5.71 1.47-6.91 4.26-5.3 12.35 54.86 32.43 117.83 86 26.15 22.24 61 57.21 61 57.21zM2471.78 2203.09s66.87-192 117.34-194c1.73-.07 5.58-.19 7.4 2.21 8.08 10.63-41.31 47.53-84.42 118.16-17.9 29.33-40.32 73.63-40.32 73.64zM2504.69 2205.54s138.08-225 203.29-213.68c2.23.39 7.19 1.3 8.87 4.85 7.44 15.71-65.89 48.89-140.41 126.57-30.94 32.25-71.75 82.26-71.75 82.26z"/><path fill="#2968b2" d="M1510.47,1887.83a287.86,287.86,0,0,1,12.81,93.49c-2.51,84.68-42.41,145.38-61.29,170.54l8.77,2.08a307.36,307.36,0,0,0,46.12-73.65c36.27-82,26.56-158.84,19.68-193.89Z"/></g></svg>